<?xml version="1.0" encoding="utf-8"?>
<!-- Generator: Adobe Illustrator 19.2.1, SVG Export Plug-In . SVG Version: 6.00 Build 0)  -->
<svg version="1.1" xmlns="http://www.w3.org/2000/svg" xmlns:xlink="http://www.w3.org/1999/xlink" x="0px" y="0px"
	 viewBox="0 0 281 281" style="enable-background:new 0 0 281 281;" xml:space="preserve">
<style type="text/css">
	.st0{display:none;}
	.st1{display:inline;}
	.st2{fill:#D15A28;}
	.st3{fill:#FFFFFF;}
	.st4{fill:#F99B20;}
	.st5{fill:#51B848;}
	.st6{fill:none;}
	.st7{fill:#F3715D;}
	.st8{display:inline;fill:#F99B20;}
	.st9{fill:#FFFFFF;stroke:#FFFFFF;stroke-miterlimit:10;}
	.st10{fill:#F99B20;stroke:#F99B20;stroke-miterlimit:10;}
</style>
<g id="Final_x5F_3_color" class="st0">
	<g class="st1">
		<g>
			<path class="st2" d="M142.6,127v27.2H73.7V127H142.6 M147.6,122H68.7v37.2h78.9V122L147.6,122z"/>
			<g>
				<g>
					<path class="st3" d="M79.6,159.2h52.8c10.3,0,18.6-8.3,18.6-18.6v0c0-10.3-8.3-18.6-18.6-18.6H79.6c-10.3,0-18.6,8.3-18.6,18.6
						v0C61,150.9,69.3,159.2,79.6,159.2z"/>
					<path class="st2" d="M132.4,127c7.5,0,13.6,6.1,13.6,13.6c0,7.5-6.1,13.6-13.6,13.6H79.6c-7.5,0-13.6-6.1-13.6-13.6
						S72.1,127,79.6,127H132.4 M132.4,122H79.6c-10.3,0-18.6,8.3-18.6,18.6v0c0,10.3,8.3,18.6,18.6,18.6h52.8
						c10.3,0,18.6-8.3,18.6-18.6v0C151,130.4,142.7,122,132.4,122L132.4,122z"/>
				</g>
			</g>
		</g>
		<g>
			<path class="st2" d="M207.3,127v27.2h-68.9V127H207.3 M212.3,122h-78.9v37.2h78.9V122L212.3,122z"/>
			<g>
				<g>
					<path class="st3" d="M201.4,159.2h-52.8c-10.3,0-18.6-8.3-18.6-18.6v0c0-10.3,8.3-18.6,18.6-18.6h52.8
						c10.3,0,18.6,8.3,18.6,18.6v0C220,150.9,211.7,159.2,201.4,159.2z"/>
					<path class="st2" d="M201.4,127c7.5,0,13.6,6.1,13.6,13.6c0,7.5-6.1,13.6-13.6,13.6h-52.8c-7.5,0-13.6-6.1-13.6-13.6
						s6.1-13.6,13.6-13.6H201.4 M201.4,122h-52.8c-10.3,0-18.6,8.3-18.6,18.6v0c0,10.3,8.3,18.6,18.6,18.6h52.8
						c10.3,0,18.6-8.3,18.6-18.6v0C220,130.4,211.7,122,201.4,122L201.4,122z"/>
				</g>
			</g>
		</g>
		<path class="st4" d="M82.8,131.7c-5.2,0-8.9,3.9-8.9,8.7v0c0,4.8,3.7,8.6,8.9,8.6c3.2,0,5.9-1.5,7.4-3.8c1-1.4,1.5-3.1,1.5-4.9v0
			c0-1.8-0.5-3.4-1.4-4.8C88.7,133.2,86,131.7,82.8,131.7z M87.8,140.4c0,2.9-2.1,5.2-5,5.2c-3,0-5.1-2.4-5.1-5.3v0
			c0-2.9,2.1-5.2,5-5.2C85.7,135.1,87.8,137.5,87.8,140.4L87.8,140.4z"/>
		<path class="st4" d="M206.6,140.4L206.6,140.4c0-4.8-3.6-8.4-8.9-8.4h-6.5v16.8h6.5C203,148.7,206.6,145.1,206.6,140.4z
			 M194.9,135.3h2.8c3,0,5,2.1,5,5v0c0,3-2,5-5,5h-2.8V135.3z"/>
		<g>
			<g>
				<path class="st4" d="M173.5,126.7c-0.9-2.1-2-4.2-3.3-6.1c-5.2-7.6-13.2-13.2-22.5-15.1c-2.3-0.5-4.8-0.7-7.2-0.7
					c-19.8,0-35.9,16.1-35.9,35.9c0,5,1,9.7,2.8,14c0.9,2.1,2,4.2,3.3,6.1c0.6,1,1.3,1.9,2.1,2.8c6.6,8,16.5,13,27.7,13h0
					c2.5,0,4.9-0.3,7.2-0.7c9.3-1.9,17.4-7.5,22.5-15.1c1.3-1.9,2.4-3.9,3.3-6.1c1.8-4.3,2.8-9,2.8-14
					C176.4,135.7,175.4,131,173.5,126.7z"/>
				<path class="st3" d="M140.5,104.8c2.5,0,4.9,0.3,7.2,0.7c9.3,1.9,17.4,7.5,22.5,15.1c1.3,1.9,2.4,3.9,3.3,6.1
					c1.8,4.3,2.8,9,2.8,14s-1,9.7-2.8,14c-0.9,2.1-2,4.2-3.3,6.1c-5.2,7.6-13.2,13.2-22.5,15.1c-2.3,0.5-4.8,0.7-7.2,0.7h0
					c-11.1,0-21.1-5.1-27.7-13c-0.7-0.9-1.4-1.8-2.1-2.8c-1.3-1.9-2.4-3.9-3.3-6.1c-1.8-4.3-2.8-9-2.8-14
					C104.6,120.8,120.7,104.8,140.5,104.8 M140.5,98.8c-23.1,0-41.9,18.8-41.9,41.9c0,5.6,1.1,11.1,3.3,16.3c1,2.5,2.3,4.9,3.9,7.1
					c0.7,1.1,1.6,2.2,2.4,3.2c8,9.7,19.8,15.2,32.3,15.2c2.8,0,5.7-0.3,8.4-0.9c10.8-2.2,20.1-8.5,26.3-17.6
					c1.5-2.2,2.8-4.6,3.9-7.1c2.2-5.2,3.3-10.6,3.3-16.3s-1.1-11.1-3.3-16.3c-1-2.5-2.3-4.9-3.9-7.1c-6.2-9.1-15.5-15.4-26.3-17.6
					C146.2,99.1,143.3,98.8,140.5,98.8L140.5,98.8z"/>
			</g>
			<path class="st2" d="M171.6,140.6c0-17.1-13.9-31.1-31.1-31.1v10.1v4.8h0v32.4h0v4.8v10.1C157.6,171.7,171.6,157.8,171.6,140.6z
				 M140.5,154.5c7.6,0,13.8-6.2,13.8-13.8c0-7.6-6.2-13.8-13.8-13.8V122c10.3,0,18.6,8.3,18.6,18.6c0,10.3-8.3,18.6-18.6,18.6
				V154.5z"/>
			<path class="st4" d="M173.5,126.7c-0.9-2.1-2-4.2-3.3-6.1c-5.2-7.6-13.2-13.2-22.5-15.1c-2.3-0.5-4.8-0.7-7.2-0.7
				c-19.8,0-35.9,16.1-35.9,35.9c0,5,1,9.7,2.8,14c0.9,2.1,2,4.2,3.3,6.1c0.6,1,1.3,1.9,2.1,2.8c6.6,8,16.5,13,27.7,13h0
				c2.5,0,4.9-0.3,7.2-0.7c9.3-1.9,17.4-7.5,22.5-15.1c1.3-1.9,2.4-3.9,3.3-6.1c1.8-4.3,2.8-9,2.8-14
				C176.4,135.7,175.4,131,173.5,126.7z M140.5,171.7v-10.1v-4.8h0v-32.4h0v-4.8v-10.1c17.1,0,31.1,13.9,31.1,31.1
				C171.6,157.8,157.6,171.7,140.5,171.7z"/>
			<path class="st5" d="M154.9,98c5.2-2.7,7.3-9.1,7.3-9.1s-6.4-2-11.6,0.7c-5.2,2.7-7.3,9.1-7.3,9.1S149.6,100.7,154.9,98z"/>
			<path class="st5" d="M145.3,88c0-5.9-4.7-10.7-4.7-10.7s-4.7,4.8-4.7,10.7s4.7,10.7,4.7,10.7S145.3,93.9,145.3,88z"/>
			<path class="st4" d="M159.1,140.6c0-10.3-8.3-18.6-18.6-18.6v4.8c7.6,0,13.8,6.2,13.8,13.8c0,7.6-6.2,13.8-13.8,13.8v4.8
				C150.8,159.2,159.1,150.9,159.1,140.6z"/>
		</g>
		<g>
			<g>
				<path class="st4" d="M79.6,102.7c-1.4,2.2-4,2.7-6,1.5l0,0c-2-1.3-2.7-3.9-1.3-6s4-2.7,6-1.5l0,0C80.3,97.9,81,100.6,79.6,102.7
					z M77.3,98.3c-1.2-0.8-2.8-0.5-3.6,0.8s-0.3,2.7,0.9,3.5l0,0c1.2,0.8,2.8,0.5,3.6-0.8C79,100.6,78.6,99.1,77.3,98.3L77.3,98.3z"
					/>
				<path class="st4" d="M97.2,83.3l-3.1-1L93,83.2l1.7,2.1l-1.4,1.1L88,79.9l3-2.4c1.5-1.2,3.1-1.1,4.2,0.2l0,0
					c0.8,1.1,0.8,2.2,0.2,3.1l3.4,1.1L97.2,83.3z M93.8,79c-0.5-0.6-1.2-0.6-1.9,0l-1.4,1.1L92,82l1.5-1.2
					C94.1,80.3,94.3,79.6,93.8,79L93.8,79z"/>
				<path class="st4" d="M113.5,74l-2.8-7.8l1.7-0.6l2.3,6.3l3.9-1.4l0.6,1.6L113.5,74z"/>
				<path class="st4" d="M141.9,68.8l-0.8-1.9l-3.5,0.1l-0.7,1.9l-1.9,0l3.4-8.5l1.7,0l3.7,8.3L141.9,68.8z M139.3,62.6l-1.1,2.7
					l2.2,0L139.3,62.6z"/>
				<path class="st4" d="M165.6,73.3l-2.1-6.3l-1.7,5l-1.7-0.6l2.7-7.9l1.6,0.5l2.1,6.1l1.6-4.9l1.7,0.6l-2.7,7.9L165.6,73.3z"/>
				<path class="st4" d="M184.7,84.1l-2.5-2l5.2-6.5l2.5,2c2.1,1.6,2.4,4.2,0.9,6l0,0C189.3,85.4,186.8,85.7,184.7,84.1z
					 M189.3,82.3c0.9-1.2,0.8-2.6-0.4-3.5l-1.1-0.9l-3.1,3.9l1.1,0.9C186.9,83.7,188.4,83.5,189.3,82.3L189.3,82.3z"/>
				<path class="st4" d="M201.4,102.8c-1.4-2.2-0.7-4.8,1.3-6l0,0c2-1.3,4.6-0.7,6,1.5c1.4,2.2,0.7,4.8-1.3,6l0,0
					C205.4,105.6,202.8,105,201.4,102.8z M206.4,102.7c1.2-0.8,1.7-2.3,0.9-3.5c-0.8-1.3-2.3-1.5-3.5-0.8l0,0
					c-1.2,0.8-1.7,2.3-0.9,3.5C203.6,103.2,205.2,103.4,206.4,102.7L206.4,102.7z"/>
			</g>
			<g>
				<path class="st4" d="M72.4,182.4l-1.7-2.8l7.1-4.4l1.7,2.8c1.4,2.2,0.8,4.7-1.2,5.9l0,0C76.3,185.2,73.8,184.6,72.4,182.4z
					 M77.3,182.3c1.3-0.8,1.6-2.2,0.8-3.5l-0.7-1.2l-4.3,2.7l0.7,1.2C74.6,182.8,76,183.1,77.3,182.3L77.3,182.3z"/>
				<path class="st4" d="M83.9,197l5.7-6.1l4.6,4.3l-1.1,1.2l-3.3-3l-1.2,1.2l2.9,2.7l-1.1,1.2l-2.9-2.7l-1.2,1.3l3.3,3.1l-1.1,1.2
					L83.9,197z"/>
				<path class="st4" d="M102.6,211c-1.1-0.6-2-1.6-2.5-2.9l1.6-0.6c0.4,0.9,0.9,1.6,1.7,2.1c0.7,0.4,1.2,0.3,1.4-0.1l0,0
					c0.2-0.4,0.1-0.8-1-1.7c-1.3-1.2-2-2.1-1.2-3.6l0,0c0.7-1.3,2.3-1.6,3.8-0.8c1.1,0.6,1.8,1.4,2.2,2.4l-1.5,0.8
					c-0.4-0.8-0.9-1.4-1.5-1.8c-0.6-0.3-1.1-0.2-1.3,0.1l0,0c-0.3,0.5,0,0.8,1.1,1.8c1.3,1.2,1.8,2.2,1.1,3.5l0,0
					C105.7,211.7,104.1,211.9,102.6,211z"/>
				<path class="st4" d="M118.4,217.4l2.2-8l1.8,0.5l-2.2,8L118.4,217.4z"/>
				<path class="st4" d="M138.4,220.6c-2.6-0.1-4.3-2-4.2-4.4l0,0c0.1-2.4,2-4.3,4.5-4.2c1.5,0,2.4,0.5,3.2,1.2l-1.2,1.4
					c-0.6-0.6-1.2-0.9-2.2-0.9c-1.3,0-2.4,1.1-2.5,2.5l0,0c0,1.5,1,2.7,2.4,2.7c0.7,0,1.3-0.1,1.7-0.4l0-1.2l-1.8-0.1l0-1.6l3.6,0.1
					l-0.1,3.6C141.1,220.1,139.9,220.6,138.4,220.6z"/>
				<path class="st4" d="M162,217.6l-5.2-4.2l1.3,5.1l-1.8,0.4l-2-8.1l1.6-0.4l5,4l-1.2-5l1.8-0.4l2,8.1L162,217.6z"/>
				<path class="st4" d="M177,211.7l-4.1-7.3l5.5-3.1l0.8,1.4l-3.9,2.2l0.8,1.5l3.4-1.9l0.8,1.4l-3.4,1.9l0.9,1.5l3.9-2.2l0.8,1.4
					L177,211.7z"/>
				<path class="st4" d="M197.6,196.5l-3.1-0.7l-1,1l1.9,1.9l-1.3,1.3l-5.8-6l2.7-2.7c1.4-1.4,3-1.5,4.2-0.2l0,0
					c0.9,1,1,2.1,0.5,3.1l3.5,0.7L197.6,196.5z M193.8,192.5c-0.5-0.6-1.2-0.5-1.9,0.2l-1.3,1.3l1.7,1.7l1.3-1.3
					C194.2,193.8,194.3,193.1,193.8,192.5L193.8,192.5z"/>
				<path class="st4" d="M209.2,181.5c-0.6,1.1-1.7,1.9-3,2.3l-0.6-1.6c0.9-0.3,1.7-0.8,2.1-1.6c0.4-0.6,0.4-1.2-0.1-1.4l0,0
					c-0.4-0.2-0.7-0.1-1.8,0.9c-1.2,1.2-2.2,1.9-3.6,1.1l0,0c-1.3-0.8-1.5-2.3-0.7-3.8c0.6-1,1.5-1.7,2.5-2.1l0.7,1.5
					c-0.8,0.4-1.5,0.8-1.8,1.4c-0.4,0.6-0.3,1.1,0.1,1.3l0,0c0.5,0.3,0.8,0.1,1.9-1c1.2-1.2,2.3-1.7,3.5-1l0,0
					C210,178.4,210.1,180,209.2,181.5z"/>
			</g>
			<g>
				<circle class="st6" cx="140.5" cy="140.6" r="79.8"/>
			</g>
		</g>
		<g>
			<path class="st5" d="M122.7,194.5v-4.9h3.7v1h-2.6v1h2.3v1h-2.3v1h2.7v1H122.7z"/>
			<path class="st5" d="M129.8,194.6c-0.7,0-1.5-0.3-2.1-0.8l0.6-0.8c0.4,0.4,0.9,0.6,1.5,0.6c0.4,0,0.7-0.2,0.7-0.5v0
				c0-0.3-0.2-0.4-1-0.6c-1-0.3-1.6-0.5-1.6-1.5v0c0-0.9,0.7-1.5,1.7-1.5c0.7,0,1.3,0.2,1.8,0.6l-0.6,0.8c-0.4-0.3-0.9-0.5-1.3-0.5
				s-0.6,0.2-0.6,0.4v0c0,0.3,0.2,0.4,1.1,0.6c1,0.3,1.6,0.6,1.6,1.5v0C131.6,194,130.9,194.6,129.8,194.6z"/>
			<path class="st5" d="M135.3,190.6v3.9h-1.1v-3.9h-1.5v-1h4.1v1H135.3z"/>
			<path class="st5" d="M141.1,191.1l-0.8-0.6c0.5-0.7,1-1,1.8-1c1,0,1.7,0.6,1.7,1.5c0,0.8-0.4,1.2-1.3,1.9l-0.8,0.6h2.1v0.9h-3.6
				v-0.9l1.6-1.3c0.6-0.5,0.8-0.8,0.8-1.2c0-0.4-0.3-0.6-0.7-0.6C141.8,190.5,141.5,190.7,141.1,191.1z"/>
			<path class="st5" d="M147.5,194.6c-1.3,0-2.2-1.1-2.2-2.5s0.9-2.5,2.2-2.5s2.2,1.1,2.2,2.5S148.8,194.6,147.5,194.6z
				 M147.5,190.5c-0.7,0-1.1,0.7-1.1,1.6s0.4,1.6,1.1,1.6s1.1-0.7,1.1-1.6S148.1,190.5,147.5,190.5z"/>
			<path class="st5" d="M152.1,189.6h0.7v4.9h-1.1v-3.8l-0.9,0.2l-0.2-0.9L152.1,189.6z"/>
			<path class="st5" d="M154.8,189.6h3v0.9h-2.1l-0.1,0.8c0.2,0,0.4-0.1,0.6-0.1c1,0,1.7,0.5,1.7,1.6c0,1-0.7,1.7-1.9,1.7
				c-0.8,0-1.4-0.3-1.8-0.7l0.7-0.8c0.4,0.3,0.7,0.5,1.2,0.5c0.5,0,0.8-0.2,0.8-0.7c0-0.4-0.3-0.7-0.9-0.7c-0.3,0-0.6,0.1-0.8,0.2
				l-0.6-0.4L154.8,189.6z"/>
		</g>
	</g>
</g>
<g id="Final_x5F_2_color" class="st0">
	<g class="st1">
		<g>
			<path class="st6" d="M140.5,104.8L140.5,104.8c0.6,0,1.2,0,1.8,0C141.7,104.8,141.1,104.8,140.5,104.8z"/>
			<path class="st6" d="M140.5,176.5c0.6,0,1.2,0,1.8,0C141.7,176.5,141.1,176.5,140.5,176.5L140.5,176.5z"/>
			<path class="st4" d="M72.1,157.7c-0.2-0.1-0.4-0.2-0.6-0.3c-0.8-0.4-1.6-0.8-2.3-1.3c-0.2-0.1-0.3-0.3-0.5-0.4v3.6h10.9
				c-2.4,0-4.7-0.5-6.8-1.3C72.6,157.9,72.3,157.8,72.1,157.7z"/>
			<path class="st4" d="M71.5,123.9c0.2-0.1,0.4-0.2,0.6-0.3c0.2-0.1,0.4-0.2,0.6-0.3c2.1-0.8,4.4-1.3,6.8-1.3H68.7v3.6
				c0.2-0.1,0.3-0.3,0.5-0.4C69.9,124.7,70.7,124.3,71.5,123.9z"/>
			<path class="st4" d="M100.9,154.2H79.6c-7.5,0-13.6-6.1-13.6-13.6c0-7.5,6.1-13.6,13.6-13.6h21.3c0.6-1.7,1.3-3.4,2.1-5H79.6h0
				c0,0,0,0,0,0c-2.4,0-4.7,0.5-6.8,1.3c-0.2,0.1-0.4,0.2-0.6,0.3c-0.2,0.1-0.4,0.2-0.6,0.3c-0.8,0.4-1.6,0.8-2.3,1.3
				c-0.2,0.1-0.3,0.3-0.5,0.4c-0.3,0.2-0.6,0.4-0.9,0.7c-1.4,1.1-2.6,2.5-3.6,4c-2,3-3.2,6.5-3.2,10.4v0c0,3.9,1.2,7.4,3.2,10.4
				c1,1.5,2.2,2.8,3.6,4c0.3,0.2,0.6,0.5,0.9,0.7c0.2,0.1,0.3,0.3,0.5,0.4c0.7,0.5,1.5,1,2.3,1.3c0.2,0.1,0.4,0.2,0.6,0.3
				c0.2,0.1,0.4,0.2,0.6,0.3c2.1,0.8,4.4,1.3,6.8,1.3c0,0,0,0,0,0h0H103c-0.4-0.8-0.7-1.5-1.1-2.3
				C101.6,156,101.2,155.1,100.9,154.2z"/>
			<path class="st4" d="M201.4,159.2h10.9v-3.6c-0.2,0.1-0.3,0.3-0.5,0.4C208.8,158.1,205.3,159.2,201.4,159.2z"/>
			<path class="st4" d="M212.3,125.6V122h-10.9c3.9,0,7.4,1.2,10.4,3.2C212,125.3,212.2,125.5,212.3,125.6z"/>
			<path class="st4" d="M216.8,130.2c-0.7-1-1.4-1.9-2.3-2.8c-0.7-0.7-1.5-1.3-2.2-1.9c-0.2-0.1-0.3-0.3-0.5-0.4
				c-3-2-6.5-3.2-10.4-3.2c0,0,0,0,0,0h0H178c0.4,0.8,0.7,1.5,1.1,2.3c0.4,0.9,0.7,1.8,1,2.7h21.3c7.5,0,13.6,6.1,13.6,13.6
				c0,7.5-6.1,13.6-13.6,13.6h-21.3c-0.3,0.9-0.6,1.8-1,2.7c-0.3,0.8-0.7,1.5-1.1,2.3h23.4h0c0,0,0,0,0,0c3.9,0,7.4-1.2,10.4-3.2
				c0.2-0.1,0.3-0.3,0.5-0.4c0.8-0.6,1.6-1.2,2.2-1.9c0.8-0.8,1.6-1.8,2.3-2.8c2-3,3.2-6.5,3.2-10.4v0
				C220,136.8,218.8,133.2,216.8,130.2z"/>
			<path class="st4" d="M172,123.5c-0.6-1-1.2-2-1.8-3c-1.6-2.4-3.5-4.6-5.6-6.5c-0.5-0.5-1.1-0.9-1.6-1.4c-1.1-0.9-2.3-1.7-3.5-2.5
				c-0.6-0.4-1.2-0.7-1.9-1.1c-3-1.7-6.4-2.9-9.9-3.6c-1.2-0.2-2.4-0.4-3.6-0.5c-0.6-0.1-1.2-0.1-1.8-0.1c-0.6,0-1.2,0-1.8,0
				c-19.8,0-35.9,16.1-35.9,35.9c0,5,1,9.7,2.8,14c0.2,0.5,0.5,1.1,0.7,1.6c0.8,1.6,1.6,3.1,2.6,4.5c0.3,0.5,0.7,0.9,1,1.4
				s0.7,0.9,1.1,1.4c0.8,1,1.7,1.9,2.6,2.8c1.8,1.8,3.9,3.4,6.1,4.8c1.1,0.7,2.2,1.3,3.4,1.9c4.7,2.3,10,3.5,15.5,3.5h0
				c0.6,0,1.2,0,1.8,0s1.2-0.1,1.8-0.1c1.2-0.1,2.4-0.3,3.6-0.5c3.5-0.7,6.8-1.9,9.9-3.6c0.6-0.3,1.3-0.7,1.9-1.1
				c1.2-0.8,2.4-1.6,3.5-2.5c0.6-0.5,1.1-0.9,1.6-1.4c2.1-1.9,4-4.1,5.6-6.5c0.6-1,1.2-1.9,1.8-3c0.6-1,1.1-2.1,1.5-3.1
				c1.8-4.3,2.8-9,2.8-14c0-5-1-9.7-2.8-14C173.1,125.6,172.6,124.6,172,123.5z M140.5,171.7v-10.1v-4.8h0v-32.4h0v-4.8v-10.1
				c17.1,0,31.1,13.9,31.1,31.1C171.6,157.8,157.6,171.7,140.5,171.7z"/>
			<path class="st5" d="M154.9,98c5.2-2.7,7.3-9.1,7.3-9.1s-6.4-2-11.6,0.7c-5.2,2.7-7.3,9.1-7.3,9.1s0.3,0.1,0.8,0.2
				c0.8,0.2,2.1,0.4,3.7,0.5C149.9,99.5,152.5,99.2,154.9,98z"/>
			<path class="st5" d="M145.3,88c0-5.9-4.7-10.7-4.7-10.7s-4.7,4.8-4.7,10.7c0,5.9,4.7,10.7,4.7,10.7S145.3,93.9,145.3,88z"/>
			<path class="st4" d="M140.5,122v4.8c7.6,0,13.8,6.2,13.8,13.8c0,7.6-6.2,13.8-13.8,13.8v4.8c10.3,0,18.6-8.3,18.6-18.6
				C159.1,130.4,150.8,122,140.5,122z"/>
		</g>
		<path class="st5" d="M82.8,131.7c-5.2,0-8.9,3.9-8.9,8.7v0c0,4.8,3.7,8.6,8.9,8.6c3.2,0,5.9-1.5,7.4-3.8c1-1.4,1.5-3.1,1.5-4.9v0
			c0-1.8-0.5-3.4-1.4-4.8C88.7,133.2,86,131.7,82.8,131.7z M87.8,140.4c0,2.9-2.1,5.2-5,5.2c-3,0-5.1-2.4-5.1-5.3v0
			c0-2.9,2.1-5.2,5-5.2C85.7,135.1,87.8,137.5,87.8,140.4L87.8,140.4z"/>
		<path class="st5" d="M206.6,140.4L206.6,140.4c0-4.8-3.6-8.4-8.9-8.4h-6.5v16.8h6.5C203,148.7,206.6,145.1,206.6,140.4z
			 M194.9,135.3h2.8c3,0,5,2.1,5,5v0c0,3-2,5-5,5h-2.8V135.3z"/>
		<g>
			<g>
				<path class="st4" d="M79.6,102.7c-1.4,2.2-4,2.7-6,1.5l0,0c-2-1.3-2.7-3.9-1.3-6s4-2.7,6-1.5l0,0C80.3,97.9,81,100.6,79.6,102.7
					z M77.3,98.3c-1.2-0.8-2.8-0.5-3.6,0.8s-0.3,2.7,0.9,3.5l0,0c1.2,0.8,2.8,0.5,3.6-0.8C79,100.6,78.6,99.1,77.3,98.3L77.3,98.3z"
					/>
				<path class="st4" d="M97.2,83.3l-3.1-1L93,83.2l1.7,2.1l-1.4,1.1L88,79.9l3-2.4c1.5-1.2,3.1-1.1,4.2,0.2l0,0
					c0.8,1.1,0.8,2.2,0.2,3.1l3.4,1.1L97.2,83.3z M93.8,79c-0.5-0.6-1.2-0.6-1.9,0l-1.4,1.1L92,82l1.5-1.2
					C94.1,80.3,94.3,79.6,93.8,79L93.8,79z"/>
				<path class="st4" d="M113.5,74l-2.8-7.8l1.7-0.6l2.3,6.3l3.9-1.4l0.6,1.6L113.5,74z"/>
				<path class="st4" d="M141.9,68.8l-0.8-1.9l-3.5,0.1l-0.7,1.9l-1.9,0l3.4-8.5l1.7,0l3.7,8.3L141.9,68.8z M139.3,62.6l-1.1,2.7
					l2.2,0L139.3,62.6z"/>
				<path class="st4" d="M165.6,73.3l-2.1-6.3l-1.7,5l-1.7-0.6l2.7-7.9l1.6,0.5l2.1,6.1l1.6-4.9l1.7,0.6l-2.7,7.9L165.6,73.3z"/>
				<path class="st4" d="M184.7,84.1l-2.5-2l5.2-6.5l2.5,2c2.1,1.6,2.4,4.2,0.9,6l0,0C189.3,85.4,186.8,85.7,184.7,84.1z
					 M189.3,82.3c0.9-1.2,0.8-2.6-0.4-3.5l-1.1-0.9l-3.1,3.9l1.1,0.9C186.9,83.7,188.4,83.5,189.3,82.3L189.3,82.3z"/>
				<path class="st4" d="M201.4,102.8c-1.4-2.2-0.7-4.8,1.3-6l0,0c2-1.3,4.6-0.7,6,1.5c1.4,2.2,0.7,4.8-1.3,6l0,0
					C205.4,105.6,202.8,105,201.4,102.8z M206.4,102.7c1.2-0.8,1.7-2.3,0.9-3.5c-0.8-1.3-2.3-1.5-3.5-0.8l0,0
					c-1.2,0.8-1.7,2.3-0.9,3.5C203.6,103.2,205.2,103.4,206.4,102.7L206.4,102.7z"/>
			</g>
			<g>
				<path class="st4" d="M72.4,182.4l-1.7-2.8l7.1-4.4l1.7,2.8c1.4,2.2,0.8,4.7-1.2,5.9l0,0C76.3,185.2,73.8,184.6,72.4,182.4z
					 M77.3,182.3c1.3-0.8,1.6-2.2,0.8-3.5l-0.7-1.2l-4.3,2.7l0.7,1.2C74.6,182.8,76,183.1,77.3,182.3L77.3,182.3z"/>
				<path class="st4" d="M83.9,197l5.7-6.1l4.6,4.3l-1.1,1.2l-3.3-3l-1.2,1.2l2.9,2.7l-1.1,1.2l-2.9-2.7l-1.2,1.3l3.3,3.1l-1.1,1.2
					L83.9,197z"/>
				<path class="st4" d="M102.6,211c-1.1-0.6-2-1.6-2.5-2.9l1.6-0.6c0.4,0.9,0.9,1.6,1.7,2.1c0.7,0.4,1.2,0.3,1.4-0.1l0,0
					c0.2-0.4,0.1-0.8-1-1.7c-1.3-1.2-2-2.1-1.2-3.6l0,0c0.7-1.3,2.3-1.6,3.8-0.8c1.1,0.6,1.8,1.4,2.2,2.4l-1.5,0.8
					c-0.4-0.8-0.9-1.4-1.5-1.8c-0.6-0.3-1.1-0.2-1.3,0.1l0,0c-0.3,0.5,0,0.8,1.1,1.8c1.3,1.2,1.8,2.2,1.1,3.5l0,0
					C105.7,211.7,104.1,211.9,102.6,211z"/>
				<path class="st4" d="M118.4,217.4l2.2-8l1.8,0.5l-2.2,8L118.4,217.4z"/>
				<path class="st4" d="M138.4,220.6c-2.6-0.1-4.3-2-4.2-4.4l0,0c0.1-2.4,2-4.3,4.5-4.2c1.5,0,2.4,0.5,3.2,1.2l-1.2,1.4
					c-0.6-0.6-1.2-0.9-2.2-0.9c-1.3,0-2.4,1.1-2.5,2.5l0,0c0,1.5,1,2.7,2.4,2.7c0.7,0,1.3-0.1,1.7-0.4l0-1.2l-1.8-0.1l0-1.6l3.6,0.1
					l-0.1,3.6C141.1,220.1,139.9,220.6,138.4,220.6z"/>
				<path class="st4" d="M162,217.6l-5.2-4.2l1.3,5.1l-1.8,0.4l-2-8.1l1.6-0.4l5,4l-1.2-5l1.8-0.4l2,8.1L162,217.6z"/>
				<path class="st4" d="M177,211.7l-4.1-7.3l5.5-3.1l0.8,1.4l-3.9,2.2l0.8,1.5l3.4-1.9l0.8,1.4l-3.4,1.9l0.9,1.5l3.9-2.2l0.8,1.4
					L177,211.7z"/>
				<path class="st4" d="M197.6,196.5l-3.1-0.7l-1,1l1.9,1.9l-1.3,1.3l-5.8-6l2.7-2.7c1.4-1.4,3-1.5,4.2-0.2l0,0
					c0.9,1,1,2.1,0.5,3.1l3.5,0.7L197.6,196.5z M193.8,192.5c-0.5-0.6-1.2-0.5-1.9,0.2l-1.3,1.3l1.7,1.7l1.3-1.3
					C194.2,193.8,194.3,193.1,193.8,192.5L193.8,192.5z"/>
				<path class="st4" d="M209.2,181.5c-0.6,1.1-1.7,1.9-3,2.3l-0.6-1.6c0.9-0.3,1.7-0.8,2.1-1.6c0.4-0.6,0.4-1.2-0.1-1.4l0,0
					c-0.4-0.2-0.7-0.1-1.8,0.9c-1.2,1.2-2.2,1.9-3.6,1.1l0,0c-1.3-0.8-1.5-2.3-0.7-3.8c0.6-1,1.5-1.7,2.5-2.1l0.7,1.5
					c-0.8,0.4-1.5,0.8-1.8,1.4c-0.4,0.6-0.3,1.1,0.1,1.3l0,0c0.5,0.3,0.8,0.1,1.9-1c1.2-1.2,2.3-1.7,3.5-1l0,0
					C210,178.4,210.1,180,209.2,181.5z"/>
			</g>
			<g>
				<circle class="st6" cx="140.5" cy="140.6" r="79.8"/>
			</g>
		</g>
		<g>
			<path class="st5" d="M122.7,194.5v-4.9h3.7v1h-2.6v1h2.3v1h-2.3v1h2.7v1H122.7z"/>
			<path class="st5" d="M129.8,194.6c-0.7,0-1.5-0.3-2.1-0.8l0.6-0.8c0.4,0.4,0.9,0.6,1.5,0.6c0.4,0,0.7-0.2,0.7-0.5v0
				c0-0.3-0.2-0.4-1-0.6c-1-0.3-1.6-0.5-1.6-1.5v0c0-0.9,0.7-1.5,1.7-1.5c0.7,0,1.3,0.2,1.8,0.6l-0.6,0.8c-0.4-0.3-0.9-0.5-1.3-0.5
				s-0.6,0.2-0.6,0.4v0c0,0.3,0.2,0.4,1.1,0.6c1,0.3,1.6,0.6,1.6,1.5v0C131.6,194,130.9,194.6,129.8,194.6z"/>
			<path class="st5" d="M135.3,190.6v3.9h-1.1v-3.9h-1.5v-1h4.1v1H135.3z"/>
			<path class="st5" d="M141.1,191.1l-0.8-0.6c0.5-0.7,1-1,1.8-1c1,0,1.7,0.6,1.7,1.5c0,0.8-0.4,1.2-1.3,1.9l-0.8,0.6h2.1v0.9h-3.6
				v-0.9l1.6-1.3c0.6-0.5,0.8-0.8,0.8-1.2c0-0.4-0.3-0.6-0.7-0.6C141.8,190.5,141.5,190.7,141.1,191.1z"/>
			<path class="st5" d="M147.5,194.6c-1.3,0-2.2-1.1-2.2-2.5s0.9-2.5,2.2-2.5s2.2,1.1,2.2,2.5S148.8,194.6,147.5,194.6z
				 M147.5,190.5c-0.7,0-1.1,0.7-1.1,1.6s0.4,1.6,1.1,1.6s1.1-0.7,1.1-1.6S148.1,190.5,147.5,190.5z"/>
			<path class="st5" d="M152.1,189.6h0.7v4.9h-1.1v-3.8l-0.9,0.2l-0.2-0.9L152.1,189.6z"/>
			<path class="st5" d="M154.8,189.6h3v0.9h-2.1l-0.1,0.8c0.2,0,0.4-0.1,0.6-0.1c1,0,1.7,0.5,1.7,1.6c0,1-0.7,1.7-1.9,1.7
				c-0.8,0-1.4-0.3-1.8-0.7l0.7-0.8c0.4,0.3,0.7,0.5,1.2,0.5c0.5,0,0.8-0.2,0.8-0.7c0-0.4-0.3-0.7-0.9-0.7c-0.3,0-0.6,0.1-0.8,0.2
				l-0.6-0.4L154.8,189.6z"/>
		</g>
	</g>
</g>
<g id="Final_x5F_1_color" class="st0">
	<g class="st1">
		<path class="st4" d="M71.5,123.9c0.2-0.1,0.4-0.2,0.6-0.3c0.2-0.1,0.4-0.2,0.6-0.3c2.1-0.8,4.4-1.3,6.8-1.3H68.7v3.6
			c0.2-0.1,0.3-0.3,0.5-0.4C69.9,124.7,70.7,124.3,71.5,123.9z"/>
		<path class="st4" d="M72.1,157.7c-0.2-0.1-0.4-0.2-0.6-0.3c-0.8-0.4-1.6-0.8-2.3-1.3c-0.2-0.1-0.3-0.3-0.5-0.4v3.6h10.9
			c-2.4,0-4.7-0.5-6.8-1.3C72.6,157.9,72.3,157.8,72.1,157.7z"/>
		<path class="st4" d="M100.9,154.2H79.6c-7.5,0-13.6-6.1-13.6-13.6c0-7.5,6.1-13.6,13.6-13.6h21.3c0.6-1.7,1.3-3.4,2.1-5H79.6h0
			c0,0,0,0,0,0c0,0,0,0,0,0c-2.4,0-4.7,0.5-6.8,1.3c-0.2,0.1-0.4,0.2-0.6,0.3c-0.2,0.1-0.4,0.2-0.6,0.3c-0.8,0.4-1.6,0.8-2.3,1.3
			c-0.2,0.1-0.3,0.3-0.5,0.4c-0.3,0.2-0.6,0.4-0.9,0.7c-1.4,1.1-2.6,2.5-3.6,4c-2,3-3.2,6.5-3.2,10.4v0c0,3.9,1.2,7.4,3.2,10.4
			c1,1.5,2.2,2.8,3.6,4c0.3,0.2,0.6,0.5,0.9,0.7c0.2,0.1,0.3,0.3,0.5,0.4c0.7,0.5,1.5,1,2.3,1.3c0.2,0.1,0.4,0.2,0.6,0.3
			c0.2,0.1,0.4,0.2,0.6,0.3c2.1,0.8,4.4,1.3,6.8,1.3c0,0,0,0,0,0c0,0,0,0,0,0h0H103c-0.4-0.8-0.7-1.5-1.1-2.3
			C101.6,156,101.2,155.1,100.9,154.2z"/>
		<path class="st4" d="M212.3,125.6V122h-10.9c3.9,0,7.4,1.2,10.4,3.2C212,125.3,212.2,125.5,212.3,125.6z"/>
		<path class="st4" d="M201.4,159.2h10.9v-3.6c-0.2,0.1-0.3,0.3-0.5,0.4C208.8,158.1,205.3,159.2,201.4,159.2z"/>
		<path class="st4" d="M216.8,130.2c-0.7-1-1.4-1.9-2.3-2.8c-0.7-0.7-1.5-1.3-2.2-1.9c-0.2-0.1-0.3-0.3-0.5-0.4
			c-3-2-6.5-3.2-10.4-3.2c0,0,0,0,0,0h0H178c0.4,0.8,0.7,1.5,1.1,2.3c0.4,0.9,0.7,1.8,1,2.7h21.3c7.5,0,13.6,6.1,13.6,13.6
			c0,7.5-6.1,13.6-13.6,13.6h-21.3c-0.3,0.9-0.6,1.8-1,2.7c-0.3,0.8-0.7,1.5-1.1,2.3h23.4h0c0,0,0,0,0,0c3.9,0,7.4-1.2,10.4-3.2
			c0.2-0.1,0.3-0.3,0.5-0.4c0.8-0.6,1.6-1.2,2.2-1.9c0.8-0.8,1.6-1.8,2.3-2.8c2-3,3.2-6.5,3.2-10.4v0
			C220,136.8,218.8,133.2,216.8,130.2z"/>
		<path class="st4" d="M73.8,140.4L73.8,140.4c0,4.8,3.7,8.7,8.9,8.7c3.2,0,5.9-1.5,7.4-3.8c1-1.4,1.5-3.1,1.5-4.9v0
			c0-1.8-0.5-3.4-1.4-4.8c-1.5-2.3-4.2-3.8-7.4-3.8C77.6,131.7,73.8,135.6,73.8,140.4z M77.7,140.3c0-2.9,2.1-5.2,5-5.2
			s5.1,2.4,5.1,5.3v0c0,2.9-2.1,5.2-5,5.2C79.8,145.6,77.7,143.2,77.7,140.3L77.7,140.3z"/>
		<path class="st4" d="M206.6,140.4L206.6,140.4c0-4.8-3.6-8.4-8.9-8.4h-6.5v16.8h6.5C203,148.7,206.6,145.1,206.6,140.4z
			 M194.9,135.3h2.8c3,0,5,2.1,5,5v0c0,3-2,5-5,5h-2.8V135.3z"/>
		<path class="st4" d="M172,123.5c-0.6-1-1.2-2-1.8-3c-1.6-2.4-3.5-4.6-5.6-6.5c-0.5-0.5-1.1-0.9-1.6-1.4c-1.1-0.9-2.3-1.7-3.5-2.5
			c-0.6-0.4-1.2-0.7-1.9-1.1c-3-1.7-6.4-2.9-9.9-3.6c-1.2-0.2-2.4-0.4-3.6-0.5c-0.6-0.1-1.2-0.1-1.8-0.1c-0.6,0-1.2,0-1.8,0
			c-19.8,0-35.9,16.1-35.9,35.9c0,5,1,9.7,2.8,14c0.2,0.5,0.5,1.1,0.7,1.6c0.8,1.6,1.6,3.1,2.6,4.5c0.3,0.5,0.7,0.9,1,1.4
			s0.7,0.9,1.1,1.4c0.8,1,1.7,1.9,2.6,2.8c1.8,1.8,3.9,3.4,6.1,4.8c1.1,0.7,2.2,1.3,3.4,1.9c4.7,2.3,10,3.5,15.5,3.5h0
			c0.6,0,1.2,0,1.8,0s1.2-0.1,1.8-0.1c1.2-0.1,2.4-0.3,3.6-0.5c3.5-0.7,6.8-1.9,9.9-3.6c0.6-0.3,1.3-0.7,1.9-1.1
			c1.2-0.8,2.4-1.6,3.5-2.5c0.6-0.5,1.1-0.9,1.6-1.4c2.1-1.9,4-4.1,5.6-6.5c0.6-1,1.2-1.9,1.8-3c0.6-1,1.1-2.1,1.5-3.1
			c1.8-4.3,2.8-9,2.8-14c0-5-1-9.7-2.8-14C173.1,125.6,172.6,124.6,172,123.5z M140.5,171.7v-10.1v-4.8h0v-32.4h0v-4.8v-10.1
			c17.1,0,31.1,13.9,31.1,31.1C171.6,157.8,157.6,171.7,140.5,171.7z"/>
		<path class="st4" d="M154.9,98c5.2-2.7,7.3-9.1,7.3-9.1s-6.4-2-11.6,0.7c-5.2,2.7-7.3,9.1-7.3,9.1s0.3,0.1,0.8,0.2
			c0.8,0.2,2.1,0.4,3.7,0.5C149.9,99.5,152.5,99.2,154.9,98z"/>
		<path class="st4" d="M135.8,88c0,5.9,4.7,10.7,4.7,10.7s4.7-4.8,4.7-10.7c0-5.9-4.7-10.7-4.7-10.7S135.8,82.1,135.8,88z"/>
		<path class="st4" d="M140.5,122v4.8c7.6,0,13.8,6.2,13.8,13.8c0,7.6-6.2,13.8-13.8,13.8v4.8c10.3,0,18.6-8.3,18.6-18.6
			C159.1,130.4,150.8,122,140.5,122z"/>
		<path class="st4" d="M73.6,104.2L73.6,104.2c2,1.3,4.6,0.7,6-1.5c1.4-2.2,0.7-4.8-1.3-6l0,0c-2-1.3-4.6-0.7-6,1.5
			S71.6,103,73.6,104.2z M73.8,99.1c0.8-1.3,2.3-1.5,3.6-0.8l0,0c1.2,0.8,1.7,2.2,0.9,3.5c-0.8,1.3-2.3,1.5-3.6,0.8l0,0
			C73.4,101.8,73,100.3,73.8,99.1z"/>
		<path class="st4" d="M94.7,85.3L93,83.2l1.1-0.9l3.1,1l1.7-1.3l-3.4-1.1c0.6-1,0.6-2.1-0.2-3.1l0,0c-1.1-1.3-2.6-1.4-4.2-0.2
			l-3,2.4l5.2,6.5L94.7,85.3z M90.5,80.1l1.4-1.1c0.7-0.6,1.4-0.6,1.9,0l0,0c0.4,0.5,0.3,1.2-0.4,1.8L92,82L90.5,80.1z"/>
		<polygon class="st4" points="119.1,72 118.6,70.4 114.7,71.8 112.4,65.5 110.7,66.2 113.5,74 		"/>
		<path class="st4" d="M137.6,67l3.5-0.1l0.8,1.9l1.9,0l-3.7-8.3l-1.7,0l-3.4,8.5l1.9,0L137.6,67z M139.3,62.6l1.2,2.7l-2.2,0
			L139.3,62.6z"/>
		<polygon class="st4" points="163.4,67 165.6,73.3 167,73.8 169.7,65.9 168,65.3 166.4,70.2 164.3,64.1 162.7,63.5 160,71.4 
			161.7,72 		"/>
		<path class="st4" d="M190.8,83.5L190.8,83.5c1.5-1.9,1.2-4.4-0.9-6l-2.5-2l-5.2,6.5l2.5,2C186.8,85.7,189.3,85.4,190.8,83.5z
			 M187.8,77.9l1.1,0.9c1.2,0.9,1.3,2.4,0.4,3.5l0,0c-0.9,1.2-2.3,1.3-3.5,0.4l-1.1-0.9L187.8,77.9z"/>
		<path class="st4" d="M207.4,104.3L207.4,104.3c2-1.3,2.7-3.8,1.3-6c-1.4-2.2-4-2.7-6-1.5l0,0c-2,1.3-2.7,3.8-1.3,6
			C202.8,105,205.4,105.6,207.4,104.3z M203.7,98.4L203.7,98.4c1.2-0.8,2.8-0.5,3.5,0.7c0.8,1.3,0.3,2.8-0.9,3.5l0,0
			c-1.2,0.8-2.7,0.5-3.5-0.8C202.1,100.7,202.5,99.2,203.7,98.4z"/>
		<path class="st4" d="M77.8,175.2l-7.1,4.4l1.7,2.8c1.4,2.2,3.9,2.8,5.9,1.6l0,0c2-1.2,2.6-3.7,1.2-5.9L77.8,175.2z M77.3,182.3
			L77.3,182.3c-1.3,0.8-2.7,0.5-3.5-0.8l-0.7-1.2l4.3-2.7l0.7,1.2C78.9,180.1,78.6,181.5,77.3,182.3z"/>
		<polygon class="st4" points="83.9,197 88.5,201.3 89.6,200.1 86.3,197 87.5,195.8 90.4,198.4 91.5,197.2 88.6,194.6 89.8,193.3 
			93,196.4 94.1,195.2 89.6,190.9 		"/>
		<path class="st4" d="M106.4,203.4c-1.5-0.8-3-0.5-3.8,0.8l0,0c-0.8,1.5-0.1,2.4,1.2,3.6c1.1,1,1.2,1.3,1,1.7l0,0
			c-0.2,0.4-0.8,0.5-1.4,0.1c-0.8-0.5-1.3-1.2-1.7-2.1l-1.6,0.6c0.5,1.3,1.4,2.3,2.5,2.9c1.6,0.9,3.1,0.6,3.9-0.8l0,0
			c0.7-1.3,0.1-2.3-1.1-3.5c-1.1-1-1.3-1.3-1.1-1.8l0,0c0.2-0.4,0.7-0.5,1.3-0.1c0.6,0.3,1.1,1,1.5,1.8l1.5-0.8
			C108.2,204.8,107.5,203.9,106.4,203.4z"/>
		
			<rect x="116.2" y="212.7" transform="matrix(0.2653 -0.9642 0.9642 0.2653 -117.4982 272.993)" class="st4" width="8.3" height="1.8"/>
		<path class="st4" d="M138.4,217.2l1.8,0.1l0,1.2c-0.5,0.3-1.1,0.5-1.7,0.4c-1.5,0-2.5-1.2-2.4-2.7l0,0c0-1.4,1.1-2.6,2.5-2.5
			c1,0,1.5,0.4,2.2,0.9l1.2-1.4c-0.8-0.8-1.7-1.2-3.2-1.2c-2.5-0.1-4.4,1.8-4.5,4.2l0,0c-0.1,2.5,1.7,4.3,4.2,4.4
			c1.5,0,2.7-0.5,3.6-1.2l0.1-3.6l-3.6-0.1L138.4,217.2z"/>
		<polygon class="st4" points="159.7,209.5 161,214.5 155.9,210.5 154.3,210.9 156.3,219 158.1,218.5 156.8,213.4 162,217.6 
			163.5,217.2 161.5,209.1 		"/>
		<polygon class="st4" points="177.8,209.4 177,207.9 180.4,205.9 179.6,204.5 176.2,206.4 175.3,205 179.2,202.8 178.4,201.4 
			172.9,204.4 177,211.7 182.5,208.6 181.7,207.2 		"/>
		<path class="st4" d="M195,191.2L195,191.2c-1.2-1.2-2.8-1.2-4.2,0.2l-2.7,2.7l5.8,6l1.3-1.3l-1.9-1.9l1-1l3.1,0.7l1.5-1.5
			l-3.5-0.7C196,193.3,196,192.2,195,191.2z M193.6,194.4l-1.3,1.3l-1.7-1.7l1.3-1.3c0.6-0.6,1.3-0.7,1.9-0.2l0,0
			C194.3,193.1,194.2,193.8,193.6,194.4z"/>
		<path class="st4" d="M208.6,177.6L208.6,177.6c-1.3-0.8-2.3-0.3-3.5,1c-1.1,1-1.4,1.3-1.9,1l0,0c-0.3-0.2-0.4-0.7-0.1-1.3
			c0.4-0.6,1-1.1,1.8-1.4l-0.7-1.5c-1,0.4-1.9,1.1-2.5,2.1c-0.9,1.5-0.6,3,0.7,3.8l0,0c1.4,0.9,2.4,0.2,3.6-1.1c1-1,1.4-1.1,1.8-0.9
			l0,0c0.4,0.3,0.4,0.8,0.1,1.4c-0.5,0.8-1.2,1.3-2.1,1.6l0.6,1.6c1.3-0.4,2.3-1.3,3-2.3C210.1,180,210,178.4,208.6,177.6z"/>
		<polygon class="st4" points="123.8,192.5 126.1,192.5 126.1,191.5 123.8,191.5 123.8,190.5 126.4,190.5 126.4,189.6 122.7,189.6 
			122.7,194.5 126.5,194.5 126.5,193.5 123.8,193.5 		"/>
		<path class="st4" d="M130,191.6c-0.8-0.2-1.1-0.3-1.1-0.6v0c0-0.2,0.2-0.4,0.6-0.4s0.8,0.2,1.3,0.5l0.6-0.8
			c-0.5-0.4-1.1-0.6-1.8-0.6c-1,0-1.7,0.6-1.7,1.5v0c0,1,0.6,1.2,1.6,1.5c0.8,0.2,1,0.4,1,0.6v0c0,0.3-0.3,0.5-0.7,0.5
			c-0.6,0-1-0.2-1.5-0.6l-0.6,0.8c0.6,0.5,1.3,0.8,2.1,0.8c1.1,0,1.8-0.5,1.8-1.5v0C131.6,192.2,131,191.8,130,191.6z"/>
		<polygon class="st4" points="135.3,194.5 135.3,190.6 136.8,190.6 136.8,189.6 132.8,189.6 132.8,190.6 134.2,190.6 134.2,194.5 
					"/>
		<path class="st4" d="M142.6,192.9c0.9-0.7,1.3-1.1,1.3-1.9c0-0.9-0.6-1.5-1.7-1.5c-0.9,0-1.3,0.4-1.8,1l0.8,0.6
			c0.4-0.4,0.6-0.7,1-0.7c0.4,0,0.7,0.2,0.7,0.6c0,0.4-0.2,0.7-0.8,1.2l-1.6,1.3v0.9h3.6v-0.9h-2.1L142.6,192.9z"/>
		<path class="st4" d="M147.5,189.5c-1.3,0-2.2,1.1-2.2,2.5s0.9,2.5,2.2,2.5c1.3,0,2.2-1.1,2.2-2.5S148.8,189.5,147.5,189.5z
			 M147.5,193.6c-0.7,0-1.1-0.7-1.1-1.6s0.4-1.6,1.1-1.6s1.1,0.7,1.1,1.6S148.1,193.6,147.5,193.6z"/>
		<polygon class="st4" points="150.7,190 150.9,190.9 151.8,190.6 151.8,194.5 152.8,194.5 152.8,189.6 152.1,189.6 		"/>
		<path class="st4" d="M156.2,193.6c-0.4,0-0.8-0.2-1.2-0.5l-0.7,0.8c0.5,0.5,1.1,0.7,1.8,0.7c1.1,0,1.9-0.7,1.9-1.7
			c0-1.1-0.7-1.6-1.7-1.6c-0.3,0-0.4,0-0.6,0.1l0.1-0.8h2.1v-0.9h-3l-0.1,2.4l0.6,0.4c0.2-0.1,0.5-0.2,0.8-0.2
			c0.5,0,0.9,0.2,0.9,0.7C157,193.3,156.7,193.6,156.2,193.6z"/>
	</g>
</g>
<g id="Final_x5F_reverse">
	<rect x="-287.1" y="0.1" class="st4" width="281" height="281"/>
	<g>
		<path class="st3" d="M51.9,167.7C51.9,167.7,51.9,167.7,51.9,167.7L51.9,167.7L51.9,167.7l34.1,0c-0.5-1.1-1.1-2.2-1.6-3.3
			c-0.5-1.3-1-2.6-1.5-3.9h-31c-10.9,0-19.8-8.9-19.8-19.8c0-10.9,8.9-19.8,19.8-19.8h31c0.9-2.5,1.9-4.9,3-7.3H51.9h0h0
			c0,0,0,0,0,0H36.1v5.2c-0.5,0.3-0.9,0.6-1.3,1c-2,1.7-3.8,3.6-5.2,5.7c-2.9,4.3-4.6,9.5-4.6,15.1v0c0,5.6,1.7,10.8,4.6,15.1
			c1.5,2.2,3.2,4.1,5.2,5.7c0.4,0.4,0.9,0.7,1.3,1v5.2H51.9z"/>
		<path class="st3" d="M251.5,125.6c-1-1.4-2.1-2.8-3.3-4c-1-1-2.1-1.9-3.3-2.7v-5.2h-15.9c0,0,0,0,0,0h0h-34
			c0.5,1.1,1.1,2.2,1.6,3.3c0.5,1.3,1,2.6,1.5,3.9h31c10.9,0,19.8,8.9,19.8,19.8c0,10.9-8.9,19.8-19.8,19.8h-31
			c-0.5,1.3-0.9,2.6-1.5,3.9c-0.5,1.1-1,2.2-1.6,3.3h34h0c0,0,0,0,0,0h15.9v-5.2c1.2-0.8,2.3-1.7,3.3-2.7c1.2-1.2,2.3-2.6,3.3-4
			c2.9-4.3,4.6-9.5,4.6-15.1v0C256.1,135.1,254.4,129.9,251.5,125.6z"/>
		<path class="st3" d="M56.6,127.7c-7.5,0-13,5.7-13,12.6v0.1c0,6.9,5.4,12.5,12.9,12.5c4.7,0,8.5-2.2,10.8-5.5
			c1.4-2,2.2-4.5,2.2-7.1v-0.1c0-2.6-0.8-5-2.1-7C65.2,129.9,61.3,127.7,56.6,127.7z M63.9,140.4c0,4.2-3,7.6-7.3,7.6
			c-4.3,0-7.4-3.5-7.4-7.7v-0.1c0-4.2,3-7.6,7.3-7.6S63.9,136.1,63.9,140.4L63.9,140.4z"/>
		<path class="st3" d="M236.6,140.3L236.6,140.3c0-6.9-5.3-12.2-12.9-12.2h-9.5v24.4h9.5C231.3,152.5,236.6,147.1,236.6,140.3z
			 M231,140.4c0,4.3-3,7.3-7.3,7.3h-4.1V133h4.1C228.1,133,231,136,231,140.4L231,140.4z"/>
		<path class="st3" d="M192.6,140.7c0-7.2-1.5-14.1-4.1-20.3c-0.7-1.6-1.4-3.1-2.2-4.6c-0.8-1.5-1.7-2.9-2.6-4.3
			c-2.3-3.5-5.1-6.6-8.2-9.4c-0.8-0.7-1.6-1.4-2.4-2c-1.6-1.3-3.3-2.5-5.1-3.6c-0.9-0.6-1.8-1.1-2.7-1.6c-4.4-2.4-9.3-4.2-14.3-5.2
			c-1.7-0.3-3.4-0.6-5.2-0.8c-0.9-0.1-1.8-0.2-2.6-0.2c-0.9,0-1.8-0.1-2.7-0.1c-28.8,0-52.1,23.3-52.1,52.1c0,7.2,1.5,14.1,4.1,20.3
			c0.3,0.8,0.7,1.5,1,2.3c1.1,2.3,2.4,4.5,3.8,6.5c0.5,0.7,1,1.4,1.5,2s1,1.3,1.5,2c1.2,1.4,2.5,2.8,3.8,4.1c2.7,2.6,5.7,5,8.9,7
			c1.6,1,3.3,1.9,5,2.7c6.8,3.3,14.5,5.1,22.6,5.1h0c0.9,0,1.8,0,2.7-0.1c0.9,0,1.8-0.1,2.6-0.2c1.8-0.2,3.5-0.4,5.2-0.8
			c5.1-1,9.9-2.8,14.3-5.2c0.9-0.5,1.8-1,2.7-1.6c1.8-1.1,3.5-2.3,5.1-3.6c0.8-0.7,1.6-1.3,2.4-2c3.1-2.8,5.8-6,8.2-9.4
			c0.9-1.4,1.8-2.8,2.6-4.3c0.8-1.5,1.5-3,2.2-4.6C191.2,154.8,192.6,147.9,192.6,140.7z M140.5,185.9v-14.7v-7h0v-47.1h0v-7V95.5
			c24.9,0,45.2,20.3,45.2,45.2C185.7,165.6,165.4,185.9,140.5,185.9z"/>
		<path class="st3" d="M145.7,80.1c1.2,0.3,3.1,0.6,5.4,0.7c3.1,0.1,6.9-0.3,10.3-2C169,74.8,172,65.5,172,65.5s-9.3-2.9-16.9,1
			c-7.6,3.9-10.6,13.2-10.6,13.2S144.9,79.9,145.7,80.1z"/>
		<path class="st3" d="M133.7,64.2c0,8.6,6.9,15.5,6.9,15.5s6.9-6.9,6.9-15.5c0-8.6-6.9-15.5-6.9-15.5S133.7,55.6,133.7,64.2z"/>
		<path class="st3" d="M140.5,113.7v7c11.1,0,20.1,9,20.1,20.1c0,11.1-9,20.1-20.1,20.1v7c14.9,0,27-12.1,27-27
			C167.5,125.8,155.4,113.7,140.5,113.7z"/>
		<path class="st3" d="M43.3,87.7L43.3,87.7c3,1.8,6.7,1,8.7-2.1c2-3.2,1-7-1.9-8.8l0,0c-2.9-1.8-6.7-1-8.7,2.1S40.4,85.9,43.3,87.7
			z M43.5,80.3c1.1-1.8,3.4-2.2,5.2-1.1l0,0c1.8,1.1,2.4,3.3,1.3,5.1c-1.1,1.8-3.4,2.2-5.2,1.1l0,0C43,84.3,42.3,82.1,43.5,80.3z"/>
		<path class="st3" d="M73.9,60.3l-2.4-3l1.6-1.3l4.4,1.4l2.4-1.9l-5-1.5c0.8-1.4,0.9-3-0.3-4.6l0,0c-1.6-1.9-3.8-2.1-6.1-0.3
			l-4.3,3.4l7.5,9.5L73.9,60.3z M67.8,52.7l2.1-1.6c1-0.8,2-0.8,2.7,0l0,0c0.6,0.8,0.5,1.8-0.5,2.6L70,55.4L67.8,52.7z"/>
		<polygon class="st3" points="109.4,40.9 108.6,38.6 102.9,40.6 99.6,31.5 97.1,32.4 101.3,43.8 		"/>
		<path class="st3" d="M136.3,33.6l5.1-0.1l1.2,2.7l2.8,0l-5.4-12.1l-2.5,0l-5,12.3l2.7,0L136.3,33.6z M138.7,27.3l1.7,3.9l-3.2,0.1
			L138.7,27.3z"/>
		<polygon class="st3" points="173.9,33.6 176.9,42.8 179.1,43.5 183,32 180.5,31.2 178.1,38.2 175.1,29.4 172.8,28.6 168.9,40 
			171.4,40.9 		"/>
		<path class="st3" d="M213.6,57.7L213.6,57.7c2.1-2.7,1.7-6.4-1.3-8.7l-3.7-2.9l-7.5,9.5l3.7,2.9C207.8,60.8,211.5,60.4,213.6,57.7
			z M209.2,49.6l1.6,1.3c1.7,1.4,1.9,3.4,0.6,5.1l0,0c-1.3,1.7-3.4,1.9-5.1,0.6l-1.6-1.3L209.2,49.6z"/>
		<path class="st3" d="M237.8,87.9L237.8,87.9c3-1.8,3.9-5.6,1.9-8.8c-2-3.2-5.8-4-8.7-2.2l0,0c-2.9,1.8-3.9,5.6-1.9,8.7
			C231,88.9,234.8,89.7,237.8,87.9z M232.4,79.3L232.4,79.3c1.8-1.1,4-0.7,5.1,1.1c1.1,1.8,0.5,4-1.3,5.1l0,0
			c-1.8,1.1-4,0.7-5.1-1.1C230,82.6,230.7,80.4,232.4,79.3z"/>
		<path class="st3" d="M49.3,191l-10.3,6.4l2.5,4c2,3.2,5.6,4.1,8.5,2.3l0,0c2.9-1.8,3.7-5.4,1.7-8.6L49.3,191z M48.6,201.3
			L48.6,201.3c-1.8,1.2-3.9,0.7-5-1.2l-1.1-1.7l6.2-3.9l1.1,1.7C51,198.1,50.4,200.1,48.6,201.3z"/>
		<polygon class="st3" points="58.2,222.6 64.9,228.9 66.5,227.2 61.7,222.7 63.5,220.8 67.6,224.7 69.3,223 65.1,219.1 66.8,217.3 
			71.5,221.7 73.1,220 66.4,213.8 		"/>
		<path class="st3" d="M90.9,231.9c-2.2-1.2-4.4-0.7-5.5,1.2l0,0c-1.1,2.1-0.1,3.5,1.8,5.2c1.5,1.4,1.7,1.9,1.4,2.5l0,0
			c-0.3,0.6-1.1,0.7-2.1,0.2c-1.2-0.7-1.9-1.7-2.5-3l-2.3,0.9c0.7,1.8,2,3.3,3.6,4.2c2.3,1.2,4.5,0.9,5.7-1.2l0,0
			c1-1.9,0.2-3.3-1.6-5c-1.6-1.5-1.9-1.9-1.5-2.6l0,0c0.3-0.5,1-0.7,1.9-0.2c0.9,0.5,1.6,1.4,2.2,2.5l2.2-1.1
			C93.5,233.9,92.5,232.7,90.9,231.9z"/>
		
			<rect x="105.2" y="245.4" transform="matrix(0.2653 -0.9642 0.9642 0.2653 -156.1914 288.5575)" class="st3" width="12.1" height="2.7"/>
		<path class="st3" d="M137.5,252l2.7,0.1l-0.1,1.7c-0.7,0.5-1.6,0.7-2.5,0.7c-2.1-0.1-3.6-1.7-3.6-4l0,0c0.1-2.1,1.7-3.7,3.6-3.7
			c1.4,0,2.2,0.5,3.1,1.3l1.7-2c-1.2-1.1-2.5-1.7-4.7-1.8c-3.7-0.1-6.4,2.6-6.5,6.1l0,0c-0.1,3.6,2.4,6.3,6.2,6.4
			c2.2,0.1,4-0.7,5.2-1.8l0.2-5.3l-5.3-0.2L137.5,252z"/>
		<polygon class="st3" points="168.5,240.9 170.3,248.1 162.9,242.2 160.6,242.8 163.5,254.6 166.1,254 164.2,246.5 171.7,252.5 
			173.9,252 171,240.2 		"/>
		<polygon class="st3" points="194.7,240.6 193.5,238.4 198.5,235.6 197.3,233.6 192.3,236.4 191.1,234.2 196.8,231 195.6,229 
			187.7,233.5 193.6,244 201.6,239.5 200.5,237.4 		"/>
		<path class="st3" d="M219.8,214.2L219.8,214.2c-1.8-1.8-4-1.7-6.1,0.3l-4,3.9l8.5,8.7l1.9-1.9l-2.7-2.8l1.5-1.5l4.6,1l2.2-2.2
			l-5.1-1C221.2,217.2,221.1,215.6,219.8,214.2z M217.7,218.8l-1.9,1.9l-2.4-2.5l1.9-1.8c0.9-0.9,1.9-1,2.7-0.2l0,0
			C218.7,216.9,218.6,217.9,217.7,218.8z"/>
		<path class="st3" d="M239.4,194.4L239.4,194.4c-1.8-1.1-3.3-0.4-5.1,1.4c-1.5,1.5-2,1.8-2.7,1.4l0,0c-0.5-0.3-0.6-1-0.1-1.9
			c0.5-0.9,1.5-1.5,2.6-2.1l-1-2.2c-1.5,0.5-2.7,1.6-3.6,3.1c-1.3,2.1-0.9,4.4,1,5.5l0,0c2.1,1.2,3.5,0.2,5.2-1.5
			c1.5-1.5,2-1.6,2.6-1.3l0,0c0.6,0.4,0.6,1.2,0.1,2.1c-0.7,1.2-1.8,1.9-3.1,2.3l0.8,2.3c1.9-0.6,3.4-1.8,4.3-3.4
			C241.7,197.9,241.5,195.7,239.4,194.4z"/>
		<polygon class="st3" points="116.2,216.1 119.6,216.1 119.6,214.7 116.2,214.7 116.2,213.3 120,213.3 120,211.9 114.7,211.9 
			114.7,219 120.1,219 120.1,217.6 116.2,217.6 		"/>
		<path class="st3" d="M125.3,214.7c-1.2-0.3-1.5-0.5-1.5-0.9v0c0-0.3,0.3-0.6,0.9-0.6c0.6,0,1.2,0.3,1.9,0.7l0.8-1.2
			c-0.7-0.6-1.6-0.9-2.6-0.9c-1.5,0-2.5,0.9-2.5,2.1v0c0,1.4,0.9,1.8,2.4,2.2c1.2,0.3,1.4,0.5,1.4,0.9v0c0,0.4-0.4,0.7-1,0.7
			c-0.8,0-1.5-0.3-2.1-0.9l-0.9,1.1c0.9,0.8,1.9,1.1,3,1.1c1.5,0,2.6-0.8,2.6-2.2v0C127.6,215.6,126.7,215.1,125.3,214.7z"/>
		<polygon class="st3" points="133,219 133,213.3 135.1,213.3 135.1,211.9 129.2,211.9 129.2,213.3 131.4,213.3 131.4,219 		"/>
		<path class="st3" d="M143.6,216.7c1.3-1,1.9-1.6,1.9-2.8c0-1.3-0.9-2.2-2.5-2.2c-1.3,0-2,0.5-2.7,1.5l1.1,0.9c0.5-0.7,0.9-1,1.5-1
			c0.6,0,1,0.3,1,0.9c0,0.6-0.3,1-1.2,1.7l-2.4,1.9v1.2h5.3v-1.4h-3.1L143.6,216.7z"/>
		<path class="st3" d="M150.6,211.7c-1.9,0-3.2,1.6-3.2,3.7s1.3,3.7,3.2,3.7c1.9,0,3.2-1.6,3.2-3.7S152.6,211.7,150.6,211.7z
			 M150.6,217.7c-0.9,0-1.6-1-1.6-2.3c0-1.3,0.6-2.3,1.5-2.3c0.9,0,1.6,1,1.6,2.3S151.6,217.7,150.6,217.7z"/>
		<polygon class="st3" points="155.3,212.4 155.6,213.7 156.9,213.4 156.9,219 158.4,219 158.4,211.8 157.3,211.8 		"/>
		<path class="st3" d="M163.3,217.7c-0.6,0-1.2-0.3-1.7-0.8l-0.9,1.1c0.7,0.7,1.5,1.1,2.7,1.1c1.6,0,2.7-1,2.7-2.5
			c0-1.6-1.1-2.3-2.5-2.3c-0.4,0-0.7,0-0.9,0.1l0.1-1.2h3v-1.4h-4.4l-0.2,3.5l0.9,0.6c0.3-0.1,0.7-0.3,1.2-0.3c0.8,0,1.3,0.4,1.3,1
			C164.5,217.3,164,217.7,163.3,217.7z"/>
	</g>
	<g>
		<path class="st7" d="M811.3,111.3c-2.8-5.2-5.9-10.2-9.2-15.1c-8.2-12.2-17.9-23.3-28.7-33.1c-2.7-2.5-5.5-4.8-8.3-7.1
			c-5.7-4.6-11.7-8.8-17.9-12.7c-3.1-1.9-6.3-3.8-9.5-5.6c-15.5-8.4-32.5-14.7-50.3-18.4c-6-1.2-12-2.1-18.2-2.8
			c-3.1-0.3-6.2-0.5-9.3-0.7c-3.1-0.2-6.3-0.2-9.4-0.2c-101,0-182.9,81.9-182.9,182.9c0,25.3,5.1,49.3,14.4,71.2
			c1.2,2.7,2.4,5.4,3.7,8.1c3.9,8,8.3,15.7,13.2,23c1.6,2.4,3.3,4.8,5.1,7.2c1.8,2.3,3.6,4.7,5.4,6.9c4.2,5.1,8.7,9.9,13.4,14.5
			c9.4,9.2,19.8,17.4,31,24.4c5.6,3.5,11.4,6.7,17.4,9.6c24,11.6,50.9,18,79.3,18h0c3.2,0,6.3-0.1,9.4-0.2s6.2-0.4,9.3-0.7
			c6.1-0.6,12.2-1.6,18.2-2.8c17.9-3.7,34.8-9.9,50.3-18.4c3.2-1.8,6.4-3.6,9.5-5.6c6.2-3.9,12.2-8.1,17.9-12.7
			c2.9-2.3,5.6-4.7,8.3-7.1c10.8-9.8,20.5-21,28.7-33.1c3.3-4.9,6.3-9.9,9.2-15.1c2.8-5.2,5.4-10.5,7.7-16
			c9.3-21.9,14.4-45.9,14.4-71.2c0-25.3-5.1-49.3-14.4-71.2C816.7,121.8,814.1,116.5,811.3,111.3z M650.5,357v-51.4v-24.4h0V115.8h0
			V91.4V40C737.9,40,809,111.1,809,198.5C809,285.9,737.9,357,650.5,357z"/>
		<path class="st7" d="M723.7-18.9c26.7-13.8,37.2-46.4,37.2-46.4s-32.7-10.2-59.4,3.6c-26.7,13.8-37.2,46.4-37.2,46.4
			s1.6,0.5,4.3,1.1c4.1,0.9,10.9,2.2,18.9,2.5C698.5-11.3,711.7-12.7,723.7-18.9z"/>
		<path class="st7" d="M626.7-70c0,30,24.1,54.4,24.1,54.4S675-39.9,675-70c0-30-24.1-54.4-24.1-54.4S626.7-100,626.7-70z"/>
		<path class="st7" d="M650.5,103.6V128c38.9,0,70.5,31.6,70.5,70.5c0,38.9-31.6,70.5-70.5,70.5v24.4c52.3,0,94.9-42.6,94.9-94.8
			C745.4,146.2,702.8,103.6,650.5,103.6z"/>
	</g>
	<g>
		<path class="st7" d="M1137.2-8c-1.4-2.6-2.9-5.1-4.5-7.5c-4.1-6-8.9-11.6-14.2-16.4c-1.3-1.2-2.7-2.4-4.1-3.5
			c-2.8-2.3-5.8-4.4-8.9-6.3c-1.5-1-3.1-1.9-4.7-2.8c-7.7-4.2-16.1-7.3-25-9.1c-3-0.6-6-1.1-9-1.4c-1.5-0.2-3.1-0.3-4.6-0.4
			c-1.5-0.1-3.1-0.1-4.7-0.1c-50.1,0-90.8,40.6-90.8,90.8c0,12.5,2.5,24.5,7.1,35.3c0.6,1.4,1.2,2.7,1.8,4c1.9,4,4.1,7.8,6.6,11.4
			c0.8,1.2,1.7,2.4,2.5,3.6c0.9,1.2,1.8,2.3,2.7,3.4c2.1,2.5,4.3,4.9,6.6,7.2c4.7,4.6,9.8,8.6,15.4,12.1c2.8,1.7,5.7,3.3,8.6,4.8
			c11.9,5.7,25.3,9,39.4,9h0c1.6,0,3.1,0,4.7-0.1c1.5-0.1,3.1-0.2,4.6-0.4c3.1-0.3,6.1-0.8,9-1.4c8.9-1.8,17.3-4.9,25-9.1
			c1.6-0.9,3.2-1.8,4.7-2.8c3.1-1.9,6.1-4,8.9-6.3c1.4-1.1,2.8-2.3,4.1-3.5c5.4-4.9,10.2-10.4,14.2-16.4c1.6-2.4,3.1-4.9,4.5-7.5
			c1.4-2.6,2.7-5.2,3.8-7.9c4.6-10.9,7.1-22.8,7.1-35.3c0-12.5-2.5-24.5-7.1-35.3C1139.9-2.8,1138.6-5.5,1137.2-8z M1057.4,113.9
			V88.4V76.3h0V-5.8h0v-12.1v-25.5c43.4,0,78.7,35.3,78.7,78.7C1136.1,78.6,1100.8,113.9,1057.4,113.9z"/>
		<path class="st7" d="M1093.7-72.7c13.2-6.9,18.5-23,18.5-23s-16.2-5.1-29.5,1.8c-13.2,6.9-18.5,23-18.5,23s0.8,0.2,2.1,0.5
			c2,0.5,5.4,1.1,9.4,1.2C1081.2-68.9,1087.8-69.6,1093.7-72.7z"/>
		<path class="st7" d="M1045.6-98c0,14.9,12,27,12,27s12-12.1,12-27c0-14.9-12-27-12-27S1045.6-112.9,1045.6-98z"/>
		<path class="st7" d="M1057.4-11.9V0.2c19.3,0,35,15.7,35,35c0,19.3-15.7,35-35,35v12.1c26,0,47.1-21.1,47.1-47.1
			C1104.5,9.3,1083.4-11.9,1057.4-11.9z"/>
	</g>
	<g>
		<path class="st7" d="M1012.6,153.4c-0.2-0.3-0.4-0.6-0.6-0.9c-0.5-0.8-1.1-1.4-1.8-2.1c-0.2-0.2-0.3-0.3-0.5-0.4
			c-0.4-0.3-0.7-0.5-1.1-0.8c-0.2-0.1-0.4-0.2-0.6-0.3c-1-0.5-2-0.9-3.1-1.1c-0.4-0.1-0.7-0.1-1.1-0.2c-0.2,0-0.4,0-0.6,0
			c-0.2,0-0.4,0-0.6,0c-6.3,0-11.3,5.1-11.3,11.3c0,1.6,0.3,3.1,0.9,4.4c0.1,0.2,0.1,0.3,0.2,0.5c0.2,0.5,0.5,1,0.8,1.4
			c0.1,0.2,0.2,0.3,0.3,0.4c0.1,0.1,0.2,0.3,0.3,0.4c0.3,0.3,0.5,0.6,0.8,0.9c0.6,0.6,1.2,1.1,1.9,1.5c0.3,0.2,0.7,0.4,1.1,0.6
			c1.5,0.7,3.2,1.1,4.9,1.1h0c0.2,0,0.4,0,0.6,0c0.2,0,0.4,0,0.6,0c0.4,0,0.8-0.1,1.1-0.2c1.1-0.2,2.2-0.6,3.1-1.1
			c0.2-0.1,0.4-0.2,0.6-0.3c0.4-0.2,0.8-0.5,1.1-0.8c0.2-0.1,0.3-0.3,0.5-0.4c0.7-0.6,1.3-1.3,1.8-2.1c0.2-0.3,0.4-0.6,0.6-0.9
			c0.2-0.3,0.3-0.7,0.5-1c0.6-1.4,0.9-2.8,0.9-4.4c0-1.6-0.3-3.1-0.9-4.4C1012.9,154.1,1012.7,153.7,1012.6,153.4z M1002.6,168.6
			v-3.2v-1.5h0v-10.3h0v-1.5V149c5.4,0,9.8,4.4,9.8,9.8C1012.4,164.2,1008,168.6,1002.6,168.6z"/>
		<path class="st7" d="M1007.1,145.3c1.7-0.9,2.3-2.9,2.3-2.9s-2-0.6-3.7,0.2c-1.7,0.9-2.3,2.9-2.3,2.9s0.1,0,0.3,0.1
			c0.3,0.1,0.7,0.1,1.2,0.2C1005.6,145.8,1006.4,145.7,1007.1,145.3z"/>
		<path class="st7" d="M1001.1,142.2c0,1.9,1.5,3.4,1.5,3.4s1.5-1.5,1.5-3.4c0-1.9-1.5-3.4-1.5-3.4S1001.1,140.3,1001.1,142.2z"/>
		<path class="st7" d="M1002.6,152.9v1.5c2.4,0,4.4,2,4.4,4.4c0,2.4-2,4.4-4.4,4.4v1.5c3.2,0,5.9-2.6,5.9-5.9
			C1008.5,155.6,1005.8,152.9,1002.6,152.9z"/>
	</g>
	<g>
		<path class="st7" d="M1046.6,153.7c-0.1-0.2-0.3-0.5-0.4-0.7c-0.4-0.6-0.8-1.1-1.3-1.5c-0.1-0.1-0.2-0.2-0.4-0.3
			c-0.3-0.2-0.5-0.4-0.8-0.6c-0.1-0.1-0.3-0.2-0.4-0.3c-0.7-0.4-1.5-0.7-2.3-0.8c-0.3-0.1-0.5-0.1-0.8-0.1c-0.1,0-0.3,0-0.4,0
			c-0.1,0-0.3,0-0.4,0c-4.6,0-8.3,3.7-8.3,8.3c0,1.1,0.2,2.2,0.7,3.2c0.1,0.1,0.1,0.2,0.2,0.4c0.2,0.4,0.4,0.7,0.6,1
			c0.1,0.1,0.2,0.2,0.2,0.3c0.1,0.1,0.2,0.2,0.2,0.3c0.2,0.2,0.4,0.5,0.6,0.7c0.4,0.4,0.9,0.8,1.4,1.1c0.3,0.2,0.5,0.3,0.8,0.4
			c1.1,0.5,2.3,0.8,3.6,0.8h0c0.1,0,0.3,0,0.4,0c0.1,0,0.3,0,0.4,0c0.3,0,0.6-0.1,0.8-0.1c0.8-0.2,1.6-0.5,2.3-0.8
			c0.1-0.1,0.3-0.2,0.4-0.3c0.3-0.2,0.6-0.4,0.8-0.6c0.1-0.1,0.3-0.2,0.4-0.3c0.5-0.4,0.9-1,1.3-1.5c0.1-0.2,0.3-0.5,0.4-0.7
			c0.1-0.2,0.2-0.5,0.4-0.7c0.4-1,0.7-2.1,0.7-3.2c0-1.1-0.2-2.2-0.7-3.2C1046.8,154.2,1046.7,153.9,1046.6,153.7z M1039.2,164.9
			v-2.3v-1.1h0v-7.5h0v-1.1v-2.3c4,0,7.2,3.2,7.2,7.2C1046.4,161.6,1043.2,164.9,1039.2,164.9z"/>
		<path class="st7" d="M1042.6,147.8c1.2-0.6,1.7-2.1,1.7-2.1s-1.5-0.5-2.7,0.2c-1.2,0.6-1.7,2.1-1.7,2.1s0.1,0,0.2,0.1
			c0.2,0,0.5,0.1,0.9,0.1C1041.4,148.1,1042,148,1042.6,147.8z"/>
		<path class="st7" d="M1038.2,145.4c0,1.4,1.1,2.5,1.1,2.5s1.1-1.1,1.1-2.5c0-1.4-1.1-2.5-1.1-2.5S1038.2,144.1,1038.2,145.4z"/>
		<path class="st7" d="M1039.2,153.3v1.1c1.8,0,3.2,1.4,3.2,3.2c0,1.8-1.4,3.2-3.2,3.2v1.1c2.4,0,4.3-1.9,4.3-4.3
			C1043.5,155.3,1041.6,153.3,1039.2,153.3z"/>
	</g>
	<g>
		<path class="st7" d="M1070.2,150.6c-0.1-0.2-0.2-0.3-0.3-0.5c-0.2-0.4-0.5-0.7-0.9-1c-0.1-0.1-0.2-0.1-0.2-0.2
			c-0.2-0.1-0.3-0.3-0.5-0.4c-0.1-0.1-0.2-0.1-0.3-0.2c-0.5-0.3-1-0.4-1.5-0.5c-0.2,0-0.4-0.1-0.5-0.1c-0.1,0-0.2,0-0.3,0
			s-0.2,0-0.3,0c-3,0-5.5,2.4-5.5,5.5c0,0.8,0.2,1.5,0.4,2.1c0,0.1,0.1,0.2,0.1,0.2c0.1,0.2,0.2,0.5,0.4,0.7c0,0.1,0.1,0.1,0.2,0.2
			c0.1,0.1,0.1,0.1,0.2,0.2c0.1,0.2,0.3,0.3,0.4,0.4c0.3,0.3,0.6,0.5,0.9,0.7c0.2,0.1,0.3,0.2,0.5,0.3c0.7,0.3,1.5,0.5,2.4,0.5h0
			c0.1,0,0.2,0,0.3,0s0.2,0,0.3,0c0.2,0,0.4,0,0.5-0.1c0.5-0.1,1-0.3,1.5-0.5c0.1-0.1,0.2-0.1,0.3-0.2c0.2-0.1,0.4-0.2,0.5-0.4
			c0.1-0.1,0.2-0.1,0.2-0.2c0.3-0.3,0.6-0.6,0.9-1c0.1-0.1,0.2-0.3,0.3-0.5c0.1-0.2,0.2-0.3,0.2-0.5c0.3-0.7,0.4-1.4,0.4-2.1
			c0-0.8-0.2-1.5-0.4-2.1C1070.4,151,1070.3,150.8,1070.2,150.6z M1065.4,158v-1.5v-0.7h0v-4.9h0v-0.7v-1.5c2.6,0,4.7,2.1,4.7,4.7
			C1070.1,155.9,1068,158,1065.4,158z"/>
		<path class="st7" d="M1067.6,146.8c0.8-0.4,1.1-1.4,1.1-1.4s-1-0.3-1.8,0.1c-0.8,0.4-1.1,1.4-1.1,1.4s0,0,0.1,0
			c0.1,0,0.3,0.1,0.6,0.1C1066.8,147,1067.2,146.9,1067.6,146.8z"/>
		<path class="st7" d="M1064.7,145.2c0,0.9,0.7,1.6,0.7,1.6s0.7-0.7,0.7-1.6c0-0.9-0.7-1.6-0.7-1.6S1064.7,144.3,1064.7,145.2z"/>
		<path class="st7" d="M1065.4,150.4v0.7c1.2,0,2.1,0.9,2.1,2.1s-0.9,2.1-2.1,2.1v0.7c1.6,0,2.8-1.3,2.8-2.8
			C1068.2,151.7,1067,150.4,1065.4,150.4z"/>
	</g>
	<g>
		<path class="st7" d="M968.3,160.9c-0.3-0.5-0.5-0.9-0.8-1.4c-0.8-1.1-1.7-2.2-2.7-3.1c-0.3-0.2-0.5-0.4-0.8-0.7
			c-0.5-0.4-1.1-0.8-1.7-1.2c-0.3-0.2-0.6-0.4-0.9-0.5c-1.4-0.8-3-1.4-4.7-1.7c-0.6-0.1-1.1-0.2-1.7-0.3c-0.3,0-0.6-0.1-0.9-0.1
			c-0.3,0-0.6,0-0.9,0c-9.4,0-16.9,7.6-16.9,16.9c0,2.3,0.5,4.6,1.3,6.6c0.1,0.3,0.2,0.5,0.3,0.8c0.4,0.7,0.8,1.5,1.2,2.1
			c0.2,0.2,0.3,0.4,0.5,0.7c0.2,0.2,0.3,0.4,0.5,0.6c0.4,0.5,0.8,0.9,1.2,1.3c0.9,0.9,1.8,1.6,2.9,2.3c0.5,0.3,1.1,0.6,1.6,0.9
			c2.2,1.1,4.7,1.7,7.3,1.7h0c0.3,0,0.6,0,0.9,0c0.3,0,0.6,0,0.9-0.1c0.6-0.1,1.1-0.1,1.7-0.3c1.7-0.3,3.2-0.9,4.7-1.7
			c0.3-0.2,0.6-0.3,0.9-0.5c0.6-0.4,1.1-0.8,1.7-1.2c0.3-0.2,0.5-0.4,0.8-0.7c1-0.9,1.9-1.9,2.7-3.1c0.3-0.5,0.6-0.9,0.8-1.4
			c0.3-0.5,0.5-1,0.7-1.5c0.9-2,1.3-4.3,1.3-6.6c0-2.3-0.5-4.6-1.3-6.6C968.8,161.9,968.6,161.4,968.3,160.9z M953.4,183.6v-4.8
			v-2.3h0v-15.3h0V159v-4.8c8.1,0,14.7,6.6,14.7,14.7C968.1,177.1,961.5,183.6,953.4,183.6z"/>
		<path class="st7" d="M960.2,148.8c2.5-1.3,3.4-4.3,3.4-4.3s-3-0.9-5.5,0.3c-2.5,1.3-3.4,4.3-3.4,4.3s0.1,0,0.4,0.1
			c0.4,0.1,1,0.2,1.8,0.2C957.8,149.5,959.1,149.4,960.2,148.8z"/>
		<path class="st7" d="M951.2,144.1c0,2.8,2.2,5,2.2,5s2.2-2.3,2.2-5c0-2.8-2.2-5-2.2-5S951.2,141.3,951.2,144.1z"/>
		<path class="st7" d="M953.4,160.2v2.3c3.6,0,6.5,2.9,6.5,6.5c0,3.6-2.9,6.5-6.5,6.5v2.3c4.8,0,8.8-3.9,8.8-8.8
			C962.2,164.1,958.2,160.2,953.4,160.2z"/>
	</g>
</g>
<g id="Slack_Icon__x23_1" class="st0">
	<g class="st1">
		<g>
			<path class="st4" d="M-475.3-173.3v27.2h-68.9v-27.2H-475.3 M-470.3-178.3h-78.9v37.2h78.9V-178.3L-470.3-178.3z"/>
		</g>
		<g>
			<g>
				<path class="st3" d="M-538.3-143.6c-8.9,0-16.1-7.2-16.1-16.1s7.2-16.1,16.1-16.1h52.8c8.9,0,16.1,7.2,16.1,16.1
					s-7.2,16.1-16.1,16.1H-538.3z"/>
				<path class="st4" d="M-485.5-173.3c7.5,0,13.6,6.1,13.6,13.6c0,7.5-6.1,13.6-13.6,13.6h-52.8c-7.5,0-13.6-6.1-13.6-13.6
					c0-7.5,6.1-13.6,13.6-13.6H-485.5 M-485.5-178.3h-52.8c-10.3,0-18.6,8.3-18.6,18.6v0c0,10.3,8.3,18.6,18.6,18.6h52.8
					c10.3,0,18.6-8.3,18.6-18.6v0C-466.9-170-475.2-178.3-485.5-178.3L-485.5-178.3z"/>
			</g>
		</g>
	</g>
	<g class="st1">
		<g>
			<path class="st4" d="M-410.6-173.3v27.2h-68.9v-27.2H-410.6 M-405.6-178.3h-78.9v37.2h78.9V-178.3L-405.6-178.3z"/>
		</g>
		<g>
			<g>
				<path class="st3" d="M-469.3-143.6c-8.9,0-16.1-7.2-16.1-16.1s7.2-16.1,16.1-16.1h52.8c8.9,0,16.1,7.2,16.1,16.1
					s-7.2,16.1-16.1,16.1H-469.3z"/>
				<path class="st4" d="M-416.5-173.3c7.5,0,13.6,6.1,13.6,13.6c0,7.5-6.1,13.6-13.6,13.6h-52.8c-7.5,0-13.6-6.1-13.6-13.6
					c0-7.5,6.1-13.6,13.6-13.6H-416.5 M-416.5-178.3h-52.8c-10.3,0-18.6,8.3-18.6,18.6v0c0,10.3,8.3,18.6,18.6,18.6h52.8
					c10.3,0,18.6-8.3,18.6-18.6v0C-397.9-170-406.2-178.3-416.5-178.3L-416.5-178.3z"/>
			</g>
		</g>
	</g>
	<path class="st8" d="M-535.1-168.6c-5.2,0-8.9,3.9-8.9,8.7v0c0,4.8,3.7,8.6,8.9,8.6c3.2,0,5.9-1.5,7.4-3.8c1-1.4,1.5-3.1,1.5-4.9v0
		c0-1.8-0.5-3.4-1.4-4.8C-529.2-167.1-531.9-168.6-535.1-168.6z M-530.1-159.9c0,2.9-2.1,5.2-5,5.2c-3,0-5.1-2.4-5.1-5.3v0
		c0-2.9,2.1-5.2,5-5.2S-530.1-162.8-530.1-159.9L-530.1-159.9z"/>
	<path class="st8" d="M-411.3-160L-411.3-160c0-4.8-3.6-8.4-8.9-8.4h-6.5v16.8h6.5C-414.9-151.6-411.3-155.3-411.3-160z M-423-165
		h2.8c3,0,5,2.1,5,5v0c0,3-2,5-5,5h-2.8V-165z"/>
	<g class="st1">
		<g>
			<path class="st4" d="M-477.4-120.8c-11.6,0-22.6-5.2-30-14.1c-0.8-1-1.5-2-2.2-3c-1.4-2.1-2.6-4.3-3.6-6.6
				c-2-4.8-3.1-9.9-3.1-15.1c0-21.4,17.4-38.9,38.9-38.9c2.6,0,5.3,0.3,7.8,0.8c10,2,18.7,7.8,24.4,16.3c1.4,2.1,2.6,4.3,3.6,6.6
				c2,4.8,3.1,9.9,3.1,15.1s-1,10.3-3.1,15.1c-1,2.3-2.2,4.5-3.6,6.6c-5.7,8.5-14.4,14.3-24.4,16.3
				C-472.1-121.1-474.7-120.8-477.4-120.8z"/>
			<path class="st3" d="M-477.4-195.5c2.5,0,4.9,0.3,7.2,0.7c9.3,1.9,17.4,7.5,22.5,15.1c1.3,1.9,2.4,3.9,3.3,6.1
				c1.8,4.3,2.8,9,2.8,14c0,5-1,9.7-2.8,14c-0.9,2.1-2,4.2-3.3,6.1c-5.2,7.6-13.2,13.2-22.5,15.1c-2.3,0.5-4.8,0.7-7.2,0.7h0
				c-11.1,0-21.1-5.1-27.7-13c-0.7-0.9-1.4-1.8-2.1-2.8c-1.3-1.9-2.4-3.9-3.3-6.1c-1.8-4.3-2.8-9-2.8-14
				C-513.2-179.5-497.2-195.5-477.4-195.5 M-477.4-201.5c-23.1,0-41.9,18.8-41.9,41.9c0,5.6,1.1,11.1,3.3,16.3
				c1,2.5,2.3,4.9,3.9,7.1c0.7,1.1,1.6,2.2,2.4,3.2c8,9.7,19.8,15.2,32.3,15.2c2.8,0,5.7-0.3,8.4-0.9c10.8-2.2,20.1-8.5,26.3-17.6
				c1.5-2.2,2.8-4.6,3.9-7.1c2.2-5.2,3.3-10.6,3.3-16.3c0-5.6-1.1-11.1-3.3-16.3c-1-2.5-2.3-4.9-3.9-7.1
				c-6.2-9.1-15.5-15.4-26.3-17.6C-471.7-201.3-474.5-201.5-477.4-201.5L-477.4-201.5z"/>
		</g>
		<path class="st3" d="M-446.3-159.7c0-17.1-13.9-31.1-31.1-31.1v10.1v4.8h0v32.4h0v4.8v10.1C-460.2-128.6-446.3-142.5-446.3-159.7z
			 M-477.4-145.9c7.6,0,13.8-6.2,13.8-13.8c0-7.6-6.2-13.8-13.8-13.8v-4.8c10.3,0,18.6,8.3,18.6,18.6c0,10.3-8.3,18.6-18.6,18.6
			V-145.9z"/>
		<path class="st4" d="M-444.3-173.6c-0.9-2.1-2-4.2-3.3-6.1c-5.2-7.6-13.2-13.2-22.5-15.1c-2.3-0.5-4.8-0.7-7.2-0.7
			c-19.8,0-35.9,16.1-35.9,35.9c0,5,1,9.7,2.8,14c0.9,2.1,2,4.2,3.3,6.1c0.6,1,1.3,1.9,2.1,2.8c6.6,8,16.5,13,27.7,13h0
			c2.5,0,4.9-0.3,7.2-0.7c9.3-1.9,17.4-7.5,22.5-15.1c1.3-1.9,2.4-3.9,3.3-6.1c1.8-4.3,2.8-9,2.8-14
			C-441.5-164.6-442.5-169.4-444.3-173.6z M-477.4-128.6v-10.1v-4.8h0v-32.4h0v-4.8v-10.1c17.1,0,31.1,13.9,31.1,31.1
			C-446.3-142.5-460.2-128.6-477.4-128.6z"/>
		<path class="st4" d="M-463-202.3c5.2-2.7,7.3-9.1,7.3-9.1s-6.4-2-11.6,0.7c-5.2,2.7-7.3,9.1-7.3,9.1S-468.3-199.6-463-202.3z"/>
		<path class="st4" d="M-472.6-212.3c0-5.9-4.7-10.7-4.7-10.7s-4.7,4.8-4.7,10.7c0,5.9,4.7,10.7,4.7,10.7S-472.6-206.4-472.6-212.3z
			"/>
		<path class="st4" d="M-458.8-159.7c0-10.3-8.3-18.6-18.6-18.6v4.8c7.6,0,13.8,6.2,13.8,13.8c0,7.6-6.2,13.8-13.8,13.8v4.8
			C-467.1-141.1-458.8-149.4-458.8-159.7z"/>
	</g>
	<g class="st1">
		<path id="SVGID_x5F_1_x5F_" class="st6" d="M-405.6-159.7c0,39.7-32.2,71.8-71.8,71.8s-71.8-32.2-71.8-71.8s32.2-71.8,71.8-71.8
			S-405.6-199.4-405.6-159.7z"/>
		<text>		<textPath  xlink:href="#SVGID_x5F_1_x5F_" startOffset="1810.246%">
<tspan  class="st4" style="font-family:'Gotham-Bold'; font-size:17px;">orlando</tspan>		</textPath>
</text>
		<path id="SVGID_x5F_2_x5F_" class="st6" d="M-397.6-159.7c0,44.1-35.7,79.8-79.8,79.8s-79.8-35.7-79.8-79.8s35.7-79.8,79.8-79.8
			S-397.6-203.8-397.6-159.7z"/>
		<text>		<textPath  xlink:href="#SVGID_x5F_2_x5F_" startOffset="276.9003%">
<tspan  class="st4" style="font-family:'Gotham-Bold'; font-size:17px;">designers</tspan>		</textPath>
</text>
		<g>
			<circle class="st6" cx="-477.4" cy="-159.7" r="79.8"/>
		</g>
	</g>
	<text transform="matrix(1 0 0 1 -495.3542 -105.8342)" class="st8" style="font-family:'Gotham-Bold'; font-size:7px;">EST 2015</text>
	<g class="st1">
		<g>
			<path class="st9" d="M154.3,156.6h-27.7c-1.2,0-2.2-1-2.2-2.2v-27.7c0-1.2,1-2.2,2.2-2.2h27.7c1.2,0,2.2,1,2.2,2.2v27.7
				C156.6,155.6,155.6,156.6,154.3,156.6z"/>
		</g>
		<circle class="st2" cx="140.5" cy="143.4" r="9.9"/>
		<g>
			<path class="st4" d="M140.5,133.6L140.5,133.6c0.2,0,0.3,0,0.5,0C140.8,133.6,140.7,133.6,140.5,133.6z"/>
			<path class="st4" d="M140.5,153.4c0.2,0,0.3,0,0.5,0C140.8,153.4,140.7,153.4,140.5,153.4L140.5,153.4z"/>
			<path class="st4" d="M149.6,139.6c-0.1-0.3-0.3-0.6-0.4-0.9c-0.2-0.3-0.3-0.6-0.5-0.8c-0.4-0.7-1-1.3-1.5-1.8
				c-0.1-0.1-0.3-0.3-0.5-0.4c-0.3-0.2-0.6-0.5-1-0.7c-0.2-0.1-0.3-0.2-0.5-0.3c-0.8-0.5-1.8-0.8-2.7-1c-0.3-0.1-0.6-0.1-1-0.1
				c-0.2,0-0.3,0-0.5,0c-0.2,0-0.3,0-0.5,0c-1.2,0-2.3,0.2-3.4,0.6c-0.3,0.1-0.6,0.2-0.9,0.4c-0.7,0.3-1.4,0.8-2,1.3
				c-0.6,0.5-1.2,1.1-1.6,1.7c-0.9,1.1-1.5,2.5-1.8,3.9c0,0.2-0.1,0.3-0.1,0.5c-0.1,0.5-0.1,1-0.1,1.5c0,0.2,0,0.3,0,0.5
				c0,0.5,0.1,1,0.2,1.5c0.1,0.3,0.1,0.6,0.2,0.9c0.1,0.3,0.2,0.6,0.3,0.9c0.1,0.1,0.1,0.3,0.2,0.4c0.2,0.4,0.4,0.8,0.7,1.2
				c0.1,0.1,0.2,0.3,0.3,0.4c0.1,0.1,0.2,0.3,0.3,0.4c0.1,0.1,0.2,0.3,0.4,0.4c0.1,0.1,0.2,0.3,0.4,0.4c0.5,0.5,1.1,0.9,1.7,1.3
				c0.3,0.2,0.6,0.4,0.9,0.5c1.3,0.6,2.7,1,4.3,1h0c0.2,0,0.3,0,0.5,0c0.2,0,0.3,0,0.5,0c0.3,0,0.7-0.1,1-0.1c1-0.2,1.9-0.5,2.7-1
				c0.2-0.1,0.3-0.2,0.5-0.3c0.3-0.2,0.7-0.4,1-0.7c0.2-0.1,0.3-0.3,0.5-0.4c0.6-0.5,1.1-1.1,1.5-1.8c0.2-0.3,0.3-0.5,0.5-0.8
				c0.2-0.3,0.3-0.6,0.4-0.9c0.5-1.2,0.8-2.5,0.8-3.8C150.4,142.1,150.1,140.8,149.6,139.6z M140.5,152v-2.8v-1.3h0V139h0v-1.3v-2.8
				c4.7,0,8.6,3.8,8.6,8.6C149.1,148.2,145.2,152,140.5,152z M140.5,138.3v1.3c2.1,0,3.8,1.7,3.8,3.8c0,2.1-1.7,3.8-3.8,3.8v1.3
				c2.8,0,5.1-2.3,5.1-5.1C145.6,140.6,143.3,138.3,140.5,138.3z"/>
		</g>
		<path class="st5" d="M141.5,132c0.2,0.1,0.6,0.1,1,0.1c0.6,0,1.3-0.1,2-0.4c1.4-0.7,2-2.5,2-2.5s-1.8-0.6-3.2,0.2
			c-1.4,0.7-2,2.5-2,2.5S141.3,132,141.5,132z"/>
		<path class="st5" d="M141.8,129c0-1.6-1.3-2.9-1.3-2.9s-1.3,1.3-1.3,2.9c0,1.6,1.3,2.9,1.3,2.9S141.8,130.6,141.8,129z"/>
	</g>
</g>
<g id="Slack_Icon__x23_2" class="st0">
	<g class="st1">
		<g>
			<path class="st4" d="M-475.3-173.3v27.2h-68.9v-27.2H-475.3 M-470.3-178.3h-78.9v37.2h78.9V-178.3L-470.3-178.3z"/>
		</g>
		<g>
			<g>
				<path class="st3" d="M-538.3-143.6c-8.9,0-16.1-7.2-16.1-16.1s7.2-16.1,16.1-16.1h52.8c8.9,0,16.1,7.2,16.1,16.1
					s-7.2,16.1-16.1,16.1H-538.3z"/>
				<path class="st4" d="M-485.5-173.3c7.5,0,13.6,6.1,13.6,13.6c0,7.5-6.1,13.6-13.6,13.6h-52.8c-7.5,0-13.6-6.1-13.6-13.6
					c0-7.5,6.1-13.6,13.6-13.6H-485.5 M-485.5-178.3h-52.8c-10.3,0-18.6,8.3-18.6,18.6v0c0,10.3,8.3,18.6,18.6,18.6h52.8
					c10.3,0,18.6-8.3,18.6-18.6v0C-466.9-170-475.2-178.3-485.5-178.3L-485.5-178.3z"/>
			</g>
		</g>
	</g>
	<g class="st1">
		<g>
			<path class="st4" d="M-410.6-173.3v27.2h-68.9v-27.2H-410.6 M-405.6-178.3h-78.9v37.2h78.9V-178.3L-405.6-178.3z"/>
		</g>
		<g>
			<g>
				<path class="st3" d="M-469.3-143.6c-8.9,0-16.1-7.2-16.1-16.1s7.2-16.1,16.1-16.1h52.8c8.9,0,16.1,7.2,16.1,16.1
					s-7.2,16.1-16.1,16.1H-469.3z"/>
				<path class="st4" d="M-416.5-173.3c7.5,0,13.6,6.1,13.6,13.6c0,7.5-6.1,13.6-13.6,13.6h-52.8c-7.5,0-13.6-6.1-13.6-13.6
					c0-7.5,6.1-13.6,13.6-13.6H-416.5 M-416.5-178.3h-52.8c-10.3,0-18.6,8.3-18.6,18.6v0c0,10.3,8.3,18.6,18.6,18.6h52.8
					c10.3,0,18.6-8.3,18.6-18.6v0C-397.9-170-406.2-178.3-416.5-178.3L-416.5-178.3z"/>
			</g>
		</g>
	</g>
	<path class="st8" d="M-535.1-168.6c-5.2,0-8.9,3.9-8.9,8.7v0c0,4.8,3.7,8.6,8.9,8.6c3.2,0,5.9-1.5,7.4-3.8c1-1.4,1.5-3.1,1.5-4.9v0
		c0-1.8-0.5-3.4-1.4-4.8C-529.2-167.1-531.9-168.6-535.1-168.6z M-530.1-159.9c0,2.9-2.1,5.2-5,5.2c-3,0-5.1-2.4-5.1-5.3v0
		c0-2.9,2.1-5.2,5-5.2S-530.1-162.8-530.1-159.9L-530.1-159.9z"/>
	<path class="st8" d="M-411.3-160L-411.3-160c0-4.8-3.6-8.4-8.9-8.4h-6.5v16.8h6.5C-414.9-151.6-411.3-155.3-411.3-160z M-423-165
		h2.8c3,0,5,2.1,5,5v0c0,3-2,5-5,5h-2.8V-165z"/>
	<g class="st1">
		<g>
			<path class="st4" d="M-477.4-120.8c-11.6,0-22.6-5.2-30-14.1c-0.8-1-1.5-2-2.2-3c-1.4-2.1-2.6-4.3-3.6-6.6
				c-2-4.8-3.1-9.9-3.1-15.1c0-21.4,17.4-38.9,38.9-38.9c2.6,0,5.3,0.3,7.8,0.8c10,2,18.7,7.8,24.4,16.3c1.4,2.1,2.6,4.3,3.6,6.6
				c2,4.8,3.1,9.9,3.1,15.1s-1,10.3-3.1,15.1c-1,2.3-2.2,4.5-3.6,6.6c-5.7,8.5-14.4,14.3-24.4,16.3
				C-472.1-121.1-474.7-120.8-477.4-120.8z"/>
			<path class="st3" d="M-477.4-195.5c2.5,0,4.9,0.3,7.2,0.7c9.3,1.9,17.4,7.5,22.5,15.1c1.3,1.9,2.4,3.9,3.3,6.1
				c1.8,4.3,2.8,9,2.8,14c0,5-1,9.7-2.8,14c-0.9,2.1-2,4.2-3.3,6.1c-5.2,7.6-13.2,13.2-22.5,15.1c-2.3,0.5-4.8,0.7-7.2,0.7h0
				c-11.1,0-21.1-5.1-27.7-13c-0.7-0.9-1.4-1.8-2.1-2.8c-1.3-1.9-2.4-3.9-3.3-6.1c-1.8-4.3-2.8-9-2.8-14
				C-513.2-179.5-497.2-195.5-477.4-195.5 M-477.4-201.5c-23.1,0-41.9,18.8-41.9,41.9c0,5.6,1.1,11.1,3.3,16.3
				c1,2.5,2.3,4.9,3.9,7.1c0.7,1.1,1.6,2.2,2.4,3.2c8,9.7,19.8,15.2,32.3,15.2c2.8,0,5.7-0.3,8.4-0.9c10.8-2.2,20.1-8.5,26.3-17.6
				c1.5-2.2,2.8-4.6,3.9-7.1c2.2-5.2,3.3-10.6,3.3-16.3c0-5.6-1.1-11.1-3.3-16.3c-1-2.5-2.3-4.9-3.9-7.1
				c-6.2-9.1-15.5-15.4-26.3-17.6C-471.7-201.3-474.5-201.5-477.4-201.5L-477.4-201.5z"/>
		</g>
		<path class="st3" d="M-446.3-159.7c0-17.1-13.9-31.1-31.1-31.1v10.1v4.8h0v32.4h0v4.8v10.1C-460.2-128.6-446.3-142.5-446.3-159.7z
			 M-477.4-145.9c7.6,0,13.8-6.2,13.8-13.8c0-7.6-6.2-13.8-13.8-13.8v-4.8c10.3,0,18.6,8.3,18.6,18.6c0,10.3-8.3,18.6-18.6,18.6
			V-145.9z"/>
		<path class="st4" d="M-444.3-173.6c-0.9-2.1-2-4.2-3.3-6.1c-5.2-7.6-13.2-13.2-22.5-15.1c-2.3-0.5-4.8-0.7-7.2-0.7
			c-19.8,0-35.9,16.1-35.9,35.9c0,5,1,9.7,2.8,14c0.9,2.1,2,4.2,3.3,6.1c0.6,1,1.3,1.9,2.1,2.8c6.6,8,16.5,13,27.7,13h0
			c2.5,0,4.9-0.3,7.2-0.7c9.3-1.9,17.4-7.5,22.5-15.1c1.3-1.9,2.4-3.9,3.3-6.1c1.8-4.3,2.8-9,2.8-14
			C-441.5-164.6-442.5-169.4-444.3-173.6z M-477.4-128.6v-10.1v-4.8h0v-32.4h0v-4.8v-10.1c17.1,0,31.1,13.9,31.1,31.1
			C-446.3-142.5-460.2-128.6-477.4-128.6z"/>
		<path class="st4" d="M-463-202.3c5.2-2.7,7.3-9.1,7.3-9.1s-6.4-2-11.6,0.7c-5.2,2.7-7.3,9.1-7.3,9.1S-468.3-199.6-463-202.3z"/>
		<path class="st4" d="M-472.6-212.3c0-5.9-4.7-10.7-4.7-10.7s-4.7,4.8-4.7,10.7c0,5.9,4.7,10.7,4.7,10.7S-472.6-206.4-472.6-212.3z
			"/>
		<path class="st4" d="M-458.8-159.7c0-10.3-8.3-18.6-18.6-18.6v4.8c7.6,0,13.8,6.2,13.8,13.8c0,7.6-6.2,13.8-13.8,13.8v4.8
			C-467.1-141.1-458.8-149.4-458.8-159.7z"/>
	</g>
	<g class="st1">
		<path id="SVGID_x5F_3_x5F_" class="st6" d="M-405.6-159.7c0,39.7-32.2,71.8-71.8,71.8s-71.8-32.2-71.8-71.8s32.2-71.8,71.8-71.8
			S-405.6-199.4-405.6-159.7z"/>
		<text>		<textPath  xlink:href="#SVGID_x5F_3_x5F_" startOffset="1810.246%">
<tspan  class="st4" style="font-family:'Gotham-Bold'; font-size:17px;">orlando</tspan>		</textPath>
</text>
		<path id="SVGID_x5F_4_x5F_" class="st6" d="M-397.6-159.7c0,44.1-35.7,79.8-79.8,79.8s-79.8-35.7-79.8-79.8s35.7-79.8,79.8-79.8
			S-397.6-203.8-397.6-159.7z"/>
		<text>		<textPath  xlink:href="#SVGID_x5F_4_x5F_" startOffset="276.9003%">
<tspan  class="st4" style="font-family:'Gotham-Bold'; font-size:17px;">designers</tspan>		</textPath>
</text>
		<g>
			<circle class="st6" cx="-477.4" cy="-159.7" r="79.8"/>
		</g>
	</g>
	<text transform="matrix(1 0 0 1 -495.3542 -105.8342)" class="st8" style="font-family:'Gotham-Bold'; font-size:7px;">EST 2015</text>
	<g class="st1">
		<g>
			<path class="st10" d="M154.3,156.6h-27.7c-1.2,0-2.2-1-2.2-2.2v-27.7c0-1.2,1-2.2,2.2-2.2h27.7c1.2,0,2.2,1,2.2,2.2v27.7
				C156.6,155.6,155.6,156.6,154.3,156.6z"/>
		</g>
		<g>
			<path class="st3" d="M140.5,133.6L140.5,133.6c0.2,0,0.3,0,0.5,0C140.8,133.6,140.7,133.6,140.5,133.6z"/>
			<path class="st3" d="M140.5,153.4c0.2,0,0.3,0,0.5,0C140.8,153.4,140.7,153.4,140.5,153.4L140.5,153.4z"/>
			<path class="st3" d="M149.6,139.6c-0.1-0.3-0.3-0.6-0.4-0.9c-0.2-0.3-0.3-0.6-0.5-0.8c-0.4-0.7-1-1.3-1.5-1.8
				c-0.1-0.1-0.3-0.3-0.5-0.4c-0.3-0.2-0.6-0.5-1-0.7c-0.2-0.1-0.3-0.2-0.5-0.3c-0.8-0.5-1.8-0.8-2.7-1c-0.3-0.1-0.6-0.1-1-0.1
				c-0.2,0-0.3,0-0.5,0c-0.2,0-0.3,0-0.5,0c-1.2,0-2.3,0.2-3.4,0.6c-0.3,0.1-0.6,0.2-0.9,0.4c-0.7,0.3-1.4,0.8-2,1.3
				c-0.6,0.5-1.2,1.1-1.6,1.7c-0.9,1.1-1.5,2.5-1.8,3.9c0,0.2-0.1,0.3-0.1,0.5c-0.1,0.5-0.1,1-0.1,1.5c0,0.2,0,0.3,0,0.5
				c0,0.5,0.1,1,0.2,1.5c0.1,0.3,0.1,0.6,0.2,0.9c0.1,0.3,0.2,0.6,0.3,0.9c0.1,0.1,0.1,0.3,0.2,0.4c0.2,0.4,0.4,0.8,0.7,1.2
				c0.1,0.1,0.2,0.3,0.3,0.4c0.1,0.1,0.2,0.3,0.3,0.4c0.1,0.1,0.2,0.3,0.4,0.4c0.1,0.1,0.2,0.3,0.4,0.4c0.5,0.5,1.1,0.9,1.7,1.3
				c0.3,0.2,0.6,0.4,0.9,0.5c1.3,0.6,2.7,1,4.3,1h0c0.2,0,0.3,0,0.5,0c0.2,0,0.3,0,0.5,0c0.3,0,0.7-0.1,1-0.1c1-0.2,1.9-0.5,2.7-1
				c0.2-0.1,0.3-0.2,0.5-0.3c0.3-0.2,0.7-0.4,1-0.7c0.2-0.1,0.3-0.3,0.5-0.4c0.6-0.5,1.1-1.1,1.5-1.8c0.2-0.3,0.3-0.5,0.5-0.8
				c0.2-0.3,0.3-0.6,0.4-0.9c0.5-1.2,0.8-2.5,0.8-3.8C150.4,142.1,150.1,140.8,149.6,139.6z M140.5,152v-2.8v-1.3h0V139h0v-1.3v-2.8
				c4.7,0,8.6,3.8,8.6,8.6C149.1,148.2,145.2,152,140.5,152z M140.5,138.3v1.3c2.1,0,3.8,1.7,3.8,3.8c0,2.1-1.7,3.8-3.8,3.8v1.3
				c2.8,0,5.1-2.3,5.1-5.1C145.6,140.6,143.3,138.3,140.5,138.3z"/>
		</g>
		<path class="st3" d="M141.5,132c0.2,0.1,0.6,0.1,1,0.1c0.6,0,1.3-0.1,2-0.4c1.4-0.7,2-2.5,2-2.5s-1.8-0.6-3.2,0.2
			c-1.4,0.7-2,2.5-2,2.5S141.3,132,141.5,132z"/>
		<path class="st3" d="M141.8,129c0-1.6-1.3-2.9-1.3-2.9s-1.3,1.3-1.3,2.9c0,1.6,1.3,2.9,1.3,2.9S141.8,130.6,141.8,129z"/>
	</g>
</g>
</svg>
