<?xml version="1.0" encoding="utf-8"?>
<!-- Generator: Adobe Illustrator 19.2.1, SVG Export Plug-In . SVG Version: 6.00 Build 0)  -->
<svg version="1.1" xmlns="http://www.w3.org/2000/svg" xmlns:xlink="http://www.w3.org/1999/xlink" x="0px" y="0px"
	 viewBox="0 0 245 155" style="enable-background:new 0 0 245 155;" xml:space="preserve">
<style type="text/css">
	.st0{display:none;}
	.st1{display:inline;}
	.st2{fill:#D15A28;}
	.st3{fill:#FFFFFF;}
	.st4{fill:#F99B20;}
	.st5{fill:#51B848;}
	.st6{fill:none;}
	.st7{fill:#F3715D;}
	.st8{display:inline;fill:#F99B20;}
	.st9{fill:#FFFFFF;stroke:#FFFFFF;stroke-miterlimit:10;}
	.st10{fill:#F99B20;stroke:#F99B20;stroke-miterlimit:10;}
</style>
<g id="Final_x5F_3_color" class="st0">
	<g class="st1">
		<g>
			<path class="st2" d="M495.7,70.3v27.2h-68.9V70.3H495.7 M500.7,65.3h-78.9v37.2h78.9V65.3L500.7,65.3z"/>
			<g>
				<g>
					<path class="st3" d="M432.7,102.5h52.8c10.3,0,18.6-8.3,18.6-18.6v0c0-10.3-8.3-18.6-18.6-18.6h-52.8
						c-10.3,0-18.6,8.3-18.6,18.6v0C414.1,94.1,422.5,102.5,432.7,102.5z"/>
					<path class="st2" d="M485.6,70.3c7.5,0,13.6,6.1,13.6,13.6c0,7.5-6.1,13.6-13.6,13.6h-52.8c-7.5,0-13.6-6.1-13.6-13.6
						s6.1-13.6,13.6-13.6H485.6 M485.6,65.3h-52.8c-10.3,0-18.6,8.3-18.6,18.6v0c0,10.3,8.3,18.6,18.6,18.6h52.8
						c10.3,0,18.6-8.3,18.6-18.6v0C504.2,73.6,495.8,65.3,485.6,65.3L485.6,65.3z"/>
				</g>
			</g>
		</g>
		<g>
			<path class="st2" d="M560.5,70.3v27.2h-68.9V70.3H560.5 M565.5,65.3h-78.9v37.2h78.9V65.3L565.5,65.3z"/>
			<g>
				<g>
					<path class="st3" d="M554.6,102.5h-52.8c-10.3,0-18.6-8.3-18.6-18.6v0c0-10.3,8.3-18.6,18.6-18.6h52.8
						c10.3,0,18.6,8.3,18.6,18.6v0C573.2,94.1,564.8,102.5,554.6,102.5z"/>
					<path class="st2" d="M554.6,70.3c7.5,0,13.6,6.1,13.6,13.6c0,7.5-6.1,13.6-13.6,13.6h-52.8c-7.5,0-13.6-6.1-13.6-13.6
						s6.1-13.6,13.6-13.6H554.6 M554.6,65.3h-52.8c-10.3,0-18.6,8.3-18.6,18.6v0c0,10.3,8.3,18.6,18.6,18.6h52.8
						c10.3,0,18.6-8.3,18.6-18.6v0C573.2,73.6,564.8,65.3,554.6,65.3L554.6,65.3z"/>
				</g>
			</g>
		</g>
		<path class="st4" d="M435.9,74.9c-5.2,0-8.9,3.9-8.9,8.7v0c0,4.8,3.7,8.6,8.9,8.6c3.2,0,5.9-1.5,7.4-3.8c1-1.4,1.5-3.1,1.5-4.9v0
			c0-1.8-0.5-3.4-1.4-4.8C441.8,76.4,439.2,74.9,435.9,74.9z M441,83.6c0,2.9-2.1,5.2-5,5.2c-3,0-5.1-2.4-5.1-5.3v0
			c0-2.9,2.1-5.2,5-5.2S441,80.7,441,83.6L441,83.6z"/>
		<path class="st4" d="M559.8,83.6L559.8,83.6c0-4.8-3.6-8.4-8.9-8.4h-6.5V92h6.5C556.1,92,559.8,88.3,559.8,83.6z M548,78.5h2.8
			c3,0,5,2.1,5,5v0c0,3-2,5-5,5H548V78.5z"/>
		<g>
			<g>
				<path class="st4" d="M526.7,69.9c-0.9-2.1-2-4.2-3.3-6.1c-5.2-7.6-13.2-13.2-22.5-15.1c-2.3-0.5-4.8-0.7-7.2-0.7
					c-19.8,0-35.9,16.1-35.9,35.9c0,5,1,9.7,2.8,14c0.9,2.1,2,4.2,3.3,6.1c0.6,1,1.3,1.9,2.1,2.8c6.6,8,16.5,13,27.7,13h0
					c2.5,0,4.9-0.3,7.2-0.7c9.3-1.9,17.4-7.5,22.5-15.1c1.3-1.9,2.4-3.9,3.3-6.1c1.8-4.3,2.8-9,2.8-14S528.5,74.2,526.7,69.9z"/>
				<path class="st3" d="M493.7,48c2.5,0,4.9,0.3,7.2,0.7c9.3,1.9,17.4,7.5,22.5,15.1c1.3,1.9,2.4,3.9,3.3,6.1c1.8,4.3,2.8,9,2.8,14
					s-1,9.7-2.8,14c-0.9,2.1-2,4.2-3.3,6.1c-5.2,7.6-13.2,13.2-22.5,15.1c-2.3,0.5-4.8,0.7-7.2,0.7h0c-11.1,0-21.1-5.1-27.7-13
					c-0.7-0.9-1.4-1.8-2.1-2.8c-1.3-1.9-2.4-3.9-3.3-6.1c-1.8-4.3-2.8-9-2.8-14C457.8,64.1,473.9,48,493.7,48 M493.7,42
					c-23.1,0-41.9,18.8-41.9,41.9c0,5.6,1.1,11.1,3.3,16.3c1,2.5,2.3,4.9,3.9,7.1c0.7,1.1,1.6,2.2,2.4,3.2
					c8,9.7,19.8,15.2,32.3,15.2c2.8,0,5.7-0.3,8.4-0.9c10.8-2.2,20.1-8.5,26.3-17.6c1.5-2.2,2.8-4.6,3.9-7.1
					c2.2-5.2,3.3-10.6,3.3-16.3s-1.1-11.1-3.3-16.3c-1-2.5-2.3-4.9-3.9-7.1c-6.2-9.1-15.5-15.4-26.3-17.6
					C499.3,42.3,496.5,42,493.7,42L493.7,42z"/>
			</g>
			<path class="st2" d="M524.7,83.9c0-17.1-13.9-31.1-31.1-31.1v10.1v4.8h0v32.4h0v4.8v10.1C510.8,114.9,524.7,101,524.7,83.9z
				 M493.7,97.7c7.6,0,13.8-6.2,13.8-13.8c0-7.6-6.2-13.8-13.8-13.8v-4.8c10.3,0,18.6,8.3,18.6,18.6c0,10.3-8.3,18.6-18.6,18.6V97.7
				z"/>
			<path class="st4" d="M526.7,69.9c-0.9-2.1-2-4.2-3.3-6.1c-5.2-7.6-13.2-13.2-22.5-15.1c-2.3-0.5-4.8-0.7-7.2-0.7
				c-19.8,0-35.9,16.1-35.9,35.9c0,5,1,9.7,2.8,14c0.9,2.1,2,4.2,3.3,6.1c0.6,1,1.3,1.9,2.1,2.8c6.6,8,16.5,13,27.7,13h0
				c2.5,0,4.9-0.3,7.2-0.7c9.3-1.9,17.4-7.5,22.5-15.1c1.3-1.9,2.4-3.9,3.3-6.1c1.8-4.3,2.8-9,2.8-14S528.5,74.2,526.7,69.9z
				 M493.7,114.9v-10.1v-4.8h0V67.7h0v-4.8V52.8c17.1,0,31.1,13.9,31.1,31.1C524.7,101,510.8,114.9,493.7,114.9z"/>
			<path class="st5" d="M508,41.2c5.2-2.7,7.3-9.1,7.3-9.1s-6.4-2-11.6,0.7c-5.2,2.7-7.3,9.1-7.3,9.1S502.8,44,508,41.2z"/>
			<path class="st5" d="M498.5,31.2c0-5.9-4.7-10.7-4.7-10.7s-4.7,4.8-4.7,10.7s4.7,10.7,4.7,10.7S498.5,37.1,498.5,31.2z"/>
			<path class="st4" d="M512.3,83.9c0-10.3-8.3-18.6-18.6-18.6V70c7.6,0,13.8,6.2,13.8,13.8c0,7.6-6.2,13.8-13.8,13.8v4.8
				C503.9,102.5,512.3,94.1,512.3,83.9z"/>
		</g>
		<g>
			<g>
				<path class="st4" d="M432.8,46c-1.4,2.2-4,2.7-6,1.5l0,0c-2-1.3-2.7-3.9-1.3-6s4-2.7,6-1.5l0,0C433.5,41.2,434.2,43.8,432.8,46z
					 M430.5,41.5c-1.2-0.8-2.8-0.5-3.6,0.8s-0.3,2.7,0.9,3.5l0,0c1.2,0.8,2.8,0.5,3.6-0.8C432.2,43.8,431.7,42.3,430.5,41.5
					L430.5,41.5z"/>
				<path class="st4" d="M450.3,26.5l-3.1-1l-1.1,0.9l1.7,2.1l-1.4,1.1l-5.2-6.5l3-2.4c1.5-1.2,3.1-1.1,4.2,0.2l0,0
					c0.8,1.1,0.8,2.2,0.2,3.1l3.4,1.1L450.3,26.5z M447,22.2c-0.5-0.6-1.2-0.6-1.9,0l-1.4,1.1l1.5,1.9l1.5-1.2
					C447.3,23.5,447.4,22.8,447,22.2L447,22.2z"/>
				<path class="st4" d="M466.7,17.2l-2.8-7.8l1.7-0.6l2.3,6.3l3.9-1.4l0.6,1.6L466.7,17.2z"/>
				<path class="st4" d="M495.1,12l-0.8-1.9l-3.5,0.1l-0.7,1.9l-1.9,0l3.4-8.5l1.7,0L497,12L495.1,12z M492.4,5.9l-1.1,2.7l2.2,0
					L492.4,5.9z"/>
				<path class="st4" d="M518.7,16.5l-2.1-6.3l-1.7,5l-1.7-0.6l2.7-7.9l1.6,0.5l2.1,6.1l1.6-4.9l1.7,0.6l-2.7,7.9L518.7,16.5z"/>
				<path class="st4" d="M537.9,27.3l-2.5-2l5.2-6.5l2.5,2c2.1,1.6,2.4,4.2,0.9,6l0,0C542.5,28.6,539.9,28.9,537.9,27.3z
					 M542.4,25.6c0.9-1.2,0.8-2.6-0.4-3.5l-1.1-0.9l-3.1,3.9l1.1,0.9C540.1,26.9,541.5,26.7,542.4,25.6L542.4,25.6z"/>
				<path class="st4" d="M554.6,46c-1.4-2.2-0.7-4.8,1.3-6l0,0c2-1.3,4.6-0.7,6,1.5c1.4,2.2,0.7,4.8-1.3,6l0,0
					C558.5,48.8,555.9,48.2,554.6,46z M559.5,45.9c1.2-0.8,1.7-2.3,0.9-3.5c-0.8-1.3-2.3-1.5-3.5-0.8l0,0c-1.2,0.8-1.7,2.3-0.9,3.5
					C556.8,46.4,558.3,46.7,559.5,45.9L559.5,45.9z"/>
			</g>
			<g>
				<path class="st4" d="M425.6,125.6l-1.7-2.8l7.1-4.4l1.7,2.8c1.4,2.2,0.8,4.7-1.2,5.9l0,0C429.5,128.4,427,127.8,425.6,125.6z
					 M430.5,125.5c1.3-0.8,1.6-2.2,0.8-3.5l-0.7-1.2l-4.3,2.7l0.7,1.2C427.8,126,429.2,126.3,430.5,125.5L430.5,125.5z"/>
				<path class="st4" d="M437,140.2l5.7-6.1l4.6,4.3l-1.1,1.2l-3.3-3l-1.2,1.2l2.9,2.7l-1.1,1.2l-2.9-2.7l-1.2,1.3l3.3,3.1l-1.1,1.2
					L437,140.2z"/>
				<path class="st4" d="M455.7,154.3c-1.1-0.6-2-1.6-2.5-2.9l1.6-0.6c0.4,0.9,0.9,1.6,1.7,2.1c0.7,0.4,1.2,0.3,1.4-0.1l0,0
					c0.2-0.4,0.1-0.8-1-1.7c-1.3-1.2-2-2.1-1.2-3.6l0,0c0.7-1.3,2.3-1.6,3.8-0.8c1.1,0.6,1.8,1.4,2.2,2.4l-1.5,0.8
					c-0.4-0.8-0.9-1.4-1.5-1.8c-0.6-0.3-1.1-0.2-1.3,0.1l0,0c-0.3,0.5,0,0.8,1.1,1.8c1.3,1.2,1.8,2.2,1.1,3.5l0,0
					C458.8,154.9,457.3,155.1,455.7,154.3z"/>
				<path class="st4" d="M471.5,160.6l2.2-8l1.8,0.5l-2.2,8L471.5,160.6z"/>
				<path class="st4" d="M491.5,163.8c-2.6-0.1-4.3-2-4.2-4.4l0,0c0.1-2.4,2-4.3,4.5-4.2c1.5,0,2.4,0.5,3.2,1.2l-1.2,1.4
					c-0.6-0.6-1.2-0.9-2.2-0.9c-1.3,0-2.4,1.1-2.5,2.5l0,0c0,1.5,1,2.7,2.4,2.7c0.7,0,1.3-0.1,1.7-0.4l0-1.2l-1.8-0.1l0-1.6l3.6,0.1
					l-0.1,3.6C494.2,163.3,493,163.9,491.5,163.8z"/>
				<path class="st4" d="M515.1,160.8l-5.2-4.2l1.3,5.1l-1.8,0.4l-2-8.1l1.6-0.4l5,4l-1.2-5l1.8-0.4l2,8.1L515.1,160.8z"/>
				<path class="st4" d="M530.2,154.9l-4.1-7.3l5.5-3.1l0.8,1.4l-3.9,2.2l0.8,1.5l3.4-1.9l0.8,1.4l-3.4,1.9l0.9,1.5l3.9-2.2l0.8,1.4
					L530.2,154.9z"/>
				<path class="st4" d="M550.7,139.7l-3.1-0.7l-1,1l1.9,1.9l-1.3,1.3l-5.8-6l2.7-2.7c1.4-1.4,3-1.5,4.2-0.2l0,0
					c0.9,1,1,2.1,0.5,3.1l3.5,0.7L550.7,139.7z M546.9,135.8c-0.5-0.6-1.2-0.5-1.9,0.2l-1.3,1.3l1.7,1.7l1.3-1.3
					C547.4,137,547.4,136.3,546.9,135.8L546.9,135.8z"/>
				<path class="st4" d="M562.4,124.8c-0.6,1.1-1.7,1.9-3,2.3l-0.6-1.6c0.9-0.3,1.7-0.8,2.1-1.6c0.4-0.6,0.4-1.2-0.1-1.4l0,0
					c-0.4-0.2-0.7-0.1-1.8,0.9c-1.2,1.2-2.2,1.9-3.6,1.1l0,0c-1.3-0.8-1.5-2.3-0.7-3.8c0.6-1,1.5-1.7,2.5-2.1l0.7,1.5
					c-0.8,0.4-1.5,0.8-1.8,1.4c-0.4,0.6-0.3,1.1,0.1,1.3l0,0c0.5,0.3,0.8,0.1,1.9-1c1.2-1.2,2.3-1.7,3.5-1l0,0
					C563.1,121.7,563.3,123.2,562.4,124.8z"/>
			</g>
			<g>
				<circle class="st6" cx="493.7" cy="83.9" r="79.8"/>
			</g>
		</g>
		<g>
			<path class="st5" d="M475.9,137.7v-4.9h3.7v1H477v1h2.3v1H477v1h2.7v1H475.9z"/>
			<path class="st5" d="M482.9,137.8c-0.7,0-1.5-0.3-2.1-0.8l0.6-0.8c0.4,0.4,0.9,0.6,1.5,0.6c0.4,0,0.7-0.2,0.7-0.5v0
				c0-0.3-0.2-0.4-1-0.6c-1-0.3-1.6-0.5-1.6-1.5v0c0-0.9,0.7-1.5,1.7-1.5c0.7,0,1.3,0.2,1.8,0.6l-0.6,0.8c-0.4-0.3-0.9-0.5-1.3-0.5
				s-0.6,0.2-0.6,0.4v0c0,0.3,0.2,0.4,1.1,0.6c1,0.3,1.6,0.6,1.6,1.5v0C484.7,137.2,484,137.8,482.9,137.8z"/>
			<path class="st5" d="M488.5,133.8v3.9h-1.1v-3.9h-1.5v-1h4.1v1H488.5z"/>
			<path class="st5" d="M494.3,134.4l-0.8-0.6c0.5-0.7,1-1,1.8-1c1,0,1.7,0.6,1.7,1.5c0,0.8-0.4,1.2-1.3,1.9l-0.8,0.6h2.1v0.9h-3.6
				v-0.9l1.6-1.3c0.6-0.5,0.8-0.8,0.8-1.2c0-0.4-0.3-0.6-0.7-0.6C494.9,133.7,494.7,133.9,494.3,134.4z"/>
			<path class="st5" d="M500.6,137.8c-1.3,0-2.2-1.1-2.2-2.5s0.9-2.5,2.2-2.5s2.2,1.1,2.2,2.5S501.9,137.8,500.6,137.8z
				 M500.6,133.7c-0.7,0-1.1,0.7-1.1,1.6s0.4,1.6,1.1,1.6s1.1-0.7,1.1-1.6S501.3,133.7,500.6,133.7z"/>
			<path class="st5" d="M505.2,132.8h0.7v4.9h-1.1v-3.8l-0.9,0.2l-0.2-0.9L505.2,132.8z"/>
			<path class="st5" d="M508,132.8h3v0.9h-2.1l-0.1,0.8c0.2,0,0.4-0.1,0.6-0.1c1,0,1.7,0.5,1.7,1.6c0,1-0.7,1.7-1.9,1.7
				c-0.8,0-1.4-0.3-1.8-0.7l0.7-0.8c0.4,0.3,0.7,0.5,1.2,0.5c0.5,0,0.8-0.2,0.8-0.7c0-0.4-0.3-0.7-0.9-0.7c-0.3,0-0.6,0.1-0.8,0.2
				l-0.6-0.4L508,132.8z"/>
		</g>
	</g>
</g>
<g id="Final_x5F_2_color" class="st0">
	<g class="st1">
		<g>
			<path class="st6" d="M493.7,48L493.7,48c0.6,0,1.2,0,1.8,0C494.9,48,494.3,48,493.7,48z"/>
			<path class="st6" d="M493.7,119.7c0.6,0,1.2,0,1.8,0C494.9,119.7,494.3,119.7,493.7,119.7L493.7,119.7z"/>
			<path class="st4" d="M425.3,100.9c-0.2-0.1-0.4-0.2-0.6-0.3c-0.8-0.4-1.6-0.8-2.3-1.3c-0.2-0.1-0.3-0.3-0.5-0.4v3.6h10.9
				c-2.4,0-4.7-0.5-6.8-1.3C425.7,101.1,425.5,101,425.3,100.9z"/>
			<path class="st4" d="M424.7,67.1c0.2-0.1,0.4-0.2,0.6-0.3c0.2-0.1,0.4-0.2,0.6-0.3c2.1-0.8,4.4-1.3,6.8-1.3h-10.9v3.6
				c0.2-0.1,0.3-0.3,0.5-0.4C423.1,67.9,423.9,67.5,424.7,67.1z"/>
			<path class="st4" d="M454.1,97.5h-21.3c-7.5,0-13.6-6.1-13.6-13.6c0-7.5,6.1-13.6,13.6-13.6h21.3c0.6-1.7,1.3-3.4,2.1-5h-23.4h0
				c0,0,0,0,0,0c-2.4,0-4.7,0.5-6.8,1.3c-0.2,0.1-0.4,0.2-0.6,0.3c-0.2,0.1-0.4,0.2-0.6,0.3c-0.8,0.4-1.6,0.8-2.3,1.3
				c-0.2,0.1-0.3,0.3-0.5,0.4c-0.3,0.2-0.6,0.4-0.9,0.7c-1.4,1.1-2.6,2.5-3.6,4c-2,3-3.2,6.5-3.2,10.4v0c0,3.9,1.2,7.4,3.2,10.4
				c1,1.5,2.2,2.8,3.6,4c0.3,0.2,0.6,0.5,0.9,0.7c0.2,0.1,0.3,0.3,0.5,0.4c0.7,0.5,1.5,1,2.3,1.3c0.2,0.1,0.4,0.2,0.6,0.3
				c0.2,0.1,0.4,0.2,0.6,0.3c2.1,0.8,4.4,1.3,6.8,1.3c0,0,0,0,0,0h0h23.4c-0.4-0.8-0.7-1.5-1.1-2.3
				C454.7,99.3,454.4,98.4,454.1,97.5z"/>
			<path class="st4" d="M554.6,102.5h10.9v-3.6c-0.2,0.1-0.3,0.3-0.5,0.4C562,101.3,558.4,102.5,554.6,102.5z"/>
			<path class="st4" d="M565.5,68.8v-3.6h-10.9c3.9,0,7.4,1.2,10.4,3.2C565.1,68.6,565.3,68.7,565.5,68.8z"/>
			<path class="st4" d="M570,73.5c-0.7-1-1.4-1.9-2.3-2.8c-0.7-0.7-1.5-1.3-2.2-1.9c-0.2-0.1-0.3-0.3-0.5-0.4c-3-2-6.5-3.2-10.4-3.2
				c0,0,0,0,0,0h0h-23.4c0.4,0.8,0.7,1.5,1.1,2.3c0.4,0.9,0.7,1.8,1,2.7h21.3c7.5,0,13.6,6.1,13.6,13.6c0,7.5-6.1,13.6-13.6,13.6
				h-21.3c-0.3,0.9-0.6,1.8-1,2.7c-0.3,0.8-0.7,1.5-1.1,2.3h23.4h0c0,0,0,0,0,0c3.9,0,7.4-1.2,10.4-3.2c0.2-0.1,0.3-0.3,0.5-0.4
				c0.8-0.6,1.6-1.2,2.2-1.9c0.8-0.8,1.6-1.8,2.3-2.8c2-3,3.2-6.5,3.2-10.4v0C573.2,80,572,76.4,570,73.5z"/>
			<path class="st4" d="M525.2,66.8c-0.6-1-1.2-2-1.8-3c-1.6-2.4-3.5-4.6-5.6-6.5c-0.5-0.5-1.1-0.9-1.6-1.4
				c-1.1-0.9-2.3-1.7-3.5-2.5c-0.6-0.4-1.2-0.7-1.9-1.1c-3-1.7-6.4-2.9-9.9-3.6c-1.2-0.2-2.4-0.4-3.6-0.5c-0.6-0.1-1.2-0.1-1.8-0.1
				c-0.6,0-1.2,0-1.8,0c-19.8,0-35.9,16.1-35.9,35.9c0,5,1,9.7,2.8,14c0.2,0.5,0.5,1.1,0.7,1.6c0.8,1.6,1.6,3.1,2.6,4.5
				c0.3,0.5,0.7,0.9,1,1.4s0.7,0.9,1.1,1.4c0.8,1,1.7,1.9,2.6,2.8c1.8,1.8,3.9,3.4,6.1,4.8c1.1,0.7,2.2,1.3,3.4,1.9
				c4.7,2.3,10,3.5,15.5,3.5h0c0.6,0,1.2,0,1.8,0s1.2-0.1,1.8-0.1c1.2-0.1,2.4-0.3,3.6-0.5c3.5-0.7,6.8-1.9,9.9-3.6
				c0.6-0.3,1.3-0.7,1.9-1.1c1.2-0.8,2.4-1.6,3.5-2.5c0.6-0.5,1.1-0.9,1.6-1.4c2.1-1.9,4-4.1,5.6-6.5c0.6-1,1.2-1.9,1.8-3
				c0.6-1,1.1-2.1,1.5-3.1c1.8-4.3,2.8-9,2.8-14c0-5-1-9.7-2.8-14C526.2,68.8,525.7,67.8,525.2,66.8z M493.7,114.9v-10.1v-4.8h0
				V67.7h0v-4.8V52.8c17.1,0,31.1,13.9,31.1,31.1C524.7,101,510.8,114.9,493.7,114.9z"/>
			<path class="st5" d="M508,41.2c5.2-2.7,7.3-9.1,7.3-9.1s-6.4-2-11.6,0.7c-5.2,2.7-7.3,9.1-7.3,9.1s0.3,0.1,0.8,0.2
				c0.8,0.2,2.1,0.4,3.7,0.5C503.1,42.7,505.7,42.5,508,41.2z"/>
			<path class="st5" d="M498.5,31.2c0-5.9-4.7-10.7-4.7-10.7s-4.7,4.8-4.7,10.7c0,5.9,4.7,10.7,4.7,10.7S498.5,37.1,498.5,31.2z"/>
			<path class="st4" d="M493.7,65.3v4.8c7.6,0,13.8,6.2,13.8,13.8c0,7.6-6.2,13.8-13.8,13.8v4.8c10.3,0,18.6-8.3,18.6-18.6
				C512.3,73.6,503.9,65.3,493.7,65.3z"/>
		</g>
		<path class="st5" d="M435.9,74.9c-5.2,0-8.9,3.9-8.9,8.7v0c0,4.8,3.7,8.6,8.9,8.6c3.2,0,5.9-1.5,7.4-3.8c1-1.4,1.5-3.1,1.5-4.9v0
			c0-1.8-0.5-3.4-1.4-4.8C441.8,76.4,439.2,74.9,435.9,74.9z M441,83.6c0,2.9-2.1,5.2-5,5.2c-3,0-5.1-2.4-5.1-5.3v0
			c0-2.9,2.1-5.2,5-5.2S441,80.7,441,83.6L441,83.6z"/>
		<path class="st5" d="M559.8,83.6L559.8,83.6c0-4.8-3.6-8.4-8.9-8.4h-6.5V92h6.5C556.1,92,559.8,88.3,559.8,83.6z M548,78.5h2.8
			c3,0,5,2.1,5,5v0c0,3-2,5-5,5H548V78.5z"/>
		<g>
			<g>
				<path class="st4" d="M432.8,46c-1.4,2.2-4,2.7-6,1.5l0,0c-2-1.3-2.7-3.9-1.3-6s4-2.7,6-1.5l0,0C433.5,41.2,434.2,43.8,432.8,46z
					 M430.5,41.5c-1.2-0.8-2.8-0.5-3.6,0.8s-0.3,2.7,0.9,3.5l0,0c1.2,0.8,2.8,0.5,3.6-0.8C432.2,43.8,431.7,42.3,430.5,41.5
					L430.5,41.5z"/>
				<path class="st4" d="M450.3,26.5l-3.1-1l-1.1,0.9l1.7,2.1l-1.4,1.1l-5.2-6.5l3-2.4c1.5-1.2,3.1-1.1,4.2,0.2l0,0
					c0.8,1.1,0.8,2.2,0.2,3.1l3.4,1.1L450.3,26.5z M447,22.2c-0.5-0.6-1.2-0.6-1.9,0l-1.4,1.1l1.5,1.9l1.5-1.2
					C447.3,23.5,447.4,22.8,447,22.2L447,22.2z"/>
				<path class="st4" d="M466.7,17.2l-2.8-7.8l1.7-0.6l2.3,6.3l3.9-1.4l0.6,1.6L466.7,17.2z"/>
				<path class="st4" d="M495.1,12l-0.8-1.9l-3.5,0.1l-0.7,1.9l-1.9,0l3.4-8.5l1.7,0L497,12L495.1,12z M492.4,5.9l-1.1,2.7l2.2,0
					L492.4,5.9z"/>
				<path class="st4" d="M518.7,16.5l-2.1-6.3l-1.7,5l-1.7-0.6l2.7-7.9l1.6,0.5l2.1,6.1l1.6-4.9l1.7,0.6l-2.7,7.9L518.7,16.5z"/>
				<path class="st4" d="M537.9,27.3l-2.5-2l5.2-6.5l2.5,2c2.1,1.6,2.4,4.2,0.9,6l0,0C542.5,28.6,539.9,28.9,537.9,27.3z
					 M542.4,25.6c0.9-1.2,0.8-2.6-0.4-3.5l-1.1-0.9l-3.1,3.9l1.1,0.9C540.1,26.9,541.5,26.7,542.4,25.6L542.4,25.6z"/>
				<path class="st4" d="M554.6,46c-1.4-2.2-0.7-4.8,1.3-6l0,0c2-1.3,4.6-0.7,6,1.5c1.4,2.2,0.7,4.8-1.3,6l0,0
					C558.5,48.8,555.9,48.2,554.6,46z M559.5,45.9c1.2-0.8,1.7-2.3,0.9-3.5c-0.8-1.3-2.3-1.5-3.5-0.8l0,0c-1.2,0.8-1.7,2.3-0.9,3.5
					C556.8,46.4,558.3,46.7,559.5,45.9L559.5,45.9z"/>
			</g>
			<g>
				<path class="st4" d="M425.6,125.6l-1.7-2.8l7.1-4.4l1.7,2.8c1.4,2.2,0.8,4.7-1.2,5.9l0,0C429.5,128.4,427,127.8,425.6,125.6z
					 M430.5,125.5c1.3-0.8,1.6-2.2,0.8-3.5l-0.7-1.2l-4.3,2.7l0.7,1.2C427.8,126,429.2,126.3,430.5,125.5L430.5,125.5z"/>
				<path class="st4" d="M437,140.2l5.7-6.1l4.6,4.3l-1.1,1.2l-3.3-3l-1.2,1.2l2.9,2.7l-1.1,1.2l-2.9-2.7l-1.2,1.3l3.3,3.1l-1.1,1.2
					L437,140.2z"/>
				<path class="st4" d="M455.7,154.3c-1.1-0.6-2-1.6-2.5-2.9l1.6-0.6c0.4,0.9,0.9,1.6,1.7,2.1c0.7,0.4,1.2,0.3,1.4-0.1l0,0
					c0.2-0.4,0.1-0.8-1-1.7c-1.3-1.2-2-2.1-1.2-3.6l0,0c0.7-1.3,2.3-1.6,3.8-0.8c1.1,0.6,1.8,1.4,2.2,2.4l-1.5,0.8
					c-0.4-0.8-0.9-1.4-1.5-1.8c-0.6-0.3-1.1-0.2-1.3,0.1l0,0c-0.3,0.5,0,0.8,1.1,1.8c1.3,1.2,1.8,2.2,1.1,3.5l0,0
					C458.8,154.9,457.3,155.1,455.7,154.3z"/>
				<path class="st4" d="M471.5,160.6l2.2-8l1.8,0.5l-2.2,8L471.5,160.6z"/>
				<path class="st4" d="M491.5,163.8c-2.6-0.1-4.3-2-4.2-4.4l0,0c0.1-2.4,2-4.3,4.5-4.2c1.5,0,2.4,0.5,3.2,1.2l-1.2,1.4
					c-0.6-0.6-1.2-0.9-2.2-0.9c-1.3,0-2.4,1.1-2.5,2.5l0,0c0,1.5,1,2.7,2.4,2.7c0.7,0,1.3-0.1,1.7-0.4l0-1.2l-1.8-0.1l0-1.6l3.6,0.1
					l-0.1,3.6C494.2,163.3,493,163.9,491.5,163.8z"/>
				<path class="st4" d="M515.1,160.8l-5.2-4.2l1.3,5.1l-1.8,0.4l-2-8.1l1.6-0.4l5,4l-1.2-5l1.8-0.4l2,8.1L515.1,160.8z"/>
				<path class="st4" d="M530.2,154.9l-4.1-7.3l5.5-3.1l0.8,1.4l-3.9,2.2l0.8,1.5l3.4-1.9l0.8,1.4l-3.4,1.9l0.9,1.5l3.9-2.2l0.8,1.4
					L530.2,154.9z"/>
				<path class="st4" d="M550.7,139.7l-3.1-0.7l-1,1l1.9,1.9l-1.3,1.3l-5.8-6l2.7-2.7c1.4-1.4,3-1.5,4.2-0.2l0,0
					c0.9,1,1,2.1,0.5,3.1l3.5,0.7L550.7,139.7z M546.9,135.8c-0.5-0.6-1.2-0.5-1.9,0.2l-1.3,1.3l1.7,1.7l1.3-1.3
					C547.4,137,547.4,136.3,546.9,135.8L546.9,135.8z"/>
				<path class="st4" d="M562.4,124.8c-0.6,1.1-1.7,1.9-3,2.3l-0.6-1.6c0.9-0.3,1.7-0.8,2.1-1.6c0.4-0.6,0.4-1.2-0.1-1.4l0,0
					c-0.4-0.2-0.7-0.1-1.8,0.9c-1.2,1.2-2.2,1.9-3.6,1.1l0,0c-1.3-0.8-1.5-2.3-0.7-3.8c0.6-1,1.5-1.7,2.5-2.1l0.7,1.5
					c-0.8,0.4-1.5,0.8-1.8,1.4c-0.4,0.6-0.3,1.1,0.1,1.3l0,0c0.5,0.3,0.8,0.1,1.9-1c1.2-1.2,2.3-1.7,3.5-1l0,0
					C563.1,121.7,563.3,123.2,562.4,124.8z"/>
			</g>
			<g>
				<circle class="st6" cx="493.7" cy="83.9" r="79.8"/>
			</g>
		</g>
		<g>
			<path class="st5" d="M475.9,137.7v-4.9h3.7v1H477v1h2.3v1H477v1h2.7v1H475.9z"/>
			<path class="st5" d="M482.9,137.8c-0.7,0-1.5-0.3-2.1-0.8l0.6-0.8c0.4,0.4,0.9,0.6,1.5,0.6c0.4,0,0.7-0.2,0.7-0.5v0
				c0-0.3-0.2-0.4-1-0.6c-1-0.3-1.6-0.5-1.6-1.5v0c0-0.9,0.7-1.5,1.7-1.5c0.7,0,1.3,0.2,1.8,0.6l-0.6,0.8c-0.4-0.3-0.9-0.5-1.3-0.5
				s-0.6,0.2-0.6,0.4v0c0,0.3,0.2,0.4,1.1,0.6c1,0.3,1.6,0.6,1.6,1.5v0C484.7,137.2,484,137.8,482.9,137.8z"/>
			<path class="st5" d="M488.5,133.8v3.9h-1.1v-3.9h-1.5v-1h4.1v1H488.5z"/>
			<path class="st5" d="M494.3,134.4l-0.8-0.6c0.5-0.7,1-1,1.8-1c1,0,1.7,0.6,1.7,1.5c0,0.8-0.4,1.2-1.3,1.9l-0.8,0.6h2.1v0.9h-3.6
				v-0.9l1.6-1.3c0.6-0.5,0.8-0.8,0.8-1.2c0-0.4-0.3-0.6-0.7-0.6C494.9,133.7,494.7,133.9,494.3,134.4z"/>
			<path class="st5" d="M500.6,137.8c-1.3,0-2.2-1.1-2.2-2.5s0.9-2.5,2.2-2.5s2.2,1.1,2.2,2.5S501.9,137.8,500.6,137.8z
				 M500.6,133.7c-0.7,0-1.1,0.7-1.1,1.6s0.4,1.6,1.1,1.6s1.1-0.7,1.1-1.6S501.3,133.7,500.6,133.7z"/>
			<path class="st5" d="M505.2,132.8h0.7v4.9h-1.1v-3.8l-0.9,0.2l-0.2-0.9L505.2,132.8z"/>
			<path class="st5" d="M508,132.8h3v0.9h-2.1l-0.1,0.8c0.2,0,0.4-0.1,0.6-0.1c1,0,1.7,0.5,1.7,1.6c0,1-0.7,1.7-1.9,1.7
				c-0.8,0-1.4-0.3-1.8-0.7l0.7-0.8c0.4,0.3,0.7,0.5,1.2,0.5c0.5,0,0.8-0.2,0.8-0.7c0-0.4-0.3-0.7-0.9-0.7c-0.3,0-0.6,0.1-0.8,0.2
				l-0.6-0.4L508,132.8z"/>
		</g>
	</g>
</g>
<g id="Final_x5F_1_color" class="st0">
	<g class="st1">
		<path class="st4" d="M424.7,67.1c0.2-0.1,0.4-0.2,0.6-0.3c0.2-0.1,0.4-0.2,0.6-0.3c2.1-0.8,4.4-1.3,6.8-1.3h-10.9v3.6
			c0.2-0.1,0.3-0.3,0.5-0.4C423.1,67.9,423.9,67.5,424.7,67.1z"/>
		<path class="st4" d="M425.3,100.9c-0.2-0.1-0.4-0.2-0.6-0.3c-0.8-0.4-1.6-0.8-2.3-1.3c-0.2-0.1-0.3-0.3-0.5-0.4v3.6h10.9
			c-2.4,0-4.7-0.5-6.8-1.3C425.7,101.1,425.5,101,425.3,100.9z"/>
		<path class="st4" d="M454.1,97.5h-21.3c-7.5,0-13.6-6.1-13.6-13.6c0-7.5,6.1-13.6,13.6-13.6h21.3c0.6-1.7,1.3-3.4,2.1-5h-23.4h0
			c0,0,0,0,0,0c0,0,0,0,0,0c-2.4,0-4.7,0.5-6.8,1.3c-0.2,0.1-0.4,0.2-0.6,0.3c-0.2,0.1-0.4,0.2-0.6,0.3c-0.8,0.4-1.6,0.8-2.3,1.3
			c-0.2,0.1-0.3,0.3-0.5,0.4c-0.3,0.2-0.6,0.4-0.9,0.7c-1.4,1.1-2.6,2.5-3.6,4c-2,3-3.2,6.5-3.2,10.4v0c0,3.9,1.2,7.4,3.2,10.4
			c1,1.5,2.2,2.8,3.6,4c0.3,0.2,0.6,0.5,0.9,0.7c0.2,0.1,0.3,0.3,0.5,0.4c0.7,0.5,1.5,1,2.3,1.3c0.2,0.1,0.4,0.2,0.6,0.3
			c0.2,0.1,0.4,0.2,0.6,0.3c2.1,0.8,4.4,1.3,6.8,1.3c0,0,0,0,0,0c0,0,0,0,0,0h0h23.4c-0.4-0.8-0.7-1.5-1.1-2.3
			C454.7,99.3,454.4,98.4,454.1,97.5z"/>
		<path class="st4" d="M565.5,68.8v-3.6h-10.9c3.9,0,7.4,1.2,10.4,3.2C565.1,68.6,565.3,68.7,565.5,68.8z"/>
		<path class="st4" d="M554.6,102.5h10.9v-3.6c-0.2,0.1-0.3,0.3-0.5,0.4C562,101.3,558.4,102.5,554.6,102.5z"/>
		<path class="st4" d="M570,73.5c-0.7-1-1.4-1.9-2.3-2.8c-0.7-0.7-1.5-1.3-2.2-1.9c-0.2-0.1-0.3-0.3-0.5-0.4c-3-2-6.5-3.2-10.4-3.2
			c0,0,0,0,0,0h0h-23.4c0.4,0.8,0.7,1.5,1.1,2.3c0.4,0.9,0.7,1.8,1,2.7h21.3c7.5,0,13.6,6.1,13.6,13.6c0,7.5-6.1,13.6-13.6,13.6
			h-21.3c-0.3,0.9-0.6,1.8-1,2.7c-0.3,0.8-0.7,1.5-1.1,2.3h23.4h0c0,0,0,0,0,0c3.9,0,7.4-1.2,10.4-3.2c0.2-0.1,0.3-0.3,0.5-0.4
			c0.8-0.6,1.6-1.2,2.2-1.9c0.8-0.8,1.6-1.8,2.3-2.8c2-3,3.2-6.5,3.2-10.4v0C573.2,80,572,76.4,570,73.5z"/>
		<path class="st4" d="M427,83.6L427,83.6c0,4.8,3.7,8.7,8.9,8.7c3.2,0,5.9-1.5,7.4-3.8c1-1.4,1.5-3.1,1.5-4.9v0
			c0-1.8-0.5-3.4-1.4-4.8c-1.5-2.3-4.2-3.8-7.4-3.8C430.8,74.9,427,78.8,427,83.6z M430.9,83.5c0-2.9,2.1-5.2,5-5.2s5.1,2.4,5.1,5.3
			v0c0,2.9-2.1,5.2-5,5.2C433,88.9,430.9,86.5,430.9,83.5L430.9,83.5z"/>
		<path class="st4" d="M559.8,83.6L559.8,83.6c0-4.8-3.6-8.4-8.9-8.4h-6.5V92h6.5C556.1,92,559.8,88.3,559.8,83.6z M548,78.5h2.8
			c3,0,5,2.1,5,5v0c0,3-2,5-5,5H548V78.5z"/>
		<path class="st4" d="M525.2,66.8c-0.6-1-1.2-2-1.8-3c-1.6-2.4-3.5-4.6-5.6-6.5c-0.5-0.5-1.1-0.9-1.6-1.4c-1.1-0.9-2.3-1.7-3.5-2.5
			c-0.6-0.4-1.2-0.7-1.9-1.1c-3-1.7-6.4-2.9-9.9-3.6c-1.2-0.2-2.4-0.4-3.6-0.5c-0.6-0.1-1.2-0.1-1.8-0.1c-0.6,0-1.2,0-1.8,0
			c-19.8,0-35.9,16.1-35.9,35.9c0,5,1,9.7,2.8,14c0.2,0.5,0.5,1.1,0.7,1.6c0.8,1.6,1.6,3.1,2.6,4.5c0.3,0.5,0.7,0.9,1,1.4
			s0.7,0.9,1.1,1.4c0.8,1,1.7,1.9,2.6,2.8c1.8,1.8,3.9,3.4,6.1,4.8c1.1,0.7,2.2,1.3,3.4,1.9c4.7,2.3,10,3.5,15.5,3.5h0
			c0.6,0,1.2,0,1.8,0s1.2-0.1,1.8-0.1c1.2-0.1,2.4-0.3,3.6-0.5c3.5-0.7,6.8-1.9,9.9-3.6c0.6-0.3,1.3-0.7,1.9-1.1
			c1.2-0.8,2.4-1.6,3.5-2.5c0.6-0.5,1.1-0.9,1.6-1.4c2.1-1.9,4-4.1,5.6-6.5c0.6-1,1.2-1.9,1.8-3c0.6-1,1.1-2.1,1.5-3.1
			c1.8-4.3,2.8-9,2.8-14c0-5-1-9.7-2.8-14C526.2,68.8,525.7,67.8,525.2,66.8z M493.7,114.9v-10.1v-4.8h0V67.7h0v-4.8V52.8
			c17.1,0,31.1,13.9,31.1,31.1C524.7,101,510.8,114.9,493.7,114.9z"/>
		<path class="st4" d="M508,41.2c5.2-2.7,7.3-9.1,7.3-9.1s-6.4-2-11.6,0.7c-5.2,2.7-7.3,9.1-7.3,9.1s0.3,0.1,0.8,0.2
			c0.8,0.2,2.1,0.4,3.7,0.5C503.1,42.7,505.7,42.5,508,41.2z"/>
		<path class="st4" d="M489,31.2c0,5.9,4.7,10.7,4.7,10.7s4.7-4.8,4.7-10.7c0-5.9-4.7-10.7-4.7-10.7S489,25.3,489,31.2z"/>
		<path class="st4" d="M493.7,65.3V70c7.6,0,13.8,6.2,13.8,13.8c0,7.6-6.2,13.8-13.8,13.8v4.8c10.3,0,18.6-8.3,18.6-18.6
			C512.3,73.6,503.9,65.3,493.7,65.3z"/>
		<path class="st4" d="M426.8,47.4L426.8,47.4c2,1.3,4.6,0.7,6-1.5c1.4-2.2,0.7-4.8-1.3-6l0,0c-2-1.3-4.6-0.7-6,1.5
			S424.8,46.2,426.8,47.4z M426.9,42.3c0.8-1.3,2.3-1.5,3.6-0.8l0,0c1.2,0.8,1.7,2.2,0.9,3.5c-0.8,1.3-2.3,1.5-3.6,0.8l0,0
			C426.6,45,426.1,43.6,426.9,42.3z"/>
		<path class="st4" d="M447.8,28.5l-1.7-2.1l1.1-0.9l3.1,1l1.7-1.3l-3.4-1.1c0.6-1,0.6-2.1-0.2-3.1l0,0c-1.1-1.3-2.6-1.4-4.2-0.2
			l-3,2.4l5.2,6.5L447.8,28.5z M443.7,23.3l1.4-1.1c0.7-0.6,1.4-0.6,1.9,0l0,0c0.4,0.5,0.3,1.2-0.4,1.8l-1.5,1.2L443.7,23.3z"/>
		<polygon class="st4" points="472.3,15.2 471.7,13.6 467.8,15 465.6,8.8 463.8,9.4 466.7,17.2 		"/>
		<path class="st4" d="M490.7,10.2l3.5-0.1l0.8,1.9l1.9,0l-3.7-8.3l-1.7,0l-3.4,8.5l1.9,0L490.7,10.2z M492.4,5.9l1.2,2.7l-2.2,0
			L492.4,5.9z"/>
		<polygon class="st4" points="516.6,10.2 518.7,16.5 520.2,17 522.9,9.1 521.2,8.5 519.5,13.4 517.5,7.3 515.9,6.7 513.2,14.6 
			514.9,15.2 		"/>
		<path class="st4" d="M543.9,26.8L543.9,26.8c1.5-1.9,1.2-4.4-0.9-6l-2.5-2l-5.2,6.5l2.5,2C539.9,28.9,542.5,28.6,543.9,26.8z
			 M540.9,21.2L542,22c1.2,0.9,1.3,2.4,0.4,3.5l0,0c-0.9,1.2-2.3,1.3-3.5,0.4l-1.1-0.9L540.9,21.2z"/>
		<path class="st4" d="M560.6,47.5L560.6,47.5c2-1.3,2.7-3.8,1.3-6c-1.4-2.2-4-2.7-6-1.5l0,0c-2,1.3-2.7,3.8-1.3,6
			C555.9,48.2,558.5,48.8,560.6,47.5z M556.9,41.6L556.9,41.6c1.2-0.8,2.8-0.5,3.5,0.7c0.8,1.3,0.3,2.8-0.9,3.5l0,0
			c-1.2,0.8-2.7,0.5-3.5-0.8C555.2,43.9,555.7,42.4,556.9,41.6z"/>
		<path class="st4" d="M431,118.4l-7.1,4.4l1.7,2.8c1.4,2.2,3.9,2.8,5.9,1.6l0,0c2-1.2,2.6-3.7,1.2-5.9L431,118.4z M430.5,125.5
			L430.5,125.5c-1.3,0.8-2.7,0.5-3.5-0.8l-0.7-1.2l4.3-2.7l0.7,1.2C432.1,123.4,431.7,124.8,430.5,125.5z"/>
		<polygon class="st4" points="437,140.2 441.7,144.5 442.8,143.3 439.5,140.3 440.7,139 443.5,141.7 444.6,140.5 441.8,137.8 
			442.9,136.6 446.2,139.6 447.3,138.4 442.7,134.1 		"/>
		<path class="st4" d="M459.5,146.6c-1.5-0.8-3-0.5-3.8,0.8l0,0c-0.8,1.5-0.1,2.4,1.2,3.6c1.1,1,1.2,1.3,1,1.7l0,0
			c-0.2,0.4-0.8,0.5-1.4,0.1c-0.8-0.5-1.3-1.2-1.7-2.1l-1.6,0.6c0.5,1.3,1.4,2.3,2.5,2.9c1.6,0.9,3.1,0.6,3.9-0.8l0,0
			c0.7-1.3,0.1-2.3-1.1-3.5c-1.1-1-1.3-1.3-1.1-1.8l0,0c0.2-0.4,0.7-0.5,1.3-0.1c0.6,0.3,1.1,1,1.5,1.8l1.5-0.8
			C461.3,148,460.6,147.2,459.5,146.6z"/>
		
			<rect x="469.4" y="155.9" transform="matrix(0.2653 -0.9642 0.9642 0.2653 196.7086 571.7855)" class="st4" width="8.3" height="1.8"/>
		<path class="st4" d="M491.6,160.5l1.8,0.1l0,1.2c-0.5,0.3-1.1,0.5-1.7,0.4c-1.5,0-2.5-1.2-2.4-2.7l0,0c0-1.4,1.1-2.6,2.5-2.5
			c1,0,1.5,0.4,2.2,0.9l1.2-1.4c-0.8-0.8-1.7-1.2-3.2-1.2c-2.5-0.1-4.4,1.8-4.5,4.2l0,0c-0.1,2.5,1.7,4.3,4.2,4.4
			c1.5,0,2.7-0.5,3.6-1.2l0.1-3.6l-3.6-0.1L491.6,160.5z"/>
		<polygon class="st4" points="512.9,152.8 514.1,157.7 509.1,153.7 507.5,154.1 509.5,162.2 511.2,161.8 509.9,156.6 515.1,160.8 
			516.7,160.4 514.6,152.3 		"/>
		<polygon class="st4" points="531,152.6 530.1,151.1 533.5,149.2 532.7,147.7 529.3,149.7 528.5,148.2 532.4,146 531.6,144.6 
			526.1,147.7 530.2,154.9 535.7,151.8 534.9,150.4 		"/>
		<path class="st4" d="M548.2,134.4L548.2,134.4c-1.2-1.2-2.8-1.2-4.2,0.2l-2.7,2.7l5.8,6l1.3-1.3l-1.9-1.9l1-1l3.1,0.7l1.5-1.5
			l-3.5-0.7C549.2,136.5,549.1,135.4,548.2,134.4z M546.7,137.6l-1.3,1.3l-1.7-1.7l1.3-1.3c0.6-0.6,1.3-0.7,1.9-0.2l0,0
			C547.4,136.3,547.4,137,546.7,137.6z"/>
		<path class="st4" d="M561.7,120.8L561.7,120.8c-1.3-0.8-2.3-0.3-3.5,1c-1.1,1-1.4,1.3-1.9,1l0,0c-0.3-0.2-0.4-0.7-0.1-1.3
			c0.4-0.6,1-1.1,1.8-1.4l-0.7-1.5c-1,0.4-1.9,1.1-2.5,2.1c-0.9,1.5-0.6,3,0.7,3.8l0,0c1.4,0.9,2.4,0.2,3.6-1.1c1-1,1.4-1.1,1.8-0.9
			l0,0c0.4,0.3,0.4,0.8,0.1,1.4c-0.5,0.8-1.2,1.3-2.1,1.6l0.6,1.6c1.3-0.4,2.3-1.3,3-2.3C563.3,123.2,563.1,121.7,561.7,120.8z"/>
		<polygon class="st4" points="477,135.7 479.3,135.7 479.3,134.8 477,134.8 477,133.8 479.6,133.8 479.6,132.8 475.9,132.8 
			475.9,137.7 479.6,137.7 479.6,136.8 477,136.8 		"/>
		<path class="st4" d="M483.2,134.8c-0.8-0.2-1.1-0.3-1.1-0.6v0c0-0.2,0.2-0.4,0.6-0.4s0.8,0.2,1.3,0.5l0.6-0.8
			c-0.5-0.4-1.1-0.6-1.8-0.6c-1,0-1.7,0.6-1.7,1.5v0c0,1,0.6,1.2,1.6,1.5c0.8,0.2,1,0.4,1,0.6v0c0,0.3-0.3,0.5-0.7,0.5
			c-0.6,0-1-0.2-1.5-0.6l-0.6,0.8c0.6,0.5,1.3,0.8,2.1,0.8c1.1,0,1.8-0.5,1.8-1.5v0C484.7,135.4,484.2,135,483.2,134.8z"/>
		<polygon class="st4" points="488.5,137.7 488.5,133.8 490,133.8 490,132.8 485.9,132.8 485.9,133.8 487.4,133.8 487.4,137.7 		"/>
		<path class="st4" d="M495.8,136.2c0.9-0.7,1.3-1.1,1.3-1.9c0-0.9-0.6-1.5-1.7-1.5c-0.9,0-1.3,0.4-1.8,1l0.8,0.6
			c0.4-0.4,0.6-0.7,1-0.7c0.4,0,0.7,0.2,0.7,0.6c0,0.4-0.2,0.7-0.8,1.2l-1.6,1.3v0.9h3.6v-0.9H495L495.8,136.2z"/>
		<path class="st4" d="M500.6,132.7c-1.3,0-2.2,1.1-2.2,2.5s0.9,2.5,2.2,2.5c1.3,0,2.2-1.1,2.2-2.5S501.9,132.7,500.6,132.7z
			 M500.6,136.8c-0.7,0-1.1-0.7-1.1-1.6s0.4-1.6,1.1-1.6s1.1,0.7,1.1,1.6S501.3,136.8,500.6,136.8z"/>
		<polygon class="st4" points="503.8,133.2 504.1,134.1 504.9,133.9 504.9,137.7 506,137.7 506,132.8 505.2,132.8 		"/>
		<path class="st4" d="M509.3,136.8c-0.4,0-0.8-0.2-1.2-0.5l-0.7,0.8c0.5,0.5,1.1,0.7,1.8,0.7c1.1,0,1.9-0.7,1.9-1.7
			c0-1.1-0.7-1.6-1.7-1.6c-0.3,0-0.4,0-0.6,0.1l0.1-0.8h2.1v-0.9h-3l-0.1,2.4l0.6,0.4c0.2-0.1,0.5-0.2,0.8-0.2
			c0.5,0,0.9,0.2,0.9,0.7C510.1,136.6,509.8,136.8,509.3,136.8z"/>
	</g>
</g>
<g id="Final_x5F_reverse">
	<rect x="349.8" y="164.6" class="st4" width="281" height="281"/>
	<rect x="-20.6" y="164.6" class="st4" width="281" height="281"/>
	<g>
		<path class="st3" d="M405.1,111C405.1,111,405.1,111,405.1,111L405.1,111L405.1,111l34.1,0c-0.5-1.1-1.1-2.2-1.6-3.3
			c-0.5-1.3-1-2.6-1.5-3.9h-31c-10.9,0-19.8-8.9-19.8-19.8c0-10.9,8.9-19.8,19.8-19.8h31c0.9-2.5,1.9-4.9,3-7.3h-34.1h0h0
			c0,0,0,0,0,0h-15.8v5.2c-0.5,0.3-0.9,0.6-1.3,1c-2,1.7-3.8,3.6-5.2,5.7c-2.9,4.3-4.6,9.5-4.6,15.1v0c0,5.6,1.7,10.8,4.6,15.1
			c1.5,2.2,3.2,4.1,5.2,5.7c0.4,0.4,0.9,0.7,1.3,1v5.2H405.1z"/>
		<path class="st3" d="M604.6,68.8c-1-1.4-2.1-2.8-3.3-4c-1-1-2.1-1.9-3.3-2.7v-5.2h-15.9c0,0,0,0,0,0h0h-34
			c0.5,1.1,1.1,2.2,1.6,3.3c0.5,1.3,1,2.6,1.5,3.9h31c10.9,0,19.8,8.9,19.8,19.8c0,10.9-8.9,19.8-19.8,19.8h-31
			c-0.5,1.3-0.9,2.6-1.5,3.9c-0.5,1.1-1,2.2-1.6,3.3h34h0c0,0,0,0,0,0h15.9v-5.2c1.2-0.8,2.3-1.7,3.3-2.7c1.2-1.2,2.3-2.6,3.3-4
			c2.9-4.3,4.6-9.5,4.6-15.1v0C609.3,78.3,607.6,73.1,604.6,68.8z"/>
		<path class="st3" d="M409.7,70.9c-7.5,0-13,5.7-13,12.6v0.1c0,6.9,5.4,12.5,12.9,12.5c4.7,0,8.5-2.2,10.8-5.5
			c1.4-2,2.2-4.5,2.2-7.1v-0.1c0-2.6-0.8-5-2.1-7C418.3,73.1,414.4,70.9,409.7,70.9z M417,83.6c0,4.2-3,7.6-7.3,7.6
			c-4.3,0-7.4-3.5-7.4-7.7v-0.1c0-4.2,3-7.6,7.3-7.6S417,79.3,417,83.6L417,83.6z"/>
		<path class="st3" d="M589.8,83.5L589.8,83.5c0-6.9-5.3-12.2-12.9-12.2h-9.5v24.4h9.5C584.5,95.7,589.8,90.4,589.8,83.5z
			 M584.2,83.6c0,4.3-3,7.3-7.3,7.3h-4.1V76.2h4.1C581.2,76.2,584.2,79.2,584.2,83.6L584.2,83.6z"/>
		<path class="st3" d="M545.8,83.9c0-7.2-1.5-14.1-4.1-20.3c-0.7-1.6-1.4-3.1-2.2-4.6c-0.8-1.5-1.7-2.9-2.6-4.3
			c-2.3-3.5-5.1-6.6-8.2-9.4c-0.8-0.7-1.6-1.4-2.4-2c-1.6-1.3-3.3-2.5-5.1-3.6c-0.9-0.6-1.8-1.1-2.7-1.6c-4.4-2.4-9.3-4.2-14.3-5.2
			c-1.7-0.3-3.4-0.6-5.2-0.8c-0.9-0.1-1.8-0.2-2.6-0.2c-0.9,0-1.8-0.1-2.7-0.1c-28.8,0-52.1,23.3-52.1,52.1c0,7.2,1.5,14.1,4.1,20.3
			c0.3,0.8,0.7,1.5,1,2.3c1.1,2.3,2.4,4.5,3.8,6.5c0.5,0.7,1,1.4,1.5,2s1,1.3,1.5,2c1.2,1.4,2.5,2.8,3.8,4.1c2.7,2.6,5.7,5,8.9,7
			c1.6,1,3.3,1.9,5,2.7c6.8,3.3,14.5,5.1,22.6,5.1h0c0.9,0,1.8,0,2.7-0.1c0.9,0,1.8-0.1,2.6-0.2c1.8-0.2,3.5-0.4,5.2-0.8
			c5.1-1,9.9-2.8,14.3-5.2c0.9-0.5,1.8-1,2.7-1.6c1.8-1.1,3.5-2.3,5.1-3.6c0.8-0.7,1.6-1.3,2.4-2c3.1-2.8,5.8-6,8.2-9.4
			c0.9-1.4,1.8-2.8,2.6-4.3c0.8-1.5,1.5-3,2.2-4.6C544.3,98,545.8,91.1,545.8,83.9z M493.7,129.1v-14.7v-7h0V60.4h0v-7V38.7
			c24.9,0,45.2,20.3,45.2,45.2C538.8,108.8,518.6,129.1,493.7,129.1z"/>
		<path class="st3" d="M498.8,23.3c1.2,0.3,3.1,0.6,5.4,0.7c3.1,0.1,6.9-0.3,10.3-2c7.6-3.9,10.6-13.2,10.6-13.2s-9.3-2.9-16.9,1
			c-7.6,3.9-10.6,13.2-10.6,13.2S498.1,23.1,498.8,23.3z"/>
		<path class="st3" d="M486.9,7.4c0,8.6,6.9,15.5,6.9,15.5s6.9-6.9,6.9-15.5c0-8.6-6.9-15.5-6.9-15.5S486.9-1.2,486.9,7.4z"/>
		<path class="st3" d="M493.7,56.9v7c11.1,0,20.1,9,20.1,20.1c0,11.1-9,20.1-20.1,20.1v7c14.9,0,27-12.1,27-27
			C520.7,69,508.6,56.9,493.7,56.9z"/>
		<path class="st3" d="M396.5,31L396.5,31c3,1.8,6.7,1,8.7-2.1c2-3.2,1-7-1.9-8.8l0,0c-2.9-1.8-6.7-1-8.7,2.1S393.5,29.1,396.5,31z
			 M396.6,23.5c1.1-1.8,3.4-2.2,5.2-1.1l0,0c1.8,1.1,2.4,3.3,1.3,5.1c-1.1,1.8-3.4,2.2-5.2,1.1l0,0
			C396.2,27.5,395.5,25.3,396.6,23.5z"/>
		<path class="st3" d="M427,3.5l-2.4-3l1.6-1.3l4.4,1.4l2.4-1.9l-5-1.5c0.8-1.4,0.9-3-0.3-4.6l0,0c-1.6-1.9-3.8-2.1-6.1-0.3
			l-4.3,3.4l7.5,9.5L427,3.5z M421-4.1l2.1-1.6c1-0.8,2-0.8,2.7,0l0,0c0.6,0.8,0.5,1.8-0.5,2.6l-2.1,1.7L421-4.1z"/>
		<polygon class="st3" points="462.6,-15.9 461.8,-18.2 456.1,-16.1 452.8,-25.2 450.3,-24.3 454.4,-12.9 		"/>
		<path class="st3" d="M489.4-23.1l5.1-0.1l1.2,2.7l2.8,0l-5.4-12.1l-2.5,0l-5,12.3l2.7,0L489.4-23.1z M491.9-29.5l1.7,3.9l-3.2,0.1
			L491.9-29.5z"/>
		<polygon class="st3" points="527,-23.2 530.1,-14 532.2,-13.3 536.1,-24.7 533.6,-25.6 531.2,-18.5 528.3,-27.4 525.9,-28.2 
			522.1,-16.7 524.5,-15.9 		"/>
		<path class="st3" d="M566.8,0.9L566.8,0.9c2.1-2.7,1.7-6.4-1.3-8.7l-3.7-2.9l-7.5,9.5l3.7,2.9C560.9,4,564.7,3.6,566.8,0.9z
			 M562.4-7.2l1.6,1.3c1.7,1.4,1.9,3.4,0.6,5.1l0,0c-1.3,1.7-3.4,1.9-5.1,0.6l-1.6-1.3L562.4-7.2z"/>
		<path class="st3" d="M590.9,31.1L590.9,31.1c3-1.8,3.9-5.6,1.9-8.8c-2-3.2-5.8-4-8.7-2.2l0,0c-2.9,1.8-3.9,5.6-1.9,8.7
			C584.2,32.1,588,32.9,590.9,31.1z M585.6,22.5L585.6,22.5c1.8-1.1,4-0.7,5.1,1.1c1.1,1.8,0.5,4-1.3,5.1l0,0
			c-1.8,1.1-4,0.7-5.1-1.1C583.2,25.9,583.8,23.6,585.6,22.5z"/>
		<path class="st3" d="M402.5,134.2l-10.3,6.4l2.5,4c2,3.2,5.6,4.1,8.5,2.3l0,0c2.9-1.8,3.7-5.4,1.7-8.6L402.5,134.2z M401.8,144.5
			L401.8,144.5c-1.8,1.2-3.9,0.7-5-1.2l-1.1-1.7l6.2-3.9l1.1,1.7C404.1,141.3,403.6,143.4,401.8,144.5z"/>
		<polygon class="st3" points="411.3,165.8 418.1,172.1 419.7,170.4 414.9,165.9 416.6,164.1 420.8,168 422.4,166.2 418.2,162.3 
			419.9,160.5 424.7,165 426.3,163.2 419.6,157 		"/>
		<path class="st3" d="M444.1,175.1c-2.2-1.2-4.4-0.7-5.5,1.2l0,0c-1.1,2.1-0.1,3.5,1.8,5.2c1.5,1.4,1.7,1.9,1.4,2.5l0,0
			c-0.3,0.6-1.1,0.7-2.1,0.2c-1.2-0.7-1.9-1.7-2.5-3l-2.3,0.9c0.7,1.8,2,3.3,3.6,4.2c2.3,1.2,4.5,0.9,5.7-1.2l0,0
			c1-1.9,0.2-3.3-1.6-5c-1.6-1.5-1.9-1.9-1.5-2.6l0,0c0.3-0.5,1-0.7,1.9-0.2c0.9,0.5,1.6,1.4,2.2,2.5l2.2-1.1
			C446.7,177.2,445.6,176,444.1,175.1z"/>
		
			<rect x="458.3" y="188.7" transform="matrix(0.2653 -0.9642 0.9642 0.2653 158.0143 587.3499)" class="st3" width="12.1" height="2.7"/>
		<path class="st3" d="M490.6,195.3l2.7,0.1l-0.1,1.7c-0.7,0.5-1.6,0.7-2.5,0.7c-2.1-0.1-3.6-1.7-3.6-4l0,0c0.1-2.1,1.7-3.7,3.6-3.7
			c1.4,0,2.2,0.5,3.1,1.3l1.7-2c-1.2-1.1-2.5-1.7-4.7-1.8c-3.7-0.1-6.4,2.6-6.5,6.1l0,0c-0.1,3.6,2.4,6.3,6.2,6.4
			c2.2,0.1,4-0.7,5.2-1.8l0.2-5.3l-5.3-0.2L490.6,195.3z"/>
		<polygon class="st3" points="521.6,184.1 523.4,191.3 516.1,185.5 513.7,186.1 516.7,197.8 519.2,197.2 517.3,189.7 524.9,195.8 
			527.1,195.2 524.2,183.5 		"/>
		<polygon class="st3" points="547.9,183.9 546.7,181.7 551.6,178.9 550.5,176.8 545.5,179.6 544.3,177.5 549.9,174.3 548.8,172.2 
			540.8,176.7 546.8,187.2 554.8,182.7 553.6,180.6 		"/>
		<path class="st3" d="M572.9,157.4L572.9,157.4c-1.8-1.8-4-1.7-6.1,0.3l-4,3.9l8.5,8.7l1.9-1.9l-2.7-2.8l1.5-1.5l4.6,1l2.2-2.2
			l-5.1-1C574.4,160.4,574.3,158.8,572.9,157.4z M570.8,162.1l-1.9,1.9l-2.4-2.5l1.9-1.8c0.9-0.9,1.9-1,2.7-0.2l0,0
			C571.8,160.1,571.8,161.2,570.8,162.1z"/>
		<path class="st3" d="M592.6,137.7L592.6,137.7c-1.8-1.1-3.3-0.4-5.1,1.4c-1.5,1.5-2,1.8-2.7,1.4l0,0c-0.5-0.3-0.6-1-0.1-1.9
			c0.5-0.9,1.5-1.5,2.6-2.1l-1-2.2c-1.5,0.5-2.7,1.6-3.6,3.1c-1.3,2.1-0.9,4.4,1,5.5l0,0c2.1,1.2,3.5,0.2,5.2-1.5
			c1.5-1.5,2-1.6,2.6-1.3l0,0c0.6,0.4,0.6,1.2,0.1,2.1c-0.7,1.2-1.8,1.9-3.1,2.3l0.8,2.3c1.9-0.6,3.4-1.8,4.3-3.4
			C594.9,141.2,594.7,138.9,592.6,137.7z"/>
		<polygon class="st3" points="469.4,159.3 472.7,159.3 472.7,157.9 469.4,157.9 469.4,156.5 473.2,156.5 473.2,155.1 467.8,155.1 
			467.8,162.2 473.3,162.2 473.3,160.8 469.4,160.8 		"/>
		<path class="st3" d="M478.4,158c-1.2-0.3-1.5-0.5-1.5-0.9v0c0-0.3,0.3-0.6,0.9-0.6c0.6,0,1.2,0.3,1.9,0.7l0.8-1.2
			c-0.7-0.6-1.6-0.9-2.6-0.9c-1.5,0-2.5,0.9-2.5,2.1v0c0,1.4,0.9,1.8,2.4,2.2c1.2,0.3,1.4,0.5,1.4,0.9v0c0,0.4-0.4,0.7-1,0.7
			c-0.8,0-1.5-0.3-2.1-0.9l-0.9,1.1c0.9,0.8,1.9,1.1,3,1.1c1.5,0,2.6-0.8,2.6-2.2v0C480.7,158.8,479.9,158.3,478.4,158z"/>
		<polygon class="st3" points="486.1,162.2 486.1,156.5 488.3,156.5 488.3,155.1 482.4,155.1 482.4,156.5 484.6,156.5 484.6,162.2 
					"/>
		<path class="st3" d="M496.7,160c1.3-1,1.9-1.6,1.9-2.8c0-1.3-0.9-2.2-2.5-2.2c-1.3,0-2,0.5-2.7,1.5l1.1,0.9c0.5-0.7,0.9-1,1.5-1
			c0.6,0,1,0.3,1,0.9c0,0.6-0.3,1-1.2,1.7l-2.4,1.9v1.2h5.3v-1.4h-3.1L496.7,160z"/>
		<path class="st3" d="M503.8,155c-1.9,0-3.2,1.6-3.2,3.7s1.3,3.7,3.2,3.7c1.9,0,3.2-1.6,3.2-3.7S505.7,155,503.8,155z M503.8,160.9
			c-0.9,0-1.6-1-1.6-2.3c0-1.3,0.6-2.3,1.5-2.3c0.9,0,1.6,1,1.6,2.3S504.8,160.9,503.8,160.9z"/>
		<polygon class="st3" points="508.4,155.7 508.8,156.9 510,156.6 510,162.2 511.6,162.2 511.6,155 510.5,155 		"/>
		<path class="st3" d="M516.4,160.9c-0.6,0-1.2-0.3-1.7-0.8l-0.9,1.1c0.7,0.7,1.5,1.1,2.7,1.1c1.6,0,2.7-1,2.7-2.5
			c0-1.6-1.1-2.3-2.5-2.3c-0.4,0-0.7,0-0.9,0.1l0.1-1.2h3v-1.4h-4.4l-0.2,3.5l0.9,0.6c0.3-0.1,0.7-0.3,1.2-0.3c0.8,0,1.3,0.4,1.3,1
			C517.6,160.6,517.1,160.9,516.4,160.9z"/>
	</g>
	<g>
		<path class="st7" d="M1164.5,54.5c-2.8-5.2-5.9-10.2-9.2-15.1c-8.2-12.2-17.9-23.3-28.7-33.1c-2.7-2.5-5.5-4.8-8.3-7.1
			c-5.7-4.6-11.7-8.8-17.9-12.7c-3.1-1.9-6.3-3.8-9.5-5.6c-15.5-8.4-32.5-14.7-50.3-18.4c-6-1.2-12-2.1-18.2-2.8
			c-3.1-0.3-6.2-0.5-9.3-0.7c-3.1-0.2-6.3-0.2-9.4-0.2c-101,0-182.9,81.9-182.9,182.9c0,25.3,5.1,49.3,14.4,71.2
			c1.2,2.7,2.4,5.4,3.7,8.1c3.9,8,8.3,15.7,13.2,23c1.6,2.4,3.3,4.8,5.1,7.2c1.8,2.3,3.6,4.7,5.4,6.9c4.2,5.1,8.7,9.9,13.4,14.5
			c9.4,9.2,19.8,17.4,31,24.4c5.6,3.5,11.4,6.7,17.4,9.6c24,11.6,50.9,18,79.3,18h0c3.2,0,6.3-0.1,9.4-0.2s6.2-0.4,9.3-0.7
			c6.1-0.6,12.2-1.6,18.2-2.8c17.9-3.7,34.8-9.9,50.3-18.4c3.2-1.8,6.4-3.6,9.5-5.6c6.2-3.9,12.2-8.1,17.9-12.7
			c2.9-2.3,5.6-4.7,8.3-7.1c10.8-9.8,20.5-21,28.7-33.1c3.3-4.9,6.3-9.9,9.2-15.1c2.8-5.2,5.4-10.5,7.7-16
			c9.3-21.9,14.4-45.9,14.4-71.2c0-25.3-5.1-49.3-14.4-71.2C1169.9,65,1167.3,59.7,1164.5,54.5z M1003.7,300.2v-51.4v-24.4h0V59h0
			V34.6v-51.4c87.4,0,158.5,71.1,158.5,158.5C1162.2,229.1,1091.1,300.2,1003.7,300.2z"/>
		<path class="st7" d="M1076.9-75.7c26.7-13.8,37.2-46.4,37.2-46.4s-32.7-10.2-59.4,3.6c-26.7,13.8-37.2,46.4-37.2,46.4
			s1.6,0.5,4.3,1.1c4.1,0.9,10.9,2.2,18.9,2.5C1051.6-68.1,1064.8-69.4,1076.9-75.7z"/>
		<path class="st7" d="M979.9-126.7c0,30,24.1,54.4,24.1,54.4s24.1-24.3,24.1-54.4c0-30-24.1-54.4-24.1-54.4
			S979.9-156.8,979.9-126.7z"/>
		<path class="st7" d="M1003.7,46.8v24.4c38.9,0,70.5,31.6,70.5,70.5c0,38.9-31.6,70.5-70.5,70.5v24.4c52.3,0,94.9-42.6,94.9-94.8
			C1098.5,89.4,1056,46.8,1003.7,46.8z"/>
	</g>
	<g>
		<path class="st7" d="M1490.4-64.8c-1.4-2.6-2.9-5.1-4.5-7.5c-4.1-6-8.9-11.6-14.2-16.4c-1.3-1.2-2.7-2.4-4.1-3.5
			c-2.8-2.3-5.8-4.4-8.9-6.3c-1.5-1-3.1-1.9-4.7-2.8c-7.7-4.2-16.1-7.3-25-9.1c-3-0.6-6-1.1-9-1.4c-1.5-0.2-3.1-0.3-4.6-0.4
			c-1.5-0.1-3.1-0.1-4.7-0.1c-50.1,0-90.8,40.6-90.8,90.8c0,12.5,2.5,24.5,7.1,35.3c0.6,1.4,1.2,2.7,1.8,4c1.9,4,4.1,7.8,6.6,11.4
			c0.8,1.2,1.7,2.4,2.5,3.6c0.9,1.2,1.8,2.3,2.7,3.4c2.1,2.5,4.3,4.9,6.6,7.2c4.7,4.6,9.8,8.6,15.4,12.1c2.8,1.7,5.7,3.3,8.6,4.8
			c11.9,5.7,25.3,9,39.4,9h0c1.6,0,3.1,0,4.7-0.1c1.5-0.1,3.1-0.2,4.6-0.4c3.1-0.3,6.1-0.8,9-1.4c8.9-1.8,17.3-4.9,25-9.1
			c1.6-0.9,3.2-1.8,4.7-2.8c3.1-1.9,6.1-4,8.9-6.3c1.4-1.1,2.8-2.3,4.1-3.5c5.4-4.9,10.2-10.4,14.2-16.4c1.6-2.4,3.1-4.9,4.5-7.5
			c1.4-2.6,2.7-5.2,3.8-7.9c4.6-10.9,7.1-22.8,7.1-35.3c0-12.5-2.5-24.5-7.1-35.3C1493.1-59.6,1491.8-62.2,1490.4-64.8z
			 M1410.6,57.1V31.6V19.5h0v-82.1h0v-12.1v-25.5c43.4,0,78.7,35.3,78.7,78.7C1489.2,21.8,1453.9,57.1,1410.6,57.1z"/>
		<path class="st7" d="M1446.9-129.4c13.2-6.9,18.5-23,18.5-23s-16.2-5.1-29.5,1.8c-13.2,6.9-18.5,23-18.5,23s0.8,0.2,2.1,0.5
			c2,0.5,5.4,1.1,9.4,1.2C1434.4-125.7,1440.9-126.3,1446.9-129.4z"/>
		<path class="st7" d="M1398.8-154.8c0,14.9,12,27,12,27s12-12.1,12-27c0-14.9-12-27-12-27S1398.8-169.7,1398.8-154.8z"/>
		<path class="st7" d="M1410.6-68.6v12.1c19.3,0,35,15.7,35,35c0,19.3-15.7,35-35,35v12.1c26,0,47.1-21.1,47.1-47.1
			C1457.6-47.5,1436.5-68.6,1410.6-68.6z"/>
	</g>
	<g>
		<path class="st7" d="M1365.7,96.6c-0.2-0.3-0.4-0.6-0.6-0.9c-0.5-0.8-1.1-1.4-1.8-2.1c-0.2-0.2-0.3-0.3-0.5-0.4
			c-0.4-0.3-0.7-0.5-1.1-0.8c-0.2-0.1-0.4-0.2-0.6-0.3c-1-0.5-2-0.9-3.1-1.1c-0.4-0.1-0.7-0.1-1.1-0.2c-0.2,0-0.4,0-0.6,0
			c-0.2,0-0.4,0-0.6,0c-6.3,0-11.3,5.1-11.3,11.3c0,1.6,0.3,3.1,0.9,4.4c0.1,0.2,0.1,0.3,0.2,0.5c0.2,0.5,0.5,1,0.8,1.4
			c0.1,0.2,0.2,0.3,0.3,0.4c0.1,0.1,0.2,0.3,0.3,0.4c0.3,0.3,0.5,0.6,0.8,0.9c0.6,0.6,1.2,1.1,1.9,1.5c0.3,0.2,0.7,0.4,1.1,0.6
			c1.5,0.7,3.2,1.1,4.9,1.1h0c0.2,0,0.4,0,0.6,0c0.2,0,0.4,0,0.6,0c0.4,0,0.8-0.1,1.1-0.2c1.1-0.2,2.2-0.6,3.1-1.1
			c0.2-0.1,0.4-0.2,0.6-0.3c0.4-0.2,0.8-0.5,1.1-0.8c0.2-0.1,0.3-0.3,0.5-0.4c0.7-0.6,1.3-1.3,1.8-2.1c0.2-0.3,0.4-0.6,0.6-0.9
			c0.2-0.3,0.3-0.7,0.5-1c0.6-1.4,0.9-2.8,0.9-4.4c0-1.6-0.3-3.1-0.9-4.4C1366.1,97.3,1365.9,97,1365.7,96.6z M1355.8,111.9v-3.2
			v-1.5h0V96.9h0v-1.5v-3.2c5.4,0,9.8,4.4,9.8,9.8C1365.6,107.5,1361.2,111.9,1355.8,111.9z"/>
		<path class="st7" d="M1360.3,88.6c1.7-0.9,2.3-2.9,2.3-2.9s-2-0.6-3.7,0.2c-1.7,0.9-2.3,2.9-2.3,2.9s0.1,0,0.3,0.1
			c0.3,0.1,0.7,0.1,1.2,0.2C1358.7,89,1359.6,88.9,1360.3,88.6z"/>
		<path class="st7" d="M1354.3,85.4c0,1.9,1.5,3.4,1.5,3.4s1.5-1.5,1.5-3.4c0-1.9-1.5-3.4-1.5-3.4S1354.3,83.5,1354.3,85.4z"/>
		<path class="st7" d="M1355.8,96.2v1.5c2.4,0,4.4,2,4.4,4.4c0,2.4-2,4.4-4.4,4.4v1.5c3.2,0,5.9-2.6,5.9-5.9
			C1361.6,98.8,1359,96.2,1355.8,96.2z"/>
	</g>
	<g>
		<path class="st7" d="M1399.7,96.9c-0.1-0.2-0.3-0.5-0.4-0.7c-0.4-0.6-0.8-1.1-1.3-1.5c-0.1-0.1-0.2-0.2-0.4-0.3
			c-0.3-0.2-0.5-0.4-0.8-0.6c-0.1-0.1-0.3-0.2-0.4-0.3c-0.7-0.4-1.5-0.7-2.3-0.8c-0.3-0.1-0.5-0.1-0.8-0.1c-0.1,0-0.3,0-0.4,0
			c-0.1,0-0.3,0-0.4,0c-4.6,0-8.3,3.7-8.3,8.3c0,1.1,0.2,2.2,0.7,3.2c0.1,0.1,0.1,0.2,0.2,0.4c0.2,0.4,0.4,0.7,0.6,1
			c0.1,0.1,0.2,0.2,0.2,0.3c0.1,0.1,0.2,0.2,0.2,0.3c0.2,0.2,0.4,0.5,0.6,0.7c0.4,0.4,0.9,0.8,1.4,1.1c0.3,0.2,0.5,0.3,0.8,0.4
			c1.1,0.5,2.3,0.8,3.6,0.8h0c0.1,0,0.3,0,0.4,0c0.1,0,0.3,0,0.4,0c0.3,0,0.6-0.1,0.8-0.1c0.8-0.2,1.6-0.5,2.3-0.8
			c0.1-0.1,0.3-0.2,0.4-0.3c0.3-0.2,0.6-0.4,0.8-0.6c0.1-0.1,0.3-0.2,0.4-0.3c0.5-0.4,0.9-1,1.3-1.5c0.1-0.2,0.3-0.5,0.4-0.7
			c0.1-0.2,0.2-0.5,0.4-0.7c0.4-1,0.7-2.1,0.7-3.2c0-1.1-0.2-2.2-0.7-3.2C1400,97.4,1399.8,97.2,1399.7,96.9z M1392.4,108.1v-2.3
			v-1.1h0v-7.5h0V96v-2.3c4,0,7.2,3.2,7.2,7.2C1399.6,104.9,1396.4,108.1,1392.4,108.1z"/>
		<path class="st7" d="M1395.7,91c1.2-0.6,1.7-2.1,1.7-2.1s-1.5-0.5-2.7,0.2c-1.2,0.6-1.7,2.1-1.7,2.1s0.1,0,0.2,0.1
			c0.2,0,0.5,0.1,0.9,0.1C1394.6,91.3,1395.2,91.3,1395.7,91z"/>
		<path class="st7" d="M1391.3,88.7c0,1.4,1.1,2.5,1.1,2.5s1.1-1.1,1.1-2.5c0-1.4-1.1-2.5-1.1-2.5S1391.3,87.3,1391.3,88.7z"/>
		<path class="st7" d="M1392.4,96.6v1.1c1.8,0,3.2,1.4,3.2,3.2c0,1.8-1.4,3.2-3.2,3.2v1.1c2.4,0,4.3-1.9,4.3-4.3
			C1396.7,98.5,1394.8,96.6,1392.4,96.6z"/>
	</g>
	<g>
		<path class="st7" d="M1423.4,93.9c-0.1-0.2-0.2-0.3-0.3-0.5c-0.2-0.4-0.5-0.7-0.9-1c-0.1-0.1-0.2-0.1-0.2-0.2
			c-0.2-0.1-0.3-0.3-0.5-0.4c-0.1-0.1-0.2-0.1-0.3-0.2c-0.5-0.3-1-0.4-1.5-0.5c-0.2,0-0.4-0.1-0.5-0.1c-0.1,0-0.2,0-0.3,0
			s-0.2,0-0.3,0c-3,0-5.5,2.4-5.5,5.5c0,0.8,0.2,1.5,0.4,2.1c0,0.1,0.1,0.2,0.1,0.2c0.1,0.2,0.2,0.5,0.4,0.7c0,0.1,0.1,0.1,0.2,0.2
			c0.1,0.1,0.1,0.1,0.2,0.2c0.1,0.2,0.3,0.3,0.4,0.4c0.3,0.3,0.6,0.5,0.9,0.7c0.2,0.1,0.3,0.2,0.5,0.3c0.7,0.3,1.5,0.5,2.4,0.5h0
			c0.1,0,0.2,0,0.3,0s0.2,0,0.3,0c0.2,0,0.4,0,0.5-0.1c0.5-0.1,1-0.3,1.5-0.5c0.1-0.1,0.2-0.1,0.3-0.2c0.2-0.1,0.4-0.2,0.5-0.4
			c0.1-0.1,0.2-0.1,0.2-0.2c0.3-0.3,0.6-0.6,0.9-1c0.1-0.1,0.2-0.3,0.3-0.5c0.1-0.2,0.2-0.3,0.2-0.5c0.3-0.7,0.4-1.4,0.4-2.1
			c0-0.8-0.2-1.5-0.4-2.1C1423.5,94.2,1423.4,94,1423.4,93.9z M1418.6,101.2v-1.5v-0.7h0V94h0v-0.7v-1.5c2.6,0,4.7,2.1,4.7,4.7
			C1423.3,99.1,1421.2,101.2,1418.6,101.2z"/>
		<path class="st7" d="M1420.7,90c0.8-0.4,1.1-1.4,1.1-1.4s-1-0.3-1.8,0.1c-0.8,0.4-1.1,1.4-1.1,1.4s0,0,0.1,0
			c0.1,0,0.3,0.1,0.6,0.1C1420,90.2,1420.4,90.2,1420.7,90z"/>
		<path class="st7" d="M1417.8,88.5c0,0.9,0.7,1.6,0.7,1.6s0.7-0.7,0.7-1.6c0-0.9-0.7-1.6-0.7-1.6S1417.8,87.6,1417.8,88.5z"/>
		<path class="st7" d="M1418.6,93.6v0.7c1.2,0,2.1,0.9,2.1,2.1s-0.9,2.1-2.1,2.1v0.7c1.6,0,2.8-1.3,2.8-2.8
			C1421.4,94.9,1420.1,93.6,1418.6,93.6z"/>
	</g>
	<g>
		<path class="st7" d="M1321.5,104.1c-0.3-0.5-0.5-0.9-0.8-1.4c-0.8-1.1-1.7-2.2-2.7-3.1c-0.3-0.2-0.5-0.4-0.8-0.7
			c-0.5-0.4-1.1-0.8-1.7-1.2c-0.3-0.2-0.6-0.4-0.9-0.5c-1.4-0.8-3-1.4-4.7-1.7c-0.6-0.1-1.1-0.2-1.7-0.3c-0.3,0-0.6-0.1-0.9-0.1
			c-0.3,0-0.6,0-0.9,0c-9.4,0-16.9,7.6-16.9,16.9c0,2.3,0.5,4.6,1.3,6.6c0.1,0.3,0.2,0.5,0.3,0.8c0.4,0.7,0.8,1.5,1.2,2.1
			c0.2,0.2,0.3,0.4,0.5,0.7s0.3,0.4,0.5,0.6c0.4,0.5,0.8,0.9,1.2,1.3c0.9,0.9,1.8,1.6,2.9,2.3c0.5,0.3,1.1,0.6,1.6,0.9
			c2.2,1.1,4.7,1.7,7.3,1.7h0c0.3,0,0.6,0,0.9,0s0.6,0,0.9-0.1c0.6-0.1,1.1-0.1,1.7-0.3c1.7-0.3,3.2-0.9,4.7-1.7
			c0.3-0.2,0.6-0.3,0.9-0.5c0.6-0.4,1.1-0.8,1.7-1.2c0.3-0.2,0.5-0.4,0.8-0.7c1-0.9,1.9-1.9,2.7-3.1c0.3-0.5,0.6-0.9,0.8-1.4
			c0.3-0.5,0.5-1,0.7-1.5c0.9-2,1.3-4.3,1.3-6.6c0-2.3-0.5-4.6-1.3-6.6C1322,105.1,1321.7,104.6,1321.5,104.1z M1306.6,126.9v-4.8
			v-2.3h0v-15.3h0v-2.3v-4.8c8.1,0,14.7,6.6,14.7,14.7C1321.2,120.3,1314.7,126.9,1306.6,126.9z"/>
		<path class="st7" d="M1313.3,92c2.5-1.3,3.4-4.3,3.4-4.3s-3-0.9-5.5,0.3c-2.5,1.3-3.4,4.3-3.4,4.3s0.2,0,0.4,0.1
			c0.4,0.1,1,0.2,1.8,0.2C1311,92.7,1312.2,92.6,1313.3,92z"/>
		<path class="st7" d="M1304.4,87.3c0,2.8,2.2,5,2.2,5s2.2-2.3,2.2-5c0-2.8-2.2-5-2.2-5S1304.4,84.5,1304.4,87.3z"/>
		<path class="st7" d="M1306.6,103.4v2.3c3.6,0,6.5,2.9,6.5,6.5c0,3.6-2.9,6.5-6.5,6.5v2.3c4.8,0,8.8-3.9,8.8-8.8
			C1315.3,107.3,1311.4,103.4,1306.6,103.4z"/>
	</g>
	<g>
		<path class="st3" d="M33.9,124.5C33.9,124.5,33.9,124.5,33.9,124.5L33.9,124.5L33.9,124.5l34.1,0c-0.5-1.1-1.1-2.2-1.6-3.3
			c-0.5-1.3-1-2.6-1.5-3.9h-31c-10.9,0-19.8-8.9-19.8-19.8c0-10.9,8.9-19.8,19.8-19.8h31c0.9-2.5,1.9-4.9,3-7.3H33.9h0h0
			c0,0,0,0,0,0H18.1v5.2c-0.5,0.3-0.9,0.6-1.3,1c-2,1.7-3.8,3.6-5.2,5.7c-2.9,4.3-4.6,9.5-4.6,15.1v0c0,5.6,1.7,10.8,4.6,15.1
			c1.5,2.2,3.2,4.1,5.2,5.7c0.4,0.4,0.9,0.7,1.3,1v5.2H33.9z"/>
		<path class="st3" d="M233.5,82.3c-1-1.4-2.1-2.8-3.3-4c-1-1-2.1-1.9-3.3-2.7v-5.2h-15.9c0,0,0,0,0,0h0h-34
			c0.5,1.1,1.1,2.2,1.6,3.3c0.5,1.3,1,2.6,1.5,3.9h31c10.9,0,19.8,8.9,19.8,19.8c0,10.9-8.9,19.8-19.8,19.8h-31
			c-0.5,1.3-0.9,2.6-1.5,3.9c-0.5,1.1-1,2.2-1.6,3.3h34h0c0,0,0,0,0,0h15.9v-5.2c1.2-0.8,2.3-1.7,3.3-2.7c1.2-1.2,2.3-2.6,3.3-4
			c2.9-4.3,4.6-9.5,4.6-15.1v0C238.1,91.8,236.4,86.6,233.5,82.3z"/>
		<path class="st3" d="M38.6,84.4c-7.5,0-13,5.7-13,12.6v0.1c0,6.9,5.4,12.5,12.9,12.5c4.7,0,8.5-2.2,10.8-5.5
			c1.4-2,2.2-4.5,2.2-7.1V97c0-2.6-0.8-5-2.1-7C47.2,86.6,43.3,84.4,38.6,84.4z M45.9,97.1c0,4.2-3,7.6-7.3,7.6
			c-4.3,0-7.4-3.5-7.4-7.7V97c0-4.2,3-7.6,7.3-7.6S45.9,92.9,45.9,97.1L45.9,97.1z"/>
		<path class="st3" d="M218.6,97L218.6,97c0-6.9-5.3-12.2-12.9-12.2h-9.5v24.4h9.5C213.3,109.2,218.6,103.9,218.6,97z M213,97.1
			c0,4.3-3,7.3-7.3,7.3h-4.1V89.7h4.1C210.1,89.7,213,92.7,213,97.1L213,97.1z"/>
		<path class="st3" d="M174.6,97.4c0-7.2-1.5-14.1-4.1-20.3c-0.7-1.6-1.4-3.1-2.2-4.6c-0.8-1.5-1.7-2.9-2.6-4.3
			c-2.3-3.5-5.1-6.6-8.2-9.4c-0.8-0.7-1.6-1.4-2.4-2c-1.6-1.3-3.3-2.5-5.1-3.6c-0.9-0.6-1.8-1.1-2.7-1.6c-4.4-2.4-9.3-4.2-14.3-5.2
			c-1.7-0.3-3.4-0.6-5.2-0.8c-0.9-0.1-1.8-0.2-2.6-0.2c-0.9,0-1.8-0.1-2.7-0.1c-28.8,0-52.1,23.3-52.1,52.1c0,7.2,1.5,14.1,4.1,20.3
			c0.3,0.8,0.7,1.5,1,2.3c1.1,2.3,2.4,4.5,3.8,6.5c0.5,0.7,1,1.4,1.5,2s1,1.3,1.5,2c1.2,1.4,2.5,2.8,3.8,4.1c2.7,2.6,5.7,5,8.9,7
			c1.6,1,3.3,1.9,5,2.7c6.8,3.3,14.5,5.1,22.6,5.1h0c0.9,0,1.8,0,2.7-0.1c0.9,0,1.8-0.1,2.6-0.2c1.8-0.2,3.5-0.4,5.2-0.8
			c5.1-1,9.9-2.8,14.3-5.2c0.9-0.5,1.8-1,2.7-1.6c1.8-1.1,3.5-2.3,5.1-3.6c0.8-0.7,1.6-1.3,2.4-2c3.1-2.8,5.8-6,8.2-9.4
			c0.9-1.4,1.8-2.8,2.6-4.3c0.8-1.5,1.5-3,2.2-4.6C173.2,111.5,174.6,104.6,174.6,97.4z M122.5,142.6V128v-7h0V73.9h0v-7V52.3
			c24.9,0,45.2,20.3,45.2,45.2C167.7,122.4,147.4,142.6,122.5,142.6z"/>
		<path class="st3" d="M127.7,36.8c1.2,0.3,3.1,0.6,5.4,0.7c3.1,0.1,6.9-0.3,10.3-2C151,31.5,154,22.3,154,22.3s-9.3-2.9-16.9,1
			c-7.6,3.9-10.6,13.2-10.6,13.2S126.9,36.6,127.7,36.8z"/>
		<path class="st3" d="M115.7,20.9c0,8.6,6.9,15.5,6.9,15.5s6.9-6.9,6.9-15.5c0-8.6-6.9-15.5-6.9-15.5S115.7,12.4,115.7,20.9z"/>
		<path class="st3" d="M122.5,70.4v7c11.1,0,20.1,9,20.1,20.1c0,11.1-9,20.1-20.1,20.1v7c14.9,0,27-12.1,27-27
			C149.5,82.5,137.4,70.4,122.5,70.4z"/>
	</g>
</g>
<g id="Slack_Icon__x23_1" class="st0">
	<g class="st1">
		<g>
			<path class="st4" d="M-122.2-230.1v27.2H-191v-27.2H-122.2 M-117.2-235.1H-196v37.2h78.9V-235.1L-117.2-235.1z"/>
		</g>
		<g>
			<g>
				<path class="st3" d="M-185.1-200.4c-8.9,0-16.1-7.2-16.1-16.1s7.2-16.1,16.1-16.1h52.8c8.9,0,16.1,7.2,16.1,16.1
					s-7.2,16.1-16.1,16.1H-185.1z"/>
				<path class="st4" d="M-132.3-230.1c7.5,0,13.6,6.1,13.6,13.6c0,7.5-6.1,13.6-13.6,13.6h-52.8c-7.5,0-13.6-6.1-13.6-13.6
					c0-7.5,6.1-13.6,13.6-13.6H-132.3 M-132.3-235.1h-52.8c-10.3,0-18.6,8.3-18.6,18.6v0c0,10.3,8.3,18.6,18.6,18.6h52.8
					c10.3,0,18.6-8.3,18.6-18.6v0C-113.7-226.7-122.1-235.1-132.3-235.1L-132.3-235.1z"/>
			</g>
		</g>
	</g>
	<g class="st1">
		<g>
			<path class="st4" d="M-57.4-230.1v27.2h-68.9v-27.2H-57.4 M-52.4-235.1h-78.9v37.2h78.9V-235.1L-52.4-235.1z"/>
		</g>
		<g>
			<g>
				<path class="st3" d="M-116.1-200.4c-8.9,0-16.1-7.2-16.1-16.1s7.2-16.1,16.1-16.1h52.8c8.9,0,16.1,7.2,16.1,16.1
					s-7.2,16.1-16.1,16.1H-116.1z"/>
				<path class="st4" d="M-63.3-230.1c7.5,0,13.6,6.1,13.6,13.6c0,7.5-6.1,13.6-13.6,13.6h-52.8c-7.5,0-13.6-6.1-13.6-13.6
					c0-7.5,6.1-13.6,13.6-13.6H-63.3 M-63.3-235.1h-52.8c-10.3,0-18.6,8.3-18.6,18.6v0c0,10.3,8.3,18.6,18.6,18.6h52.8
					c10.3,0,18.6-8.3,18.6-18.6v0C-44.7-226.7-53-235.1-63.3-235.1L-63.3-235.1z"/>
			</g>
		</g>
	</g>
	<path class="st8" d="M-182-225.4c-5.2,0-8.9,3.9-8.9,8.7v0c0,4.8,3.7,8.6,8.9,8.6c3.2,0,5.9-1.5,7.4-3.8c1-1.4,1.5-3.1,1.5-4.9v0
		c0-1.8-0.5-3.4-1.4-4.8C-176-223.9-178.7-225.4-182-225.4z M-176.9-216.7c0,2.9-2.1,5.2-5,5.2c-3,0-5.1-2.4-5.1-5.3v0
		c0-2.9,2.1-5.2,5-5.2C-179-222-176.9-219.6-176.9-216.7L-176.9-216.7z"/>
	<path class="st8" d="M-58.1-216.7L-58.1-216.7c0-4.8-3.6-8.4-8.9-8.4h-6.5v16.8h6.5C-61.8-208.4-58.1-212-58.1-216.7z M-69.9-221.8
		h2.8c3,0,5,2.1,5,5v0c0,3-2,5-5,5h-2.8V-221.8z"/>
	<g class="st1">
		<g>
			<path class="st4" d="M-124.2-177.6c-11.6,0-22.6-5.2-30-14.1c-0.8-1-1.5-2-2.2-3c-1.4-2.1-2.6-4.3-3.6-6.6
				c-2-4.8-3.1-9.9-3.1-15.1c0-21.4,17.4-38.9,38.9-38.9c2.6,0,5.3,0.3,7.8,0.8c10,2,18.7,7.8,24.4,16.3c1.4,2.1,2.6,4.3,3.6,6.6
				c2,4.8,3.1,9.9,3.1,15.1s-1,10.3-3.1,15.1c-1,2.3-2.2,4.5-3.6,6.6c-5.7,8.5-14.4,14.3-24.4,16.3
				C-119-177.9-121.6-177.6-124.2-177.6z"/>
			<path class="st3" d="M-124.2-252.3c2.5,0,4.9,0.3,7.2,0.7c9.3,1.9,17.4,7.5,22.5,15.1c1.3,1.9,2.4,3.9,3.3,6.1
				c1.8,4.3,2.8,9,2.8,14c0,5-1,9.7-2.8,14c-0.9,2.1-2,4.2-3.3,6.1c-5.2,7.6-13.2,13.2-22.5,15.1c-2.3,0.5-4.8,0.7-7.2,0.7h0
				c-11.1,0-21.1-5.1-27.7-13c-0.7-0.9-1.4-1.8-2.1-2.8c-1.3-1.9-2.4-3.9-3.3-6.1c-1.8-4.3-2.8-9-2.8-14
				C-160.1-236.3-144-252.3-124.2-252.3 M-124.2-258.3c-23.1,0-41.9,18.8-41.9,41.9c0,5.6,1.1,11.1,3.3,16.3c1,2.5,2.3,4.9,3.9,7.1
				c0.7,1.1,1.6,2.2,2.4,3.2c8,9.7,19.8,15.2,32.3,15.2c2.8,0,5.7-0.3,8.4-0.9c10.8-2.2,20.1-8.5,26.3-17.6c1.5-2.2,2.8-4.6,3.9-7.1
				c2.2-5.2,3.3-10.6,3.3-16.3c0-5.6-1.1-11.1-3.3-16.3c-1-2.5-2.3-4.9-3.9-7.1c-6.2-9.1-15.5-15.4-26.3-17.6
				C-118.6-258-121.4-258.3-124.2-258.3L-124.2-258.3z"/>
		</g>
		<path class="st3" d="M-93.1-216.5c0-17.1-13.9-31.1-31.1-31.1v10.1v4.8h0v32.4h0v4.8v10.1C-107.1-185.4-93.1-199.3-93.1-216.5z
			 M-124.2-202.6c7.6,0,13.8-6.2,13.8-13.8c0-7.6-6.2-13.8-13.8-13.8v-4.8c10.3,0,18.6,8.3,18.6,18.6c0,10.3-8.3,18.6-18.6,18.6
			V-202.6z"/>
		<path class="st4" d="M-91.2-230.4c-0.9-2.1-2-4.2-3.3-6.1c-5.2-7.6-13.2-13.2-22.5-15.1c-2.3-0.5-4.8-0.7-7.2-0.7
			c-19.8,0-35.9,16.1-35.9,35.9c0,5,1,9.7,2.8,14c0.9,2.1,2,4.2,3.3,6.1c0.6,1,1.3,1.9,2.1,2.8c6.6,8,16.5,13,27.7,13h0
			c2.5,0,4.9-0.3,7.2-0.7c9.3-1.9,17.4-7.5,22.5-15.1c1.3-1.9,2.4-3.9,3.3-6.1c1.8-4.3,2.8-9,2.8-14
			C-88.4-221.4-89.4-226.1-91.2-230.4z M-124.2-185.4v-10.1v-4.8h0v-32.4h0v-4.8v-10.1c17.1,0,31.1,13.9,31.1,31.1
			C-93.1-199.3-107.1-185.4-124.2-185.4z"/>
		<path class="st4" d="M-109.9-259.1c5.2-2.7,7.3-9.1,7.3-9.1s-6.4-2-11.6,0.7c-5.2,2.7-7.3,9.1-7.3,9.1S-115.1-256.4-109.9-259.1z"
			/>
		<path class="st4" d="M-119.4-269.1c0-5.9-4.7-10.7-4.7-10.7s-4.7,4.8-4.7,10.7c0,5.9,4.7,10.7,4.7,10.7S-119.4-263.2-119.4-269.1z
			"/>
		<path class="st4" d="M-105.6-216.5c0-10.3-8.3-18.6-18.6-18.6v4.8c7.6,0,13.8,6.2,13.8,13.8c0,7.6-6.2,13.8-13.8,13.8v4.8
			C-114-197.9-105.6-206.2-105.6-216.5z"/>
	</g>
	<g class="st1">
		<path id="SVGID_x5F_1_x5F_" class="st6" d="M-52.4-216.5c0,39.7-32.2,71.8-71.8,71.8s-71.8-32.2-71.8-71.8s32.2-71.8,71.8-71.8
			S-52.4-256.1-52.4-216.5z"/>
		<text>		<textPath  xlink:href="#SVGID_x5F_1_x5F_" startOffset="1810.246%">
<tspan  class="st4" style="font-family:'Gotham-Bold'; font-size:17px;">orlando</tspan>		</textPath>
</text>
		<path id="SVGID_x5F_2_x5F_" class="st6" d="M-44.4-216.5c0,44.1-35.7,79.8-79.8,79.8s-79.8-35.7-79.8-79.8s35.7-79.8,79.8-79.8
			S-44.4-260.5-44.4-216.5z"/>
		<text>		<textPath  xlink:href="#SVGID_x5F_2_x5F_" startOffset="276.9003%">
<tspan  class="st4" style="font-family:'Gotham-Bold'; font-size:17px;">designers</tspan>		</textPath>
</text>
		<g>
			<circle class="st6" cx="-124.2" cy="-216.5" r="79.8"/>
		</g>
	</g>
	<text transform="matrix(1 0 0 1 -142.1983 -162.6044)" class="st8" style="font-family:'Gotham-Bold'; font-size:7px;">EST 2015</text>
	<g class="st1">
		<g>
			<path class="st9" d="M507.5,99.8h-27.7c-1.2,0-2.2-1-2.2-2.2V69.9c0-1.2,1-2.2,2.2-2.2h27.7c1.2,0,2.2,1,2.2,2.2v27.7
				C509.7,98.8,508.7,99.8,507.5,99.8z"/>
		</g>
		<circle class="st2" cx="493.7" cy="86.7" r="9.9"/>
		<g>
			<path class="st4" d="M493.7,76.8L493.7,76.8c0.2,0,0.3,0,0.5,0C494,76.8,493.8,76.8,493.7,76.8z"/>
			<path class="st4" d="M493.7,96.6c0.2,0,0.3,0,0.5,0C494,96.6,493.8,96.6,493.7,96.6L493.7,96.6z"/>
			<path class="st4" d="M502.8,82.9c-0.1-0.3-0.3-0.6-0.4-0.9c-0.2-0.3-0.3-0.6-0.5-0.8c-0.4-0.7-1-1.3-1.5-1.8
				c-0.1-0.1-0.3-0.3-0.5-0.4c-0.3-0.2-0.6-0.5-1-0.7c-0.2-0.1-0.3-0.2-0.5-0.3c-0.8-0.5-1.8-0.8-2.7-1c-0.3-0.1-0.6-0.1-1-0.1
				c-0.2,0-0.3,0-0.5,0c-0.2,0-0.3,0-0.5,0c-1.2,0-2.3,0.2-3.4,0.6c-0.3,0.1-0.6,0.2-0.9,0.4c-0.7,0.3-1.4,0.8-2,1.3
				c-0.6,0.5-1.2,1.1-1.6,1.7c-0.9,1.1-1.5,2.5-1.8,3.9c0,0.2-0.1,0.3-0.1,0.5c-0.1,0.5-0.1,1-0.1,1.5c0,0.2,0,0.3,0,0.5
				c0,0.5,0.1,1,0.2,1.5c0.1,0.3,0.1,0.6,0.2,0.9c0.1,0.3,0.2,0.6,0.3,0.9c0.1,0.1,0.1,0.3,0.2,0.4c0.2,0.4,0.4,0.8,0.7,1.2
				c0.1,0.1,0.2,0.3,0.3,0.4c0.1,0.1,0.2,0.3,0.3,0.4c0.1,0.1,0.2,0.3,0.4,0.4c0.1,0.1,0.2,0.3,0.4,0.4c0.5,0.5,1.1,0.9,1.7,1.3
				c0.3,0.2,0.6,0.4,0.9,0.5c1.3,0.6,2.7,1,4.3,1h0c0.2,0,0.3,0,0.5,0c0.2,0,0.3,0,0.5,0c0.3,0,0.7-0.1,1-0.1c1-0.2,1.9-0.5,2.7-1
				c0.2-0.1,0.3-0.2,0.5-0.3c0.3-0.2,0.7-0.4,1-0.7c0.2-0.1,0.3-0.3,0.5-0.4c0.6-0.5,1.1-1.1,1.5-1.8c0.2-0.3,0.3-0.5,0.5-0.8
				c0.2-0.3,0.3-0.6,0.4-0.9c0.5-1.2,0.8-2.5,0.8-3.8C503.5,85.3,503.3,84,502.8,82.9z M493.7,95.3v-2.8v-1.3h0v-8.9h0v-1.3v-2.8
				c4.7,0,8.6,3.8,8.6,8.6C502.2,91.4,498.4,95.3,493.7,95.3z M493.7,81.6v1.3c2.1,0,3.8,1.7,3.8,3.8c0,2.1-1.7,3.8-3.8,3.8v1.3
				c2.8,0,5.1-2.3,5.1-5.1C498.8,83.9,496.5,81.6,493.7,81.6z"/>
		</g>
		<path class="st5" d="M494.6,75.2c0.2,0.1,0.6,0.1,1,0.1c0.6,0,1.3-0.1,2-0.4c1.4-0.7,2-2.5,2-2.5s-1.8-0.6-3.2,0.2
			c-1.4,0.7-2,2.5-2,2.5S494.5,75.2,494.6,75.2z"/>
		<path class="st5" d="M495,72.2c0-1.6-1.3-2.9-1.3-2.9s-1.3,1.3-1.3,2.9c0,1.6,1.3,2.9,1.3,2.9S495,73.8,495,72.2z"/>
	</g>
</g>
<g id="Slack_Icon__x23_2" class="st0">
	<g class="st1">
		<g>
			<path class="st4" d="M-122.2-230.1v27.2H-191v-27.2H-122.2 M-117.2-235.1H-196v37.2h78.9V-235.1L-117.2-235.1z"/>
		</g>
		<g>
			<g>
				<path class="st3" d="M-185.1-200.4c-8.9,0-16.1-7.2-16.1-16.1s7.2-16.1,16.1-16.1h52.8c8.9,0,16.1,7.2,16.1,16.1
					s-7.2,16.1-16.1,16.1H-185.1z"/>
				<path class="st4" d="M-132.3-230.1c7.5,0,13.6,6.1,13.6,13.6c0,7.5-6.1,13.6-13.6,13.6h-52.8c-7.5,0-13.6-6.1-13.6-13.6
					c0-7.5,6.1-13.6,13.6-13.6H-132.3 M-132.3-235.1h-52.8c-10.3,0-18.6,8.3-18.6,18.6v0c0,10.3,8.3,18.6,18.6,18.6h52.8
					c10.3,0,18.6-8.3,18.6-18.6v0C-113.7-226.7-122.1-235.1-132.3-235.1L-132.3-235.1z"/>
			</g>
		</g>
	</g>
	<g class="st1">
		<g>
			<path class="st4" d="M-57.4-230.1v27.2h-68.9v-27.2H-57.4 M-52.4-235.1h-78.9v37.2h78.9V-235.1L-52.4-235.1z"/>
		</g>
		<g>
			<g>
				<path class="st3" d="M-116.1-200.4c-8.9,0-16.1-7.2-16.1-16.1s7.2-16.1,16.1-16.1h52.8c8.9,0,16.1,7.2,16.1,16.1
					s-7.2,16.1-16.1,16.1H-116.1z"/>
				<path class="st4" d="M-63.3-230.1c7.5,0,13.6,6.1,13.6,13.6c0,7.5-6.1,13.6-13.6,13.6h-52.8c-7.5,0-13.6-6.1-13.6-13.6
					c0-7.5,6.1-13.6,13.6-13.6H-63.3 M-63.3-235.1h-52.8c-10.3,0-18.6,8.3-18.6,18.6v0c0,10.3,8.3,18.6,18.6,18.6h52.8
					c10.3,0,18.6-8.3,18.6-18.6v0C-44.7-226.7-53-235.1-63.3-235.1L-63.3-235.1z"/>
			</g>
		</g>
	</g>
	<path class="st8" d="M-182-225.4c-5.2,0-8.9,3.9-8.9,8.7v0c0,4.8,3.7,8.6,8.9,8.6c3.2,0,5.9-1.5,7.4-3.8c1-1.4,1.5-3.1,1.5-4.9v0
		c0-1.8-0.5-3.4-1.4-4.8C-176-223.9-178.7-225.4-182-225.4z M-176.9-216.7c0,2.9-2.1,5.2-5,5.2c-3,0-5.1-2.4-5.1-5.3v0
		c0-2.9,2.1-5.2,5-5.2C-179-222-176.9-219.6-176.9-216.7L-176.9-216.7z"/>
	<path class="st8" d="M-58.1-216.7L-58.1-216.7c0-4.8-3.6-8.4-8.9-8.4h-6.5v16.8h6.5C-61.8-208.4-58.1-212-58.1-216.7z M-69.9-221.8
		h2.8c3,0,5,2.1,5,5v0c0,3-2,5-5,5h-2.8V-221.8z"/>
	<g class="st1">
		<g>
			<path class="st4" d="M-124.2-177.6c-11.6,0-22.6-5.2-30-14.1c-0.8-1-1.5-2-2.2-3c-1.4-2.1-2.6-4.3-3.6-6.6
				c-2-4.8-3.1-9.9-3.1-15.1c0-21.4,17.4-38.9,38.9-38.9c2.6,0,5.3,0.3,7.8,0.8c10,2,18.7,7.8,24.4,16.3c1.4,2.1,2.6,4.3,3.6,6.6
				c2,4.8,3.1,9.9,3.1,15.1s-1,10.3-3.1,15.1c-1,2.3-2.2,4.5-3.6,6.6c-5.7,8.5-14.4,14.3-24.4,16.3
				C-119-177.9-121.6-177.6-124.2-177.6z"/>
			<path class="st3" d="M-124.2-252.3c2.5,0,4.9,0.3,7.2,0.7c9.3,1.9,17.4,7.5,22.5,15.1c1.3,1.9,2.4,3.9,3.3,6.1
				c1.8,4.3,2.8,9,2.8,14c0,5-1,9.7-2.8,14c-0.9,2.1-2,4.2-3.3,6.1c-5.2,7.6-13.2,13.2-22.5,15.1c-2.3,0.5-4.8,0.7-7.2,0.7h0
				c-11.1,0-21.1-5.1-27.7-13c-0.7-0.9-1.4-1.8-2.1-2.8c-1.3-1.9-2.4-3.9-3.3-6.1c-1.8-4.3-2.8-9-2.8-14
				C-160.1-236.3-144-252.3-124.2-252.3 M-124.2-258.3c-23.1,0-41.9,18.8-41.9,41.9c0,5.6,1.1,11.1,3.3,16.3c1,2.5,2.3,4.9,3.9,7.1
				c0.7,1.1,1.6,2.2,2.4,3.2c8,9.7,19.8,15.2,32.3,15.2c2.8,0,5.7-0.3,8.4-0.9c10.8-2.2,20.1-8.5,26.3-17.6c1.5-2.2,2.8-4.6,3.9-7.1
				c2.2-5.2,3.3-10.6,3.3-16.3c0-5.6-1.1-11.1-3.3-16.3c-1-2.5-2.3-4.9-3.9-7.1c-6.2-9.1-15.5-15.4-26.3-17.6
				C-118.6-258-121.4-258.3-124.2-258.3L-124.2-258.3z"/>
		</g>
		<path class="st3" d="M-93.1-216.5c0-17.1-13.9-31.1-31.1-31.1v10.1v4.8h0v32.4h0v4.8v10.1C-107.1-185.4-93.1-199.3-93.1-216.5z
			 M-124.2-202.6c7.6,0,13.8-6.2,13.8-13.8c0-7.6-6.2-13.8-13.8-13.8v-4.8c10.3,0,18.6,8.3,18.6,18.6c0,10.3-8.3,18.6-18.6,18.6
			V-202.6z"/>
		<path class="st4" d="M-91.2-230.4c-0.9-2.1-2-4.2-3.3-6.1c-5.2-7.6-13.2-13.2-22.5-15.1c-2.3-0.5-4.8-0.7-7.2-0.7
			c-19.8,0-35.9,16.1-35.9,35.9c0,5,1,9.7,2.8,14c0.9,2.1,2,4.2,3.3,6.1c0.6,1,1.3,1.9,2.1,2.8c6.6,8,16.5,13,27.7,13h0
			c2.5,0,4.9-0.3,7.2-0.7c9.3-1.9,17.4-7.5,22.5-15.1c1.3-1.9,2.4-3.9,3.3-6.1c1.8-4.3,2.8-9,2.8-14
			C-88.4-221.4-89.4-226.1-91.2-230.4z M-124.2-185.4v-10.1v-4.8h0v-32.4h0v-4.8v-10.1c17.1,0,31.1,13.9,31.1,31.1
			C-93.1-199.3-107.1-185.4-124.2-185.4z"/>
		<path class="st4" d="M-109.9-259.1c5.2-2.7,7.3-9.1,7.3-9.1s-6.4-2-11.6,0.7c-5.2,2.7-7.3,9.1-7.3,9.1S-115.1-256.4-109.9-259.1z"
			/>
		<path class="st4" d="M-119.4-269.1c0-5.9-4.7-10.7-4.7-10.7s-4.7,4.8-4.7,10.7c0,5.9,4.7,10.7,4.7,10.7S-119.4-263.2-119.4-269.1z
			"/>
		<path class="st4" d="M-105.6-216.5c0-10.3-8.3-18.6-18.6-18.6v4.8c7.6,0,13.8,6.2,13.8,13.8c0,7.6-6.2,13.8-13.8,13.8v4.8
			C-114-197.9-105.6-206.2-105.6-216.5z"/>
	</g>
	<g class="st1">
		<path id="SVGID_x5F_3_x5F_" class="st6" d="M-52.4-216.5c0,39.7-32.2,71.8-71.8,71.8s-71.8-32.2-71.8-71.8s32.2-71.8,71.8-71.8
			S-52.4-256.1-52.4-216.5z"/>
		<text>		<textPath  xlink:href="#SVGID_x5F_3_x5F_" startOffset="1810.246%">
<tspan  class="st4" style="font-family:'Gotham-Bold'; font-size:17px;">orlando</tspan>		</textPath>
</text>
		<path id="SVGID_x5F_4_x5F_" class="st6" d="M-44.4-216.5c0,44.1-35.7,79.8-79.8,79.8s-79.8-35.7-79.8-79.8s35.7-79.8,79.8-79.8
			S-44.4-260.5-44.4-216.5z"/>
		<text>		<textPath  xlink:href="#SVGID_x5F_4_x5F_" startOffset="276.9003%">
<tspan  class="st4" style="font-family:'Gotham-Bold'; font-size:17px;">designers</tspan>		</textPath>
</text>
		<g>
			<circle class="st6" cx="-124.2" cy="-216.5" r="79.8"/>
		</g>
	</g>
	<text transform="matrix(1 0 0 1 -142.1983 -162.6044)" class="st8" style="font-family:'Gotham-Bold'; font-size:7px;">EST 2015</text>
	<g class="st1">
		<g>
			<path class="st10" d="M507.5,99.8h-27.7c-1.2,0-2.2-1-2.2-2.2V69.9c0-1.2,1-2.2,2.2-2.2h27.7c1.2,0,2.2,1,2.2,2.2v27.7
				C509.7,98.8,508.7,99.8,507.5,99.8z"/>
		</g>
		<g>
			<path class="st3" d="M493.7,76.8L493.7,76.8c0.2,0,0.3,0,0.5,0C494,76.8,493.8,76.8,493.7,76.8z"/>
			<path class="st3" d="M493.7,96.6c0.2,0,0.3,0,0.5,0C494,96.6,493.8,96.6,493.7,96.6L493.7,96.6z"/>
			<path class="st3" d="M502.8,82.9c-0.1-0.3-0.3-0.6-0.4-0.9c-0.2-0.3-0.3-0.6-0.5-0.8c-0.4-0.7-1-1.3-1.5-1.8
				c-0.1-0.1-0.3-0.3-0.5-0.4c-0.3-0.2-0.6-0.5-1-0.7c-0.2-0.1-0.3-0.2-0.5-0.3c-0.8-0.5-1.8-0.8-2.7-1c-0.3-0.1-0.6-0.1-1-0.1
				c-0.2,0-0.3,0-0.5,0c-0.2,0-0.3,0-0.5,0c-1.2,0-2.3,0.2-3.4,0.6c-0.3,0.1-0.6,0.2-0.9,0.4c-0.7,0.3-1.4,0.8-2,1.3
				c-0.6,0.5-1.2,1.1-1.6,1.7c-0.9,1.1-1.5,2.5-1.8,3.9c0,0.2-0.1,0.3-0.1,0.5c-0.1,0.5-0.1,1-0.1,1.5c0,0.2,0,0.3,0,0.5
				c0,0.5,0.1,1,0.2,1.5c0.1,0.3,0.1,0.6,0.2,0.9c0.1,0.3,0.2,0.6,0.3,0.9c0.1,0.1,0.1,0.3,0.2,0.4c0.2,0.4,0.4,0.8,0.7,1.2
				c0.1,0.1,0.2,0.3,0.3,0.4c0.1,0.1,0.2,0.3,0.3,0.4c0.1,0.1,0.2,0.3,0.4,0.4c0.1,0.1,0.2,0.3,0.4,0.4c0.5,0.5,1.1,0.9,1.7,1.3
				c0.3,0.2,0.6,0.4,0.9,0.5c1.3,0.6,2.7,1,4.3,1h0c0.2,0,0.3,0,0.5,0c0.2,0,0.3,0,0.5,0c0.3,0,0.7-0.1,1-0.1c1-0.2,1.9-0.5,2.7-1
				c0.2-0.1,0.3-0.2,0.5-0.3c0.3-0.2,0.7-0.4,1-0.7c0.2-0.1,0.3-0.3,0.5-0.4c0.6-0.5,1.1-1.1,1.5-1.8c0.2-0.3,0.3-0.5,0.5-0.8
				c0.2-0.3,0.3-0.6,0.4-0.9c0.5-1.2,0.8-2.5,0.8-3.8C503.5,85.3,503.3,84,502.8,82.9z M493.7,95.3v-2.8v-1.3h0v-8.9h0v-1.3v-2.8
				c4.7,0,8.6,3.8,8.6,8.6C502.2,91.4,498.4,95.3,493.7,95.3z M493.7,81.6v1.3c2.1,0,3.8,1.7,3.8,3.8c0,2.1-1.7,3.8-3.8,3.8v1.3
				c2.8,0,5.1-2.3,5.1-5.1C498.8,83.9,496.5,81.6,493.7,81.6z"/>
		</g>
		<path class="st3" d="M494.6,75.2c0.2,0.1,0.6,0.1,1,0.1c0.6,0,1.3-0.1,2-0.4c1.4-0.7,2-2.5,2-2.5s-1.8-0.6-3.2,0.2
			c-1.4,0.7-2,2.5-2,2.5S494.5,75.2,494.6,75.2z"/>
		<path class="st3" d="M495,72.2c0-1.6-1.3-2.9-1.3-2.9s-1.3,1.3-1.3,2.9c0,1.6,1.3,2.9,1.3,2.9S495,73.8,495,72.2z"/>
	</g>
</g>
</svg>
