<?xml version="1.0" encoding="utf-8"?>
<!-- Generator: Adobe Illustrator 19.2.1, SVG Export Plug-In . SVG Version: 6.00 Build 0)  -->
<svg version="1.1" xmlns="http://www.w3.org/2000/svg" xmlns:xlink="http://www.w3.org/1999/xlink" x="0px" y="0px"
	 viewBox="0 0 512 512" style="enable-background:new 0 0 512 512;" xml:space="preserve">
<style type="text/css">
	.st0{display:none;}
	.st1{display:inline;}
	.st2{fill:#D15A28;}
	.st3{fill:#FFFFFF;}
	.st4{fill:#F99B20;}
	.st5{fill:#51B848;}
	.st6{fill:none;}
	.st7{fill:#F3715D;}
	.st8{display:inline;fill:#F99B20;}
	.st9{fill:#FFFFFF;stroke:#FFFFFF;stroke-miterlimit:10;}
	.st10{fill:#F99B20;stroke:#F99B20;stroke-miterlimit:10;}
</style>
<g id="Final_x5F_3_color" class="st0">
	<g class="st1">
		<g>
			<path class="st2" d="M-251.9,254.5v27.2h-68.9v-27.2H-251.9 M-246.9,249.5h-78.9v37.2h78.9V249.5L-246.9,249.5z"/>
			<g>
				<g>
					<path class="st3" d="M-314.9,286.7h52.8c10.3,0,18.6-8.3,18.6-18.6v0c0-10.3-8.3-18.6-18.6-18.6h-52.8
						c-10.3,0-18.6,8.3-18.6,18.6v0C-333.5,278.4-325.2,286.7-314.9,286.7z"/>
					<path class="st2" d="M-262.1,254.5c7.5,0,13.6,6.1,13.6,13.6c0,7.5-6.1,13.6-13.6,13.6h-52.8c-7.5,0-13.6-6.1-13.6-13.6
						s6.1-13.6,13.6-13.6H-262.1 M-262.1,249.5h-52.8c-10.3,0-18.6,8.3-18.6,18.6v0c0,10.3,8.3,18.6,18.6,18.6h52.8
						c10.3,0,18.6-8.3,18.6-18.6v0C-243.5,257.9-251.8,249.5-262.1,249.5L-262.1,249.5z"/>
				</g>
			</g>
		</g>
		<g>
			<path class="st2" d="M-187.2,254.5v27.2h-68.9v-27.2H-187.2 M-182.2,249.5h-78.9v37.2h78.9V249.5L-182.2,249.5z"/>
			<g>
				<g>
					<path class="st3" d="M-193.1,286.7h-52.8c-10.3,0-18.6-8.3-18.6-18.6v0c0-10.3,8.3-18.6,18.6-18.6h52.8
						c10.3,0,18.6,8.3,18.6,18.6v0C-174.5,278.4-182.8,286.7-193.1,286.7z"/>
					<path class="st2" d="M-193.1,254.5c7.5,0,13.6,6.1,13.6,13.6c0,7.5-6.1,13.6-13.6,13.6h-52.8c-7.5,0-13.6-6.1-13.6-13.6
						s6.1-13.6,13.6-13.6H-193.1 M-193.1,249.5h-52.8c-10.3,0-18.6,8.3-18.6,18.6v0c0,10.3,8.3,18.6,18.6,18.6h52.8
						c10.3,0,18.6-8.3,18.6-18.6v0C-174.5,257.9-182.8,249.5-193.1,249.5L-193.1,249.5z"/>
				</g>
			</g>
		</g>
		<path class="st4" d="M-311.7,259.2c-5.2,0-8.9,3.9-8.9,8.7v0c0,4.8,3.7,8.6,8.9,8.6c3.2,0,5.9-1.5,7.4-3.8c1-1.4,1.5-3.1,1.5-4.9
			v0c0-1.8-0.5-3.4-1.4-4.8C-305.8,260.7-308.5,259.2-311.7,259.2z M-306.7,267.9c0,2.9-2.1,5.2-5,5.2c-3,0-5.1-2.4-5.1-5.3v0
			c0-2.9,2.1-5.2,5-5.2S-306.7,265-306.7,267.9L-306.7,267.9z"/>
		<path class="st4" d="M-187.9,267.9L-187.9,267.9c0-4.8-3.6-8.4-8.9-8.4h-6.5v16.8h6.5C-191.5,276.2-187.9,272.6-187.9,267.9z
			 M-199.6,262.8h2.8c3,0,5,2.1,5,5v0c0,3-2,5-5,5h-2.8V262.8z"/>
		<g>
			<g>
				<path class="st4" d="M-221,254.2c-0.9-2.1-2-4.2-3.3-6.1c-5.2-7.6-13.2-13.2-22.5-15.1c-2.3-0.5-4.8-0.7-7.2-0.7
					c-19.8,0-35.9,16.1-35.9,35.9c0,5,1,9.7,2.8,14c0.9,2.1,2,4.2,3.3,6.1c0.6,1,1.3,1.9,2.1,2.8c6.6,8,16.5,13,27.7,13h0
					c2.5,0,4.9-0.3,7.2-0.7c9.3-1.9,17.4-7.5,22.5-15.1c1.3-1.9,2.4-3.9,3.3-6.1c1.8-4.3,2.8-9,2.8-14
					C-218.1,263.2-219.1,258.5-221,254.2z"/>
				<path class="st3" d="M-254,232.3c2.5,0,4.9,0.3,7.2,0.7c9.3,1.9,17.4,7.5,22.5,15.1c1.3,1.9,2.4,3.9,3.3,6.1
					c1.8,4.3,2.8,9,2.8,14s-1,9.7-2.8,14c-0.9,2.1-2,4.2-3.3,6.1c-5.2,7.6-13.2,13.2-22.5,15.1c-2.3,0.5-4.8,0.7-7.2,0.7h0
					c-11.1,0-21.1-5.1-27.7-13c-0.7-0.9-1.4-1.8-2.1-2.8c-1.3-1.9-2.4-3.9-3.3-6.1c-1.8-4.3-2.8-9-2.8-14
					C-289.9,248.3-273.8,232.3-254,232.3 M-254,226.3c-23.1,0-41.9,18.8-41.9,41.9c0,5.6,1.1,11.1,3.3,16.3c1,2.5,2.3,4.9,3.9,7.1
					c0.7,1.1,1.6,2.2,2.4,3.2c8,9.7,19.8,15.2,32.3,15.2c2.8,0,5.7-0.3,8.4-0.9c10.8-2.2,20.1-8.5,26.3-17.6
					c1.5-2.2,2.8-4.6,3.9-7.1c2.2-5.2,3.3-10.6,3.3-16.3s-1.1-11.1-3.3-16.3c-1-2.5-2.3-4.9-3.9-7.1c-6.2-9.1-15.5-15.4-26.3-17.6
					C-248.3,226.6-251.2,226.3-254,226.3L-254,226.3z"/>
			</g>
			<path class="st2" d="M-222.9,268.1c0-17.1-13.9-31.1-31.1-31.1v10.1v4.8h0v32.4h0v4.8v10.1C-236.9,299.2-222.9,285.3-222.9,268.1
				z M-254,282c7.6,0,13.8-6.2,13.8-13.8c0-7.6-6.2-13.8-13.8-13.8v-4.8c10.3,0,18.6,8.3,18.6,18.6c0,10.3-8.3,18.6-18.6,18.6V282z"
				/>
			<path class="st4" d="M-221,254.2c-0.9-2.1-2-4.2-3.3-6.1c-5.2-7.6-13.2-13.2-22.5-15.1c-2.3-0.5-4.8-0.7-7.2-0.7
				c-19.8,0-35.9,16.1-35.9,35.9c0,5,1,9.7,2.8,14c0.9,2.1,2,4.2,3.3,6.1c0.6,1,1.3,1.9,2.1,2.8c6.6,8,16.5,13,27.7,13h0
				c2.5,0,4.9-0.3,7.2-0.7c9.3-1.9,17.4-7.5,22.5-15.1c1.3-1.9,2.4-3.9,3.3-6.1c1.8-4.3,2.8-9,2.8-14
				C-218.1,263.2-219.1,258.5-221,254.2z M-254,299.2v-10.1v-4.8h0v-32.4h0v-4.8v-10.1c17.1,0,31.1,13.9,31.1,31.1
				C-222.9,285.3-236.9,299.2-254,299.2z"/>
			<path class="st5" d="M-239.6,225.5c5.2-2.7,7.3-9.1,7.3-9.1s-6.4-2-11.6,0.7c-5.2,2.7-7.3,9.1-7.3,9.1S-244.9,228.2-239.6,225.5z
				"/>
			<path class="st5" d="M-249.2,215.5c0-5.9-4.7-10.7-4.7-10.7s-4.7,4.8-4.7,10.7s4.7,10.7,4.7,10.7S-249.2,221.4-249.2,215.5z"/>
			<path class="st4" d="M-235.4,268.1c0-10.3-8.3-18.6-18.6-18.6v4.8c7.6,0,13.8,6.2,13.8,13.8c0,7.6-6.2,13.8-13.8,13.8v4.8
				C-243.7,286.7-235.4,278.4-235.4,268.1z"/>
		</g>
		<g>
			<g>
				<path class="st4" d="M-314.9,230.2c-1.4,2.2-4,2.7-6,1.5l0,0c-2-1.3-2.7-3.9-1.3-6s4-2.7,6-1.5l0,0
					C-314.2,225.4-313.5,228.1-314.9,230.2z M-317.2,225.8c-1.2-0.8-2.8-0.5-3.6,0.8s-0.3,2.7,0.9,3.5l0,0c1.2,0.8,2.8,0.5,3.6-0.8
					C-315.5,228.1-315.9,226.6-317.2,225.8L-317.2,225.8z"/>
				<path class="st4" d="M-297.3,210.8l-3.1-1l-1.1,0.9l1.7,2.1l-1.4,1.1l-5.2-6.5l3-2.4c1.5-1.2,3.1-1.1,4.2,0.2l0,0
					c0.8,1.1,0.8,2.2,0.2,3.1l3.4,1.1L-297.3,210.8z M-300.7,206.5c-0.5-0.6-1.2-0.6-1.9,0l-1.4,1.1l1.5,1.9l1.5-1.2
					C-300.4,207.8-300.2,207.1-300.7,206.5L-300.7,206.5z"/>
				<path class="st4" d="M-281,201.5l-2.8-7.8l1.7-0.6l2.3,6.3l3.9-1.4l0.6,1.6L-281,201.5z"/>
				<path class="st4" d="M-252.6,196.3l-0.8-1.9l-3.5,0.1l-0.7,1.9l-1.9,0l3.4-8.5l1.7,0l3.7,8.3L-252.6,196.3z M-255.2,190.1
					l-1.1,2.7l2.2,0L-255.2,190.1z"/>
				<path class="st4" d="M-228.9,200.8l-2.1-6.3l-1.7,5l-1.7-0.6l2.7-7.9l1.6,0.5l2.1,6.1l1.6-4.9l1.7,0.6l-2.7,7.9L-228.9,200.8z"
					/>
				<path class="st4" d="M-209.8,211.6l-2.5-2l5.2-6.5l2.5,2c2.1,1.6,2.4,4.2,0.9,6l0,0C-205.2,212.9-207.7,213.2-209.8,211.6z
					 M-205.2,209.8c0.9-1.2,0.8-2.6-0.4-3.5l-1.1-0.9l-3.1,3.9l1.1,0.9C-207.6,211.2-206.1,211-205.2,209.8L-205.2,209.8z"/>
				<path class="st4" d="M-193.1,230.3c-1.4-2.2-0.7-4.8,1.3-6l0,0c2-1.3,4.6-0.7,6,1.5c1.4,2.2,0.7,4.8-1.3,6l0,0
					C-189.1,233.1-191.7,232.5-193.1,230.3z M-188.1,230.2c1.2-0.8,1.7-2.3,0.9-3.5c-0.8-1.3-2.3-1.5-3.5-0.8l0,0
					c-1.2,0.8-1.7,2.3-0.9,3.5C-190.9,230.7-189.3,230.9-188.1,230.2L-188.1,230.2z"/>
			</g>
			<g>
				<path class="st4" d="M-322.1,309.9l-1.7-2.8l7.1-4.4l1.7,2.8c1.4,2.2,0.8,4.7-1.2,5.9l0,0C-318.2,312.7-320.7,312.1-322.1,309.9
					z M-317.2,309.8c1.3-0.8,1.6-2.2,0.8-3.5l-0.7-1.2l-4.3,2.7l0.7,1.2C-319.9,310.3-318.5,310.6-317.2,309.8L-317.2,309.8z"/>
				<path class="st4" d="M-310.6,324.5l5.7-6.1l4.6,4.3l-1.1,1.2l-3.3-3l-1.2,1.2l2.9,2.7l-1.1,1.2l-2.9-2.7l-1.2,1.3l3.3,3.1
					l-1.1,1.2L-310.6,324.5z"/>
				<path class="st4" d="M-291.9,338.5c-1.1-0.6-2-1.6-2.5-2.9l1.6-0.6c0.4,0.9,0.9,1.6,1.7,2.1c0.7,0.4,1.2,0.3,1.4-0.1l0,0
					c0.2-0.4,0.1-0.8-1-1.7c-1.3-1.2-2-2.1-1.2-3.6l0,0c0.7-1.3,2.3-1.6,3.8-0.8c1.1,0.6,1.8,1.4,2.2,2.4l-1.5,0.8
					c-0.4-0.8-0.9-1.4-1.5-1.8c-0.6-0.3-1.1-0.2-1.3,0.1l0,0c-0.3,0.5,0,0.8,1.1,1.8c1.3,1.2,1.8,2.2,1.1,3.5l0,0
					C-288.8,339.2-290.4,339.4-291.9,338.5z"/>
				<path class="st4" d="M-276.1,344.9l2.2-8l1.8,0.5l-2.2,8L-276.1,344.9z"/>
				<path class="st4" d="M-256.1,348.1c-2.6-0.1-4.3-2-4.2-4.4l0,0c0.1-2.4,2-4.3,4.5-4.2c1.5,0,2.4,0.5,3.2,1.2l-1.2,1.4
					c-0.6-0.6-1.2-0.9-2.2-0.9c-1.3,0-2.4,1.1-2.5,2.5l0,0c0,1.5,1,2.7,2.4,2.7c0.7,0,1.3-0.1,1.7-0.4l0-1.2l-1.8-0.1l0-1.6l3.6,0.1
					l-0.1,3.6C-253.4,347.6-254.6,348.1-256.1,348.1z"/>
				<path class="st4" d="M-232.5,345.1l-5.2-4.2l1.3,5.1l-1.8,0.4l-2-8.1l1.6-0.4l5,4l-1.2-5l1.8-0.4l2,8.1L-232.5,345.1z"/>
				<path class="st4" d="M-217.5,339.2l-4.1-7.3l5.5-3.1l0.8,1.4l-3.9,2.2l0.8,1.5l3.4-1.9l0.8,1.4l-3.4,1.9l0.9,1.5l3.9-2.2
					l0.8,1.4L-217.5,339.2z"/>
				<path class="st4" d="M-196.9,324l-3.1-0.7l-1,1l1.9,1.9l-1.3,1.3l-5.8-6l2.7-2.7c1.4-1.4,3-1.5,4.2-0.2l0,0c0.9,1,1,2.1,0.5,3.1
					l3.5,0.7L-196.9,324z M-200.7,320c-0.5-0.6-1.2-0.5-1.9,0.2l-1.3,1.3l1.7,1.7l1.3-1.3C-200.3,321.3-200.2,320.6-200.7,320
					L-200.7,320z"/>
				<path class="st4" d="M-185.3,309c-0.6,1.1-1.7,1.9-3,2.3l-0.6-1.6c0.9-0.3,1.7-0.8,2.1-1.6c0.4-0.6,0.4-1.2-0.1-1.4l0,0
					c-0.4-0.2-0.7-0.1-1.8,0.9c-1.2,1.2-2.2,1.9-3.6,1.1l0,0c-1.3-0.8-1.5-2.3-0.7-3.8c0.6-1,1.5-1.7,2.5-2.1l0.7,1.5
					c-0.8,0.4-1.5,0.8-1.8,1.4c-0.4,0.6-0.3,1.1,0.1,1.3l0,0c0.5,0.3,0.8,0.1,1.9-1c1.2-1.2,2.3-1.7,3.5-1l0,0
					C-184.5,305.9-184.4,307.5-185.3,309z"/>
			</g>
			<g>
				<circle class="st6" cx="-254" cy="268.1" r="79.8"/>
			</g>
		</g>
		<g>
			<path class="st5" d="M-271.8,322v-4.9h3.7v1h-2.6v1h2.3v1h-2.3v1h2.7v1H-271.8z"/>
			<path class="st5" d="M-264.7,322.1c-0.7,0-1.5-0.3-2.1-0.8l0.6-0.8c0.4,0.4,0.9,0.6,1.5,0.6c0.4,0,0.7-0.2,0.7-0.5v0
				c0-0.3-0.2-0.4-1-0.6c-1-0.3-1.6-0.5-1.6-1.5v0c0-0.9,0.7-1.5,1.7-1.5c0.7,0,1.3,0.2,1.8,0.6l-0.6,0.8c-0.4-0.3-0.9-0.5-1.3-0.5
				s-0.6,0.2-0.6,0.4v0c0,0.3,0.2,0.4,1.1,0.6c1,0.3,1.6,0.6,1.6,1.5v0C-262.9,321.5-263.6,322.1-264.7,322.1z"/>
			<path class="st5" d="M-259.2,318.1v3.9h-1.1v-3.9h-1.5v-1h4.1v1H-259.2z"/>
			<path class="st5" d="M-253.4,318.6l-0.8-0.6c0.5-0.7,1-1,1.8-1c1,0,1.7,0.6,1.7,1.5c0,0.8-0.4,1.2-1.3,1.9l-0.8,0.6h2.1v0.9h-3.6
				v-0.9l1.6-1.3c0.6-0.5,0.8-0.8,0.8-1.2c0-0.4-0.3-0.6-0.7-0.6C-252.7,318-253,318.2-253.4,318.6z"/>
			<path class="st5" d="M-247,322.1c-1.3,0-2.2-1.1-2.2-2.5s0.9-2.5,2.2-2.5s2.2,1.1,2.2,2.5S-245.7,322.1-247,322.1z M-247,318
				c-0.7,0-1.1,0.7-1.1,1.6s0.4,1.6,1.1,1.6s1.1-0.7,1.1-1.6S-246.4,318-247,318z"/>
			<path class="st5" d="M-242.4,317.1h0.7v4.9h-1.1v-3.8l-0.9,0.2l-0.2-0.9L-242.4,317.1z"/>
			<path class="st5" d="M-239.7,317.1h3v0.9h-2.1l-0.1,0.8c0.2,0,0.4-0.1,0.6-0.1c1,0,1.7,0.5,1.7,1.6c0,1-0.7,1.7-1.9,1.7
				c-0.8,0-1.4-0.3-1.8-0.7l0.7-0.8c0.4,0.3,0.7,0.5,1.2,0.5c0.5,0,0.8-0.2,0.8-0.7c0-0.4-0.3-0.7-0.9-0.7c-0.3,0-0.6,0.1-0.8,0.2
				l-0.6-0.4L-239.7,317.1z"/>
		</g>
	</g>
</g>
<g id="Final_x5F_2_color" class="st0">
	<g class="st1">
		<g>
			<path class="st6" d="M-254,232.3L-254,232.3c0.6,0,1.2,0,1.8,0C-252.8,232.3-253.4,232.3-254,232.3z"/>
			<path class="st6" d="M-254,304c0.6,0,1.2,0,1.8,0C-252.8,304-253.4,304-254,304L-254,304z"/>
			<path class="st4" d="M-322.4,285.2c-0.2-0.1-0.4-0.2-0.6-0.3c-0.8-0.4-1.6-0.8-2.3-1.3c-0.2-0.1-0.3-0.3-0.5-0.4v3.6h10.9
				c-2.4,0-4.7-0.5-6.8-1.3C-321.9,285.4-322.2,285.3-322.4,285.2z"/>
			<path class="st4" d="M-323,251.4c0.2-0.1,0.4-0.2,0.6-0.3c0.2-0.1,0.4-0.2,0.6-0.3c2.1-0.8,4.4-1.3,6.8-1.3h-10.9v3.6
				c0.2-0.1,0.3-0.3,0.5-0.4C-324.6,252.2-323.8,251.8-323,251.4z"/>
			<path class="st4" d="M-293.6,281.7h-21.3c-7.5,0-13.6-6.1-13.6-13.6c0-7.5,6.1-13.6,13.6-13.6h21.3c0.6-1.7,1.3-3.4,2.1-5h-23.4
				h0c0,0,0,0,0,0c-2.4,0-4.7,0.5-6.8,1.3c-0.2,0.1-0.4,0.2-0.6,0.3c-0.2,0.1-0.4,0.2-0.6,0.3c-0.8,0.4-1.6,0.8-2.3,1.3
				c-0.2,0.1-0.3,0.3-0.5,0.4c-0.3,0.2-0.6,0.4-0.9,0.7c-1.4,1.1-2.6,2.5-3.6,4c-2,3-3.2,6.5-3.2,10.4v0c0,3.9,1.2,7.4,3.2,10.4
				c1,1.5,2.2,2.8,3.6,4c0.3,0.2,0.6,0.5,0.9,0.7c0.2,0.1,0.3,0.3,0.5,0.4c0.7,0.5,1.5,1,2.3,1.3c0.2,0.1,0.4,0.2,0.6,0.3
				c0.2,0.1,0.4,0.2,0.6,0.3c2.1,0.8,4.4,1.3,6.8,1.3c0,0,0,0,0,0h0h23.4c-0.4-0.8-0.7-1.5-1.1-2.3
				C-292.9,283.5-293.3,282.6-293.6,281.7z"/>
			<path class="st4" d="M-193.1,286.7h10.9v-3.6c-0.2,0.1-0.3,0.3-0.5,0.4C-185.7,285.6-189.2,286.7-193.1,286.7z"/>
			<path class="st4" d="M-182.2,253.1v-3.6h-10.9c3.9,0,7.4,1.2,10.4,3.2C-182.5,252.8-182.3,253-182.2,253.1z"/>
			<path class="st4" d="M-177.7,257.7c-0.7-1-1.4-1.9-2.3-2.8c-0.7-0.7-1.5-1.3-2.2-1.9c-0.2-0.1-0.3-0.3-0.5-0.4
				c-3-2-6.5-3.2-10.4-3.2c0,0,0,0,0,0h0h-23.4c0.4,0.8,0.7,1.5,1.1,2.3c0.4,0.9,0.7,1.8,1,2.7h21.3c7.5,0,13.6,6.1,13.6,13.6
				c0,7.5-6.1,13.6-13.6,13.6h-21.3c-0.3,0.9-0.6,1.8-1,2.7c-0.3,0.8-0.7,1.5-1.1,2.3h23.4h0c0,0,0,0,0,0c3.9,0,7.4-1.2,10.4-3.2
				c0.2-0.1,0.3-0.3,0.5-0.4c0.8-0.6,1.6-1.2,2.2-1.9c0.8-0.8,1.6-1.8,2.3-2.8c2-3,3.2-6.5,3.2-10.4v0
				C-174.5,264.3-175.7,260.7-177.7,257.7z"/>
			<path class="st4" d="M-222.5,251c-0.6-1-1.2-2-1.8-3c-1.6-2.4-3.5-4.6-5.6-6.5c-0.5-0.5-1.1-0.9-1.6-1.4
				c-1.1-0.9-2.3-1.7-3.5-2.5c-0.6-0.4-1.2-0.7-1.9-1.1c-3-1.7-6.4-2.9-9.9-3.6c-1.2-0.2-2.4-0.4-3.6-0.5c-0.6-0.1-1.2-0.1-1.8-0.1
				c-0.6,0-1.2,0-1.8,0c-19.8,0-35.9,16.1-35.9,35.9c0,5,1,9.7,2.8,14c0.2,0.5,0.5,1.1,0.7,1.6c0.8,1.6,1.6,3.1,2.6,4.5
				c0.3,0.5,0.7,0.9,1,1.4s0.7,0.9,1.1,1.4c0.8,1,1.7,1.9,2.6,2.8c1.8,1.8,3.9,3.4,6.1,4.8c1.1,0.7,2.2,1.3,3.4,1.9
				c4.7,2.3,10,3.5,15.5,3.5h0c0.6,0,1.2,0,1.8,0s1.2-0.1,1.8-0.1c1.2-0.1,2.4-0.3,3.6-0.5c3.5-0.7,6.8-1.9,9.9-3.6
				c0.6-0.3,1.3-0.7,1.9-1.1c1.2-0.8,2.4-1.6,3.5-2.5c0.6-0.5,1.1-0.9,1.6-1.4c2.1-1.9,4-4.1,5.6-6.5c0.6-1,1.2-1.9,1.8-3
				c0.6-1,1.1-2.1,1.5-3.1c1.8-4.3,2.8-9,2.8-14c0-5-1-9.7-2.8-14C-221.4,253.1-221.9,252.1-222.5,251z M-254,299.2v-10.1v-4.8h0
				v-32.4h0v-4.8v-10.1c17.1,0,31.1,13.9,31.1,31.1C-222.9,285.3-236.9,299.2-254,299.2z"/>
			<path class="st5" d="M-239.6,225.5c5.2-2.7,7.3-9.1,7.3-9.1s-6.4-2-11.6,0.7c-5.2,2.7-7.3,9.1-7.3,9.1s0.3,0.1,0.8,0.2
				c0.8,0.2,2.1,0.4,3.7,0.5C-244.6,227-242,226.7-239.6,225.5z"/>
			<path class="st5" d="M-249.2,215.5c0-5.9-4.7-10.7-4.7-10.7s-4.7,4.8-4.7,10.7c0,5.9,4.7,10.7,4.7,10.7S-249.2,221.4-249.2,215.5
				z"/>
			<path class="st4" d="M-254,249.5v4.8c7.6,0,13.8,6.2,13.8,13.8c0,7.6-6.2,13.8-13.8,13.8v4.8c10.3,0,18.6-8.3,18.6-18.6
				C-235.4,257.9-243.7,249.5-254,249.5z"/>
		</g>
		<path class="st5" d="M-311.7,259.2c-5.2,0-8.9,3.9-8.9,8.7v0c0,4.8,3.7,8.6,8.9,8.6c3.2,0,5.9-1.5,7.4-3.8c1-1.4,1.5-3.1,1.5-4.9
			v0c0-1.8-0.5-3.4-1.4-4.8C-305.8,260.7-308.5,259.2-311.7,259.2z M-306.7,267.9c0,2.9-2.1,5.2-5,5.2c-3,0-5.1-2.4-5.1-5.3v0
			c0-2.9,2.1-5.2,5-5.2S-306.7,265-306.7,267.9L-306.7,267.9z"/>
		<path class="st5" d="M-187.9,267.9L-187.9,267.9c0-4.8-3.6-8.4-8.9-8.4h-6.5v16.8h6.5C-191.5,276.2-187.9,272.6-187.9,267.9z
			 M-199.6,262.8h2.8c3,0,5,2.1,5,5v0c0,3-2,5-5,5h-2.8V262.8z"/>
		<g>
			<g>
				<path class="st4" d="M-314.9,230.2c-1.4,2.2-4,2.7-6,1.5l0,0c-2-1.3-2.7-3.9-1.3-6s4-2.7,6-1.5l0,0
					C-314.2,225.4-313.5,228.1-314.9,230.2z M-317.2,225.8c-1.2-0.8-2.8-0.5-3.6,0.8s-0.3,2.7,0.9,3.5l0,0c1.2,0.8,2.8,0.5,3.6-0.8
					C-315.5,228.1-315.9,226.6-317.2,225.8L-317.2,225.8z"/>
				<path class="st4" d="M-297.3,210.8l-3.1-1l-1.1,0.9l1.7,2.1l-1.4,1.1l-5.2-6.5l3-2.4c1.5-1.2,3.1-1.1,4.2,0.2l0,0
					c0.8,1.1,0.8,2.2,0.2,3.1l3.4,1.1L-297.3,210.8z M-300.7,206.5c-0.5-0.6-1.2-0.6-1.9,0l-1.4,1.1l1.5,1.9l1.5-1.2
					C-300.4,207.8-300.2,207.1-300.7,206.5L-300.7,206.5z"/>
				<path class="st4" d="M-281,201.5l-2.8-7.8l1.7-0.6l2.3,6.3l3.9-1.4l0.6,1.6L-281,201.5z"/>
				<path class="st4" d="M-252.6,196.3l-0.8-1.9l-3.5,0.1l-0.7,1.9l-1.9,0l3.4-8.5l1.7,0l3.7,8.3L-252.6,196.3z M-255.2,190.1
					l-1.1,2.7l2.2,0L-255.2,190.1z"/>
				<path class="st4" d="M-228.9,200.8l-2.1-6.3l-1.7,5l-1.7-0.6l2.7-7.9l1.6,0.5l2.1,6.1l1.6-4.9l1.7,0.6l-2.7,7.9L-228.9,200.8z"
					/>
				<path class="st4" d="M-209.8,211.6l-2.5-2l5.2-6.5l2.5,2c2.1,1.6,2.4,4.2,0.9,6l0,0C-205.2,212.9-207.7,213.2-209.8,211.6z
					 M-205.2,209.8c0.9-1.2,0.8-2.6-0.4-3.5l-1.1-0.9l-3.1,3.9l1.1,0.9C-207.6,211.2-206.1,211-205.2,209.8L-205.2,209.8z"/>
				<path class="st4" d="M-193.1,230.3c-1.4-2.2-0.7-4.8,1.3-6l0,0c2-1.3,4.6-0.7,6,1.5c1.4,2.2,0.7,4.8-1.3,6l0,0
					C-189.1,233.1-191.7,232.5-193.1,230.3z M-188.1,230.2c1.2-0.8,1.7-2.3,0.9-3.5c-0.8-1.3-2.3-1.5-3.5-0.8l0,0
					c-1.2,0.8-1.7,2.3-0.9,3.5C-190.9,230.7-189.3,230.9-188.1,230.2L-188.1,230.2z"/>
			</g>
			<g>
				<path class="st4" d="M-322.1,309.9l-1.7-2.8l7.1-4.4l1.7,2.8c1.4,2.2,0.8,4.7-1.2,5.9l0,0C-318.2,312.7-320.7,312.1-322.1,309.9
					z M-317.2,309.8c1.3-0.8,1.6-2.2,0.8-3.5l-0.7-1.2l-4.3,2.7l0.7,1.2C-319.9,310.3-318.5,310.6-317.2,309.8L-317.2,309.8z"/>
				<path class="st4" d="M-310.6,324.5l5.7-6.1l4.6,4.3l-1.1,1.2l-3.3-3l-1.2,1.2l2.9,2.7l-1.1,1.2l-2.9-2.7l-1.2,1.3l3.3,3.1
					l-1.1,1.2L-310.6,324.5z"/>
				<path class="st4" d="M-291.9,338.5c-1.1-0.6-2-1.6-2.5-2.9l1.6-0.6c0.4,0.9,0.9,1.6,1.7,2.1c0.7,0.4,1.2,0.3,1.4-0.1l0,0
					c0.2-0.4,0.1-0.8-1-1.7c-1.3-1.2-2-2.1-1.2-3.6l0,0c0.7-1.3,2.3-1.6,3.8-0.8c1.1,0.6,1.8,1.4,2.2,2.4l-1.5,0.8
					c-0.4-0.8-0.9-1.4-1.5-1.8c-0.6-0.3-1.1-0.2-1.3,0.1l0,0c-0.3,0.5,0,0.8,1.1,1.8c1.3,1.2,1.8,2.2,1.1,3.5l0,0
					C-288.8,339.2-290.4,339.4-291.9,338.5z"/>
				<path class="st4" d="M-276.1,344.9l2.2-8l1.8,0.5l-2.2,8L-276.1,344.9z"/>
				<path class="st4" d="M-256.1,348.1c-2.6-0.1-4.3-2-4.2-4.4l0,0c0.1-2.4,2-4.3,4.5-4.2c1.5,0,2.4,0.5,3.2,1.2l-1.2,1.4
					c-0.6-0.6-1.2-0.9-2.2-0.9c-1.3,0-2.4,1.1-2.5,2.5l0,0c0,1.5,1,2.7,2.4,2.7c0.7,0,1.3-0.1,1.7-0.4l0-1.2l-1.8-0.1l0-1.6l3.6,0.1
					l-0.1,3.6C-253.4,347.6-254.6,348.1-256.1,348.1z"/>
				<path class="st4" d="M-232.5,345.1l-5.2-4.2l1.3,5.1l-1.8,0.4l-2-8.1l1.6-0.4l5,4l-1.2-5l1.8-0.4l2,8.1L-232.5,345.1z"/>
				<path class="st4" d="M-217.5,339.2l-4.1-7.3l5.5-3.1l0.8,1.4l-3.9,2.2l0.8,1.5l3.4-1.9l0.8,1.4l-3.4,1.9l0.9,1.5l3.9-2.2
					l0.8,1.4L-217.5,339.2z"/>
				<path class="st4" d="M-196.9,324l-3.1-0.7l-1,1l1.9,1.9l-1.3,1.3l-5.8-6l2.7-2.7c1.4-1.4,3-1.5,4.2-0.2l0,0c0.9,1,1,2.1,0.5,3.1
					l3.5,0.7L-196.9,324z M-200.7,320c-0.5-0.6-1.2-0.5-1.9,0.2l-1.3,1.3l1.7,1.7l1.3-1.3C-200.3,321.3-200.2,320.6-200.7,320
					L-200.7,320z"/>
				<path class="st4" d="M-185.3,309c-0.6,1.1-1.7,1.9-3,2.3l-0.6-1.6c0.9-0.3,1.7-0.8,2.1-1.6c0.4-0.6,0.4-1.2-0.1-1.4l0,0
					c-0.4-0.2-0.7-0.1-1.8,0.9c-1.2,1.2-2.2,1.9-3.6,1.1l0,0c-1.3-0.8-1.5-2.3-0.7-3.8c0.6-1,1.5-1.7,2.5-2.1l0.7,1.5
					c-0.8,0.4-1.5,0.8-1.8,1.4c-0.4,0.6-0.3,1.1,0.1,1.3l0,0c0.5,0.3,0.8,0.1,1.9-1c1.2-1.2,2.3-1.7,3.5-1l0,0
					C-184.5,305.9-184.4,307.5-185.3,309z"/>
			</g>
			<g>
				<circle class="st6" cx="-254" cy="268.1" r="79.8"/>
			</g>
		</g>
		<g>
			<path class="st5" d="M-271.8,322v-4.9h3.7v1h-2.6v1h2.3v1h-2.3v1h2.7v1H-271.8z"/>
			<path class="st5" d="M-264.7,322.1c-0.7,0-1.5-0.3-2.1-0.8l0.6-0.8c0.4,0.4,0.9,0.6,1.5,0.6c0.4,0,0.7-0.2,0.7-0.5v0
				c0-0.3-0.2-0.4-1-0.6c-1-0.3-1.6-0.5-1.6-1.5v0c0-0.9,0.7-1.5,1.7-1.5c0.7,0,1.3,0.2,1.8,0.6l-0.6,0.8c-0.4-0.3-0.9-0.5-1.3-0.5
				s-0.6,0.2-0.6,0.4v0c0,0.3,0.2,0.4,1.1,0.6c1,0.3,1.6,0.6,1.6,1.5v0C-262.9,321.5-263.6,322.1-264.7,322.1z"/>
			<path class="st5" d="M-259.2,318.1v3.9h-1.1v-3.9h-1.5v-1h4.1v1H-259.2z"/>
			<path class="st5" d="M-253.4,318.6l-0.8-0.6c0.5-0.7,1-1,1.8-1c1,0,1.7,0.6,1.7,1.5c0,0.8-0.4,1.2-1.3,1.9l-0.8,0.6h2.1v0.9h-3.6
				v-0.9l1.6-1.3c0.6-0.5,0.8-0.8,0.8-1.2c0-0.4-0.3-0.6-0.7-0.6C-252.7,318-253,318.2-253.4,318.6z"/>
			<path class="st5" d="M-247,322.1c-1.3,0-2.2-1.1-2.2-2.5s0.9-2.5,2.2-2.5s2.2,1.1,2.2,2.5S-245.7,322.1-247,322.1z M-247,318
				c-0.7,0-1.1,0.7-1.1,1.6s0.4,1.6,1.1,1.6s1.1-0.7,1.1-1.6S-246.4,318-247,318z"/>
			<path class="st5" d="M-242.4,317.1h0.7v4.9h-1.1v-3.8l-0.9,0.2l-0.2-0.9L-242.4,317.1z"/>
			<path class="st5" d="M-239.7,317.1h3v0.9h-2.1l-0.1,0.8c0.2,0,0.4-0.1,0.6-0.1c1,0,1.7,0.5,1.7,1.6c0,1-0.7,1.7-1.9,1.7
				c-0.8,0-1.4-0.3-1.8-0.7l0.7-0.8c0.4,0.3,0.7,0.5,1.2,0.5c0.5,0,0.8-0.2,0.8-0.7c0-0.4-0.3-0.7-0.9-0.7c-0.3,0-0.6,0.1-0.8,0.2
				l-0.6-0.4L-239.7,317.1z"/>
		</g>
	</g>
</g>
<g id="Final_x5F_1_color" class="st0">
	<g class="st1">
		<path class="st4" d="M-323,251.4c0.2-0.1,0.4-0.2,0.6-0.3c0.2-0.1,0.4-0.2,0.6-0.3c2.1-0.8,4.4-1.3,6.8-1.3h-10.9v3.6
			c0.2-0.1,0.3-0.3,0.5-0.4C-324.6,252.2-323.8,251.8-323,251.4z"/>
		<path class="st4" d="M-322.4,285.2c-0.2-0.1-0.4-0.2-0.6-0.3c-0.8-0.4-1.6-0.8-2.3-1.3c-0.2-0.1-0.3-0.3-0.5-0.4v3.6h10.9
			c-2.4,0-4.7-0.5-6.8-1.3C-321.9,285.4-322.2,285.3-322.4,285.2z"/>
		<path class="st4" d="M-293.6,281.7h-21.3c-7.5,0-13.6-6.1-13.6-13.6c0-7.5,6.1-13.6,13.6-13.6h21.3c0.6-1.7,1.3-3.4,2.1-5h-23.4h0
			c0,0,0,0,0,0c0,0,0,0,0,0c-2.4,0-4.7,0.5-6.8,1.3c-0.2,0.1-0.4,0.2-0.6,0.3c-0.2,0.1-0.4,0.2-0.6,0.3c-0.8,0.4-1.6,0.8-2.3,1.3
			c-0.2,0.1-0.3,0.3-0.5,0.4c-0.3,0.2-0.6,0.4-0.9,0.7c-1.4,1.1-2.6,2.5-3.6,4c-2,3-3.2,6.5-3.2,10.4v0c0,3.9,1.2,7.4,3.2,10.4
			c1,1.5,2.2,2.8,3.6,4c0.3,0.2,0.6,0.5,0.9,0.7c0.2,0.1,0.3,0.3,0.5,0.4c0.7,0.5,1.5,1,2.3,1.3c0.2,0.1,0.4,0.2,0.6,0.3
			c0.2,0.1,0.4,0.2,0.6,0.3c2.1,0.8,4.4,1.3,6.8,1.3c0,0,0,0,0,0c0,0,0,0,0,0h0h23.4c-0.4-0.8-0.7-1.5-1.1-2.3
			C-292.9,283.5-293.3,282.6-293.6,281.7z"/>
		<path class="st4" d="M-182.2,253.1v-3.6h-10.9c3.9,0,7.4,1.2,10.4,3.2C-182.5,252.8-182.3,253-182.2,253.1z"/>
		<path class="st4" d="M-193.1,286.7h10.9v-3.6c-0.2,0.1-0.3,0.3-0.5,0.4C-185.7,285.6-189.2,286.7-193.1,286.7z"/>
		<path class="st4" d="M-177.7,257.7c-0.7-1-1.4-1.9-2.3-2.8c-0.7-0.7-1.5-1.3-2.2-1.9c-0.2-0.1-0.3-0.3-0.5-0.4
			c-3-2-6.5-3.2-10.4-3.2c0,0,0,0,0,0h0h-23.4c0.4,0.8,0.7,1.5,1.1,2.3c0.4,0.9,0.7,1.8,1,2.7h21.3c7.5,0,13.6,6.1,13.6,13.6
			c0,7.5-6.1,13.6-13.6,13.6h-21.3c-0.3,0.9-0.6,1.8-1,2.7c-0.3,0.8-0.7,1.5-1.1,2.3h23.4h0c0,0,0,0,0,0c3.9,0,7.4-1.2,10.4-3.2
			c0.2-0.1,0.3-0.3,0.5-0.4c0.8-0.6,1.6-1.2,2.2-1.9c0.8-0.8,1.6-1.8,2.3-2.8c2-3,3.2-6.5,3.2-10.4v0
			C-174.5,264.3-175.7,260.7-177.7,257.7z"/>
		<path class="st4" d="M-320.7,267.9L-320.7,267.9c0,4.8,3.7,8.7,8.9,8.7c3.2,0,5.9-1.5,7.4-3.8c1-1.4,1.5-3.1,1.5-4.9v0
			c0-1.8-0.5-3.4-1.4-4.8c-1.5-2.3-4.2-3.8-7.4-3.8C-316.9,259.2-320.7,263.1-320.7,267.9z M-316.8,267.8c0-2.9,2.1-5.2,5-5.2
			s5.1,2.4,5.1,5.3v0c0,2.9-2.1,5.2-5,5.2C-314.7,273.1-316.8,270.7-316.8,267.8L-316.8,267.8z"/>
		<path class="st4" d="M-187.9,267.9L-187.9,267.9c0-4.8-3.6-8.4-8.9-8.4h-6.5v16.8h6.5C-191.5,276.2-187.9,272.6-187.9,267.9z
			 M-199.6,262.8h2.8c3,0,5,2.1,5,5v0c0,3-2,5-5,5h-2.8V262.8z"/>
		<path class="st4" d="M-222.5,251c-0.6-1-1.2-2-1.8-3c-1.6-2.4-3.5-4.6-5.6-6.5c-0.5-0.5-1.1-0.9-1.6-1.4c-1.1-0.9-2.3-1.7-3.5-2.5
			c-0.6-0.4-1.2-0.7-1.9-1.1c-3-1.7-6.4-2.9-9.9-3.6c-1.2-0.2-2.4-0.4-3.6-0.5c-0.6-0.1-1.2-0.1-1.8-0.1c-0.6,0-1.2,0-1.8,0
			c-19.8,0-35.9,16.1-35.9,35.9c0,5,1,9.7,2.8,14c0.2,0.5,0.5,1.1,0.7,1.6c0.8,1.6,1.6,3.1,2.6,4.5c0.3,0.5,0.7,0.9,1,1.4
			s0.7,0.9,1.1,1.4c0.8,1,1.7,1.9,2.6,2.8c1.8,1.8,3.9,3.4,6.1,4.8c1.1,0.7,2.2,1.3,3.4,1.9c4.7,2.3,10,3.5,15.5,3.5h0
			c0.6,0,1.2,0,1.8,0s1.2-0.1,1.8-0.1c1.2-0.1,2.4-0.3,3.6-0.5c3.5-0.7,6.8-1.9,9.9-3.6c0.6-0.3,1.3-0.7,1.9-1.1
			c1.2-0.8,2.4-1.6,3.5-2.5c0.6-0.5,1.1-0.9,1.6-1.4c2.1-1.9,4-4.1,5.6-6.5c0.6-1,1.2-1.9,1.8-3c0.6-1,1.1-2.1,1.5-3.1
			c1.8-4.3,2.8-9,2.8-14c0-5-1-9.7-2.8-14C-221.4,253.1-221.9,252.1-222.5,251z M-254,299.2v-10.1v-4.8h0v-32.4h0v-4.8v-10.1
			c17.1,0,31.1,13.9,31.1,31.1C-222.9,285.3-236.9,299.2-254,299.2z"/>
		<path class="st4" d="M-239.6,225.5c5.2-2.7,7.3-9.1,7.3-9.1s-6.4-2-11.6,0.7c-5.2,2.7-7.3,9.1-7.3,9.1s0.3,0.1,0.8,0.2
			c0.8,0.2,2.1,0.4,3.7,0.5C-244.6,227-242,226.7-239.6,225.5z"/>
		<path class="st4" d="M-258.7,215.5c0,5.9,4.7,10.7,4.7,10.7s4.7-4.8,4.7-10.7c0-5.9-4.7-10.7-4.7-10.7S-258.7,209.6-258.7,215.5z"
			/>
		<path class="st4" d="M-254,249.5v4.8c7.6,0,13.8,6.2,13.8,13.8c0,7.6-6.2,13.8-13.8,13.8v4.8c10.3,0,18.6-8.3,18.6-18.6
			C-235.4,257.9-243.7,249.5-254,249.5z"/>
		<path class="st4" d="M-320.9,231.7L-320.9,231.7c2,1.3,4.6,0.7,6-1.5c1.4-2.2,0.7-4.8-1.3-6l0,0c-2-1.3-4.6-0.7-6,1.5
			S-322.9,230.5-320.9,231.7z M-320.7,226.6c0.8-1.3,2.3-1.5,3.6-0.8l0,0c1.2,0.8,1.7,2.2,0.9,3.5c-0.8,1.3-2.3,1.5-3.6,0.8l0,0
			C-321.1,229.3-321.5,227.8-320.7,226.6z"/>
		<path class="st4" d="M-299.8,212.8l-1.7-2.1l1.1-0.9l3.1,1l1.7-1.3l-3.4-1.1c0.6-1,0.6-2.1-0.2-3.1l0,0c-1.1-1.3-2.6-1.4-4.2-0.2
			l-3,2.4l5.2,6.5L-299.8,212.8z M-304,207.6l1.4-1.1c0.7-0.6,1.4-0.6,1.9,0l0,0c0.4,0.5,0.3,1.2-0.4,1.8l-1.5,1.2L-304,207.6z"/>
		<polygon class="st4" points="-275.4,199.5 -275.9,197.9 -279.8,199.3 -282.1,193 -283.8,193.7 -281,201.5 		"/>
		<path class="st4" d="M-256.9,194.5l3.5-0.1l0.8,1.9l1.9,0l-3.7-8.3l-1.7,0l-3.4,8.5l1.9,0L-256.9,194.5z M-255.2,190.1l1.2,2.7
			l-2.2,0L-255.2,190.1z"/>
		<polygon class="st4" points="-231.1,194.5 -228.9,200.8 -227.5,201.3 -224.8,193.4 -226.5,192.8 -228.1,197.7 -230.2,191.6 
			-231.8,191 -234.5,198.9 -232.8,199.5 		"/>
		<path class="st4" d="M-203.7,211L-203.7,211c1.5-1.9,1.2-4.4-0.9-6l-2.5-2l-5.2,6.5l2.5,2C-207.7,213.2-205.2,212.9-203.7,211z
			 M-206.7,205.4l1.1,0.9c1.2,0.9,1.3,2.4,0.4,3.5l0,0c-0.9,1.2-2.3,1.3-3.5,0.4l-1.1-0.9L-206.7,205.4z"/>
		<path class="st4" d="M-187.1,231.8L-187.1,231.8c2-1.3,2.7-3.8,1.3-6c-1.4-2.2-4-2.7-6-1.5l0,0c-2,1.3-2.7,3.8-1.3,6
			C-191.7,232.5-189.1,233.1-187.1,231.8z M-190.8,225.9L-190.8,225.9c1.2-0.8,2.8-0.5,3.5,0.7c0.8,1.3,0.3,2.8-0.9,3.5l0,0
			c-1.2,0.8-2.7,0.5-3.5-0.8C-192.4,228.2-192,226.7-190.8,225.9z"/>
		<path class="st4" d="M-316.7,302.7l-7.1,4.4l1.7,2.8c1.4,2.2,3.9,2.8,5.9,1.6l0,0c2-1.2,2.6-3.7,1.2-5.9L-316.7,302.7z
			 M-317.2,309.8L-317.2,309.8c-1.3,0.8-2.7,0.5-3.5-0.8l-0.7-1.2l4.3-2.7l0.7,1.2C-315.6,307.6-315.9,309-317.2,309.8z"/>
		<polygon class="st4" points="-310.6,324.5 -306,328.8 -304.9,327.6 -308.2,324.5 -307,323.3 -304.1,325.9 -303,324.7 
			-305.9,322.1 -304.7,320.8 -301.5,323.9 -300.4,322.7 -304.9,318.4 		"/>
		<path class="st4" d="M-288.1,330.9c-1.5-0.8-3-0.5-3.8,0.8l0,0c-0.8,1.5-0.1,2.4,1.2,3.6c1.1,1,1.2,1.3,1,1.7l0,0
			c-0.2,0.4-0.8,0.5-1.4,0.1c-0.8-0.5-1.3-1.2-1.7-2.1l-1.6,0.6c0.5,1.3,1.4,2.3,2.5,2.9c1.6,0.9,3.1,0.6,3.9-0.8l0,0
			c0.7-1.3,0.1-2.3-1.1-3.5c-1.1-1-1.3-1.3-1.1-1.8l0,0c0.2-0.4,0.7-0.5,1.3-0.1c0.6,0.3,1.1,1,1.5,1.8l1.5-0.8
			C-286.3,332.3-287,331.4-288.1,330.9z"/>
		
			<rect x="-278.3" y="340.2" transform="matrix(0.2653 -0.9642 0.9642 0.2653 -530.277 -13.6958)" class="st4" width="8.3" height="1.8"/>
		<path class="st4" d="M-256.1,344.7l1.8,0.1l0,1.2c-0.5,0.3-1.1,0.5-1.7,0.4c-1.5,0-2.5-1.2-2.4-2.7l0,0c0-1.4,1.1-2.6,2.5-2.5
			c1,0,1.5,0.4,2.2,0.9l1.2-1.4c-0.8-0.8-1.7-1.2-3.2-1.2c-2.5-0.1-4.4,1.8-4.5,4.2l0,0c-0.1,2.5,1.7,4.3,4.2,4.4
			c1.5,0,2.7-0.5,3.6-1.2l0.1-3.6l-3.6-0.1L-256.1,344.7z"/>
		<polygon class="st4" points="-234.8,337 -233.5,342 -238.6,338 -240.2,338.4 -238.2,346.5 -236.4,346 -237.7,340.9 -232.5,345.1 
			-231,344.7 -233,336.6 		"/>
		<polygon class="st4" points="-216.7,336.9 -217.5,335.4 -214.1,333.4 -214.9,332 -218.3,333.9 -219.2,332.5 -215.3,330.3 
			-216.1,328.9 -221.6,331.9 -217.5,339.2 -212,336.1 -212.8,334.7 		"/>
		<path class="st4" d="M-199.5,318.7L-199.5,318.7c-1.2-1.2-2.8-1.2-4.2,0.2l-2.7,2.7l5.8,6l1.3-1.3l-1.9-1.9l1-1l3.1,0.7l1.5-1.5
			l-3.5-0.7C-198.5,320.8-198.5,319.7-199.5,318.7z M-200.9,321.9l-1.3,1.3l-1.7-1.7l1.3-1.3c0.6-0.6,1.3-0.7,1.9-0.2l0,0
			C-200.2,320.6-200.3,321.3-200.9,321.9z"/>
		<path class="st4" d="M-185.9,305.1L-185.9,305.1c-1.3-0.8-2.3-0.3-3.5,1c-1.1,1-1.4,1.3-1.9,1l0,0c-0.3-0.2-0.4-0.7-0.1-1.3
			c0.4-0.6,1-1.1,1.8-1.4l-0.7-1.5c-1,0.4-1.9,1.1-2.5,2.1c-0.9,1.5-0.6,3,0.7,3.8l0,0c1.4,0.9,2.4,0.2,3.6-1.1c1-1,1.4-1.1,1.8-0.9
			l0,0c0.4,0.3,0.4,0.8,0.1,1.4c-0.5,0.8-1.2,1.3-2.1,1.6l0.6,1.6c1.3-0.4,2.3-1.3,3-2.3C-184.4,307.5-184.5,305.9-185.9,305.1z"/>
		<polygon class="st4" points="-270.7,320 -268.4,320 -268.4,319 -270.7,319 -270.7,318 -268.1,318 -268.1,317.1 -271.8,317.1 
			-271.8,322 -268,322 -268,321 -270.7,321 		"/>
		<path class="st4" d="M-264.5,319.1c-0.8-0.2-1.1-0.3-1.1-0.6v0c0-0.2,0.2-0.4,0.6-0.4s0.8,0.2,1.3,0.5l0.6-0.8
			c-0.5-0.4-1.1-0.6-1.8-0.6c-1,0-1.7,0.6-1.7,1.5v0c0,1,0.6,1.2,1.6,1.5c0.8,0.2,1,0.4,1,0.6v0c0,0.3-0.3,0.5-0.7,0.5
			c-0.6,0-1-0.2-1.5-0.6l-0.6,0.8c0.6,0.5,1.3,0.8,2.1,0.8c1.1,0,1.8-0.5,1.8-1.5v0C-262.9,319.7-263.5,319.3-264.5,319.1z"/>
		<polygon class="st4" points="-259.2,322 -259.2,318.1 -257.7,318.1 -257.7,317.1 -261.7,317.1 -261.7,318.1 -260.3,318.1 
			-260.3,322 		"/>
		<path class="st4" d="M-251.9,320.4c0.9-0.7,1.3-1.1,1.3-1.9c0-0.9-0.6-1.5-1.7-1.5c-0.9,0-1.3,0.4-1.8,1l0.8,0.6
			c0.4-0.4,0.6-0.7,1-0.7c0.4,0,0.7,0.2,0.7,0.6c0,0.4-0.2,0.7-0.8,1.2l-1.6,1.3v0.9h3.6v-0.9h-2.1L-251.9,320.4z"/>
		<path class="st4" d="M-247,317c-1.3,0-2.2,1.1-2.2,2.5s0.9,2.5,2.2,2.5c1.3,0,2.2-1.1,2.2-2.5S-245.7,317-247,317z M-247,321.1
			c-0.7,0-1.1-0.7-1.1-1.6s0.4-1.6,1.1-1.6s1.1,0.7,1.1,1.6S-246.4,321.1-247,321.1z"/>
		<polygon class="st4" points="-243.8,317.5 -243.6,318.4 -242.7,318.1 -242.7,322 -241.7,322 -241.7,317.1 -242.4,317.1 		"/>
		<path class="st4" d="M-238.3,321.1c-0.4,0-0.8-0.2-1.2-0.5l-0.7,0.8c0.5,0.5,1.1,0.7,1.8,0.7c1.1,0,1.9-0.7,1.9-1.7
			c0-1.1-0.7-1.6-1.7-1.6c-0.3,0-0.4,0-0.6,0.1l0.1-0.8h2.1v-0.9h-3l-0.1,2.4l0.6,0.4c0.2-0.1,0.5-0.2,0.8-0.2
			c0.5,0,0.9,0.2,0.9,0.7C-237.5,320.8-237.8,321.1-238.3,321.1z"/>
	</g>
</g>
<g id="Final_x5F_reverse">
	<rect x="-394.5" y="127.6" class="st4" width="281" height="281"/>
	<g>
		<path class="st3" d="M-323,251.4c0.2-0.1,0.4-0.2,0.6-0.3c0.2-0.1,0.4-0.2,0.6-0.3c2.1-0.8,4.4-1.3,6.8-1.3h-10.9v3.6
			c0.2-0.1,0.3-0.3,0.5-0.4C-324.6,252.2-323.8,251.8-323,251.4z"/>
		<path class="st3" d="M-322.4,285.2c-0.2-0.1-0.4-0.2-0.6-0.3c-0.8-0.4-1.6-0.8-2.3-1.3c-0.2-0.1-0.3-0.3-0.5-0.4v3.6h10.9
			c-2.4,0-4.7-0.5-6.8-1.3C-321.9,285.4-322.2,285.3-322.4,285.2z"/>
		<path class="st3" d="M-293.6,281.7h-21.3c-7.5,0-13.6-6.1-13.6-13.6c0-7.5,6.1-13.6,13.6-13.6h21.3c0.6-1.7,1.3-3.4,2.1-5h-23.4h0
			h0c0,0,0,0,0,0c-2.4,0-4.7,0.5-6.8,1.3c-0.2,0.1-0.4,0.2-0.6,0.3c-0.2,0.1-0.4,0.2-0.6,0.3c-0.8,0.4-1.6,0.8-2.3,1.3
			c-0.2,0.1-0.3,0.3-0.5,0.4c-0.3,0.2-0.6,0.4-0.9,0.7c-1.4,1.1-2.6,2.5-3.6,4c-2,3-3.2,6.5-3.2,10.4v0c0,3.9,1.2,7.4,3.2,10.4
			c1,1.5,2.2,2.8,3.6,4c0.3,0.2,0.6,0.5,0.9,0.7c0.2,0.1,0.3,0.3,0.5,0.4c0.7,0.5,1.5,1,2.3,1.3c0.2,0.1,0.4,0.2,0.6,0.3
			c0.2,0.1,0.4,0.2,0.6,0.3c2.1,0.8,4.4,1.3,6.8,1.3c0,0,0,0,0,0h0h0h23.4c-0.4-0.8-0.7-1.5-1.1-2.3
			C-292.9,283.5-293.3,282.6-293.6,281.7z"/>
		<path class="st3" d="M-182.2,253.1v-3.6h-10.9c3.9,0,7.4,1.2,10.4,3.2C-182.5,252.8-182.3,253-182.2,253.1z"/>
		<path class="st3" d="M-193.1,286.7h10.9v-3.6c-0.2,0.1-0.3,0.3-0.5,0.4C-185.7,285.6-189.2,286.7-193.1,286.7z"/>
		<path class="st3" d="M-177.7,257.7c-0.7-1-1.4-1.9-2.3-2.8c-0.7-0.7-1.5-1.3-2.2-1.9c-0.2-0.1-0.3-0.3-0.5-0.4
			c-3-2-6.5-3.2-10.4-3.2c0,0,0,0,0,0h0h-23.4c0.4,0.8,0.7,1.5,1.1,2.3c0.4,0.9,0.7,1.8,1,2.7h21.3c7.5,0,13.6,6.1,13.6,13.6
			c0,7.5-6.1,13.6-13.6,13.6h-21.3c-0.3,0.9-0.6,1.8-1,2.7c-0.3,0.8-0.7,1.5-1.1,2.3h23.4h0c0,0,0,0,0,0c3.9,0,7.4-1.2,10.4-3.2
			c0.2-0.1,0.3-0.3,0.5-0.4c0.8-0.6,1.6-1.2,2.2-1.9c0.8-0.8,1.6-1.8,2.3-2.8c2-3,3.2-6.5,3.2-10.4v0
			C-174.5,264.3-175.7,260.7-177.7,257.7z"/>
		<path class="st3" d="M-320.7,267.9L-320.7,267.9c0,4.8,3.7,8.7,8.9,8.7c3.2,0,5.9-1.5,7.4-3.8c1-1.4,1.5-3.1,1.5-4.9v0
			c0-1.8-0.5-3.4-1.4-4.8c-1.5-2.3-4.2-3.8-7.4-3.8C-316.9,259.2-320.7,263.1-320.7,267.9z M-316.8,267.8c0-2.9,2.1-5.2,5-5.2
			s5.1,2.4,5.1,5.3v0c0,2.9-2.1,5.2-5,5.2C-314.7,273.1-316.8,270.7-316.8,267.8L-316.8,267.8z"/>
		<path class="st3" d="M-187.9,267.9L-187.9,267.9c0-4.8-3.6-8.4-8.9-8.4h-6.5v16.8h6.5C-191.5,276.2-187.9,272.6-187.9,267.9z
			 M-199.6,262.8h2.8c3,0,5,2.1,5,5v0c0,3-2,5-5,5h-2.8V262.8z"/>
		<path class="st3" d="M-222.5,251c-0.6-1-1.2-2-1.8-3c-1.6-2.4-3.5-4.6-5.6-6.5c-0.5-0.5-1.1-0.9-1.6-1.4c-1.1-0.9-2.3-1.7-3.5-2.5
			c-0.6-0.4-1.2-0.7-1.9-1.1c-3-1.7-6.4-2.9-9.9-3.6c-1.2-0.2-2.4-0.4-3.6-0.5c-0.6-0.1-1.2-0.1-1.8-0.1c-0.6,0-1.2,0-1.8,0
			c-19.8,0-35.9,16.1-35.9,35.9c0,5,1,9.7,2.8,14c0.2,0.5,0.5,1.1,0.7,1.6c0.8,1.6,1.6,3.1,2.6,4.5c0.3,0.5,0.7,0.9,1,1.4
			s0.7,0.9,1.1,1.4c0.8,1,1.7,1.9,2.6,2.8c1.8,1.8,3.9,3.4,6.1,4.8c1.1,0.7,2.2,1.3,3.4,1.9c4.7,2.3,10,3.5,15.5,3.5h0
			c0.6,0,1.2,0,1.8,0s1.2-0.1,1.8-0.1c1.2-0.1,2.4-0.3,3.6-0.5c3.5-0.7,6.8-1.9,9.9-3.6c0.6-0.3,1.3-0.7,1.9-1.1
			c1.2-0.8,2.4-1.6,3.5-2.5c0.6-0.5,1.1-0.9,1.6-1.4c2.1-1.9,4-4.1,5.6-6.5c0.6-1,1.2-1.9,1.8-3c0.6-1,1.1-2.1,1.5-3.1
			c1.8-4.3,2.8-9,2.8-14c0-5-1-9.7-2.8-14C-221.4,253.1-221.9,252.1-222.5,251z M-254,299.2v-10.1v-4.8h0v-32.4h0v-4.8v-10.1
			c17.1,0,31.1,13.9,31.1,31.1C-222.9,285.3-236.9,299.2-254,299.2z"/>
		<path class="st3" d="M-239.6,225.5c5.2-2.7,7.3-9.1,7.3-9.1s-6.4-2-11.6,0.7c-5.2,2.7-7.3,9.1-7.3,9.1s0.3,0.1,0.8,0.2
			c0.8,0.2,2.1,0.4,3.7,0.5C-244.6,227-242,226.7-239.6,225.5z"/>
		<path class="st3" d="M-258.7,215.5c0,5.9,4.7,10.7,4.7,10.7s4.7-4.8,4.7-10.7c0-5.9-4.7-10.7-4.7-10.7S-258.7,209.6-258.7,215.5z"
			/>
		<path class="st3" d="M-254,249.5v4.8c7.6,0,13.8,6.2,13.8,13.8c0,7.6-6.2,13.8-13.8,13.8v4.8c10.3,0,18.6-8.3,18.6-18.6
			C-235.4,257.9-243.7,249.5-254,249.5z"/>
		<path class="st3" d="M-320.9,231.7L-320.9,231.7c2,1.3,4.6,0.7,6-1.5c1.4-2.2,0.7-4.8-1.3-6l0,0c-2-1.3-4.6-0.7-6,1.5
			S-322.9,230.5-320.9,231.7z M-320.7,226.6c0.8-1.3,2.3-1.5,3.6-0.8l0,0c1.2,0.8,1.7,2.2,0.9,3.5c-0.8,1.3-2.3,1.5-3.6,0.8l0,0
			C-321.1,229.3-321.5,227.8-320.7,226.6z"/>
		<path class="st3" d="M-299.8,212.8l-1.7-2.1l1.1-0.9l3.1,1l1.7-1.3l-3.4-1.1c0.6-1,0.6-2.1-0.2-3.1l0,0c-1.1-1.3-2.6-1.4-4.2-0.2
			l-3,2.4l5.2,6.5L-299.8,212.8z M-304,207.6l1.4-1.1c0.7-0.6,1.4-0.6,1.9,0l0,0c0.4,0.5,0.3,1.2-0.4,1.8l-1.5,1.2L-304,207.6z"/>
		<polygon class="st3" points="-275.4,199.5 -275.9,197.9 -279.8,199.3 -282.1,193 -283.8,193.7 -281,201.5 		"/>
		<path class="st3" d="M-256.9,194.5l3.5-0.1l0.8,1.9l1.9,0l-3.7-8.3l-1.7,0l-3.4,8.5l1.9,0L-256.9,194.5z M-255.2,190.1l1.2,2.7
			l-2.2,0L-255.2,190.1z"/>
		<polygon class="st3" points="-231.1,194.5 -228.9,200.8 -227.5,201.3 -224.8,193.4 -226.5,192.8 -228.1,197.7 -230.2,191.6 
			-231.8,191 -234.5,198.9 -232.8,199.5 		"/>
		<path class="st3" d="M-203.7,211L-203.7,211c1.5-1.9,1.2-4.4-0.9-6l-2.5-2l-5.2,6.5l2.5,2C-207.7,213.2-205.2,212.9-203.7,211z
			 M-206.7,205.4l1.1,0.9c1.2,0.9,1.3,2.4,0.4,3.5l0,0c-0.9,1.2-2.3,1.3-3.5,0.4l-1.1-0.9L-206.7,205.4z"/>
		<path class="st3" d="M-187.1,231.8L-187.1,231.8c2-1.3,2.7-3.8,1.3-6c-1.4-2.2-4-2.7-6-1.5l0,0c-2,1.3-2.7,3.8-1.3,6
			C-191.7,232.5-189.1,233.1-187.1,231.8z M-190.8,225.9L-190.8,225.9c1.2-0.8,2.8-0.5,3.5,0.7c0.8,1.3,0.3,2.8-0.9,3.5l0,0
			c-1.2,0.8-2.7,0.5-3.5-0.8C-192.4,228.2-192,226.7-190.8,225.9z"/>
		<path class="st3" d="M-316.7,302.7l-7.1,4.4l1.7,2.8c1.4,2.2,3.9,2.8,5.9,1.6l0,0c2-1.2,2.6-3.7,1.2-5.9L-316.7,302.7z
			 M-317.2,309.8L-317.2,309.8c-1.3,0.8-2.7,0.5-3.5-0.8l-0.7-1.2l4.3-2.7l0.7,1.2C-315.6,307.6-315.9,309-317.2,309.8z"/>
		<polygon class="st3" points="-310.6,324.5 -306,328.8 -304.9,327.6 -308.2,324.5 -307,323.3 -304.1,325.9 -303,324.7 
			-305.9,322.1 -304.7,320.8 -301.5,323.9 -300.4,322.7 -304.9,318.4 		"/>
		<path class="st3" d="M-288.1,330.9c-1.5-0.8-3-0.5-3.8,0.8l0,0c-0.8,1.5-0.1,2.4,1.2,3.6c1.1,1,1.2,1.3,1,1.7l0,0
			c-0.2,0.4-0.8,0.5-1.4,0.1c-0.8-0.5-1.3-1.2-1.7-2.1l-1.6,0.6c0.5,1.3,1.4,2.3,2.5,2.9c1.6,0.9,3.1,0.6,3.9-0.8l0,0
			c0.7-1.3,0.1-2.3-1.1-3.5c-1.1-1-1.3-1.3-1.1-1.8l0,0c0.2-0.4,0.7-0.5,1.3-0.1c0.6,0.3,1.1,1,1.5,1.8l1.5-0.8
			C-286.3,332.3-287,331.4-288.1,330.9z"/>
		
			<rect x="-278.3" y="340.2" transform="matrix(0.2653 -0.9642 0.9642 0.2653 -530.2771 -13.696)" class="st3" width="8.3" height="1.8"/>
		<path class="st3" d="M-256.1,344.7l1.8,0.1l0,1.2c-0.5,0.3-1.1,0.5-1.7,0.4c-1.5,0-2.5-1.2-2.4-2.7l0,0c0-1.4,1.1-2.6,2.5-2.5
			c1,0,1.5,0.4,2.2,0.9l1.2-1.4c-0.8-0.8-1.7-1.2-3.2-1.2c-2.5-0.1-4.4,1.8-4.5,4.2l0,0c-0.1,2.5,1.7,4.3,4.2,4.4
			c1.5,0,2.7-0.5,3.6-1.2l0.1-3.6l-3.6-0.1L-256.1,344.7z"/>
		<polygon class="st3" points="-234.8,337 -233.5,342 -238.6,338 -240.2,338.4 -238.2,346.5 -236.4,346 -237.7,340.9 -232.5,345.1 
			-231,344.7 -233,336.6 		"/>
		<polygon class="st3" points="-216.7,336.9 -217.5,335.4 -214.1,333.4 -214.9,332 -218.3,333.9 -219.2,332.5 -215.3,330.3 
			-216.1,328.9 -221.6,331.9 -217.5,339.2 -212,336.1 -212.8,334.7 		"/>
		<path class="st3" d="M-199.5,318.7L-199.5,318.7c-1.2-1.2-2.8-1.2-4.2,0.2l-2.7,2.7l5.8,6l1.3-1.3l-1.9-1.9l1-1l3.1,0.7l1.5-1.5
			l-3.5-0.7C-198.5,320.8-198.5,319.7-199.5,318.7z M-200.9,321.9l-1.3,1.3l-1.7-1.7l1.3-1.3c0.6-0.6,1.3-0.7,1.9-0.2l0,0
			C-200.2,320.6-200.3,321.3-200.9,321.9z"/>
		<path class="st3" d="M-185.9,305.1L-185.9,305.1c-1.3-0.8-2.3-0.3-3.5,1c-1.1,1-1.4,1.3-1.9,1l0,0c-0.3-0.2-0.4-0.7-0.1-1.3
			c0.4-0.6,1-1.1,1.8-1.4l-0.7-1.5c-1,0.4-1.9,1.1-2.5,2.1c-0.9,1.5-0.6,3,0.7,3.8l0,0c1.4,0.9,2.4,0.2,3.6-1.1c1-1,1.4-1.1,1.8-0.9
			l0,0c0.4,0.3,0.4,0.8,0.1,1.4c-0.5,0.8-1.2,1.3-2.1,1.6l0.6,1.6c1.3-0.4,2.3-1.3,3-2.3C-184.4,307.5-184.5,305.9-185.9,305.1z"/>
		<polygon class="st3" points="-270.7,320 -268.4,320 -268.4,319 -270.7,319 -270.7,318 -268.1,318 -268.1,317.1 -271.8,317.1 
			-271.8,322 -268,322 -268,321 -270.7,321 		"/>
		<path class="st3" d="M-264.5,319.1c-0.8-0.2-1.1-0.3-1.1-0.6v0c0-0.2,0.2-0.4,0.6-0.4s0.8,0.2,1.3,0.5l0.6-0.8
			c-0.5-0.4-1.1-0.6-1.8-0.6c-1,0-1.7,0.6-1.7,1.5v0c0,1,0.6,1.2,1.6,1.5c0.8,0.2,1,0.4,1,0.6v0c0,0.3-0.3,0.5-0.7,0.5
			c-0.6,0-1-0.2-1.5-0.6l-0.6,0.8c0.6,0.5,1.3,0.8,2.1,0.8c1.1,0,1.8-0.5,1.8-1.5v0C-262.9,319.7-263.5,319.3-264.5,319.1z"/>
		<polygon class="st3" points="-259.2,322 -259.2,318.1 -257.7,318.1 -257.7,317.1 -261.7,317.1 -261.7,318.1 -260.3,318.1 
			-260.3,322 		"/>
		<path class="st3" d="M-251.9,320.4c0.9-0.7,1.3-1.1,1.3-1.9c0-0.9-0.6-1.5-1.7-1.5c-0.9,0-1.3,0.4-1.8,1l0.8,0.6
			c0.4-0.4,0.6-0.7,1-0.7c0.4,0,0.7,0.2,0.7,0.6c0,0.4-0.2,0.7-0.8,1.2l-1.6,1.3v0.9h3.6v-0.9h-2.1L-251.9,320.4z"/>
		<path class="st3" d="M-247,317c-1.3,0-2.2,1.1-2.2,2.5s0.9,2.5,2.2,2.5c1.3,0,2.2-1.1,2.2-2.5S-245.7,317-247,317z M-247,321.1
			c-0.7,0-1.1-0.7-1.1-1.6s0.4-1.6,1.1-1.6s1.1,0.7,1.1,1.6S-246.4,321.1-247,321.1z"/>
		<polygon class="st3" points="-243.8,317.5 -243.6,318.4 -242.7,318.1 -242.7,322 -241.7,322 -241.7,317.1 -242.4,317.1 		"/>
		<path class="st3" d="M-238.3,321.1c-0.4,0-0.8-0.2-1.2-0.5l-0.7,0.8c0.5,0.5,1.1,0.7,1.8,0.7c1.1,0,1.9-0.7,1.9-1.7
			c0-1.1-0.7-1.6-1.7-1.6c-0.3,0-0.4,0-0.6,0.1l0.1-0.8h2.1v-0.9h-3l-0.1,2.4l0.6,0.4c0.2-0.1,0.5-0.2,0.8-0.2
			c0.5,0,0.9,0.2,0.9,0.7C-237.5,320.8-237.8,321.1-238.3,321.1z"/>
	</g>
	<g>
		<path class="st7" d="M416.8,238.8c-2.8-5.2-5.9-10.2-9.2-15.1c-8.2-12.2-17.9-23.3-28.7-33.1c-2.7-2.5-5.5-4.8-8.3-7.1
			c-5.7-4.6-11.7-8.8-17.9-12.7c-3.1-1.9-6.3-3.8-9.5-5.6c-15.5-8.4-32.5-14.7-50.3-18.4c-6-1.2-12-2.1-18.2-2.8
			c-3.1-0.3-6.2-0.5-9.3-0.7c-3.1-0.2-6.3-0.2-9.4-0.2C155,143.1,73.1,225,73.1,326c0,25.3,5.1,49.3,14.4,71.2
			c1.2,2.7,2.4,5.4,3.7,8.1c3.9,8,8.3,15.7,13.2,23c1.6,2.4,3.3,4.8,5.1,7.2c1.8,2.3,3.6,4.7,5.4,6.9c4.2,5.1,8.7,9.9,13.4,14.5
			c9.4,9.2,19.8,17.4,31,24.4c5.6,3.5,11.4,6.7,17.4,9.6c24,11.6,50.9,18,79.3,18h0c3.2,0,6.3-0.1,9.4-0.2s6.2-0.4,9.3-0.7
			c6.1-0.6,12.2-1.6,18.2-2.8c17.9-3.7,34.8-9.9,50.3-18.4c3.2-1.8,6.4-3.6,9.5-5.6c6.2-3.9,12.2-8.1,17.9-12.7
			c2.9-2.3,5.6-4.7,8.3-7.1c10.8-9.8,20.5-21,28.7-33.1c3.3-4.9,6.3-9.9,9.2-15.1c2.8-5.2,5.4-10.5,7.7-16
			c9.3-21.9,14.4-45.9,14.4-71.2c0-25.3-5.1-49.3-14.4-71.2C422.2,249.3,419.6,244,416.8,238.8z M256,484.5V433v-24.4h0V243.3h0
			v-24.4v-51.4c87.4,0,158.5,71.1,158.5,158.5C414.5,413.4,343.4,484.5,256,484.5z"/>
		<path class="st7" d="M329.2,108.6c26.7-13.8,37.2-46.4,37.2-46.4S333.7,52,307,65.8c-26.7,13.8-37.2,46.4-37.2,46.4
			s1.6,0.5,4.3,1.1c4.1,0.9,10.9,2.2,18.9,2.5C304,116.2,317.2,114.8,329.2,108.6z"/>
		<path class="st7" d="M232.2,57.5c0,30,24.1,54.4,24.1,54.4s24.1-24.3,24.1-54.4c0-30-24.1-54.4-24.1-54.4S232.2,27.5,232.2,57.5z"
			/>
		<path class="st7" d="M256,231.1v24.4c38.9,0,70.5,31.6,70.5,70.5c0,38.9-31.6,70.5-70.5,70.5v24.4c52.3,0,94.9-42.6,94.9-94.8
			C350.9,273.7,308.3,231.1,256,231.1z"/>
	</g>
	<g>
		<path class="st7" d="M742.7,119.5c-1.4-2.6-2.9-5.1-4.5-7.5c-4.1-6-8.9-11.6-14.2-16.4c-1.3-1.2-2.7-2.4-4.1-3.5
			c-2.8-2.3-5.8-4.4-8.9-6.3c-1.5-1-3.1-1.9-4.7-2.8c-7.7-4.2-16.1-7.3-25-9.1c-3-0.6-6-1.1-9-1.4c-1.5-0.2-3.1-0.3-4.6-0.4
			c-1.5-0.1-3.1-0.1-4.7-0.1c-50.1,0-90.8,40.6-90.8,90.8c0,12.5,2.5,24.5,7.1,35.3c0.6,1.4,1.2,2.7,1.8,4c1.9,4,4.1,7.8,6.6,11.4
			c0.8,1.2,1.7,2.4,2.5,3.6s1.8,2.3,2.7,3.4c2.1,2.5,4.3,4.9,6.6,7.2c4.7,4.6,9.8,8.6,15.4,12.1c2.8,1.7,5.7,3.3,8.6,4.8
			c11.9,5.7,25.3,9,39.4,9h0c1.6,0,3.1,0,4.7-0.1c1.5-0.1,3.1-0.2,4.6-0.4c3.1-0.3,6.1-0.8,9-1.4c8.9-1.8,17.3-4.9,25-9.1
			c1.6-0.9,3.2-1.8,4.7-2.8c3.1-1.9,6.1-4,8.9-6.3c1.4-1.1,2.8-2.3,4.1-3.5c5.4-4.9,10.2-10.4,14.2-16.4c1.6-2.4,3.1-4.9,4.5-7.5
			c1.4-2.6,2.7-5.2,3.8-7.9c4.6-10.9,7.1-22.8,7.1-35.3c0-12.5-2.5-24.5-7.1-35.3C745.4,124.7,744.1,122,742.7,119.5z M662.9,241.4
			v-25.5v-12.1h0v-82.1h0v-12.1V84c43.4,0,78.7,35.3,78.7,78.7C741.6,206.1,706.3,241.4,662.9,241.4z"/>
		<path class="st7" d="M699.2,54.8c13.2-6.9,18.5-23,18.5-23s-16.2-5.1-29.5,1.8c-13.2,6.9-18.5,23-18.5,23s0.8,0.2,2.1,0.5
			c2,0.5,5.4,1.1,9.4,1.2C686.7,58.6,693.3,57.9,699.2,54.8z"/>
		<path class="st7" d="M651.1,29.5c0,14.9,12,27,12,27s12-12.1,12-27c0-14.9-12-27-12-27S651.1,14.6,651.1,29.5z"/>
		<path class="st7" d="M662.9,115.6v12.1c19.3,0,35,15.7,35,35c0,19.3-15.7,35-35,35v12.1c26,0,47.1-21.1,47.1-47.1
			C710,136.8,688.9,115.6,662.9,115.6z"/>
	</g>
	<g>
		<path class="st7" d="M618.1,280.9c-0.2-0.3-0.4-0.6-0.6-0.9c-0.5-0.8-1.1-1.4-1.8-2.1c-0.2-0.2-0.3-0.3-0.5-0.4
			c-0.4-0.3-0.7-0.5-1.1-0.8c-0.2-0.1-0.4-0.2-0.6-0.3c-1-0.5-2-0.9-3.1-1.1c-0.4-0.1-0.7-0.1-1.1-0.2c-0.2,0-0.4,0-0.6,0
			c-0.2,0-0.4,0-0.6,0c-6.3,0-11.3,5.1-11.3,11.3c0,1.6,0.3,3.1,0.9,4.4c0.1,0.2,0.1,0.3,0.2,0.5c0.2,0.5,0.5,1,0.8,1.4
			c0.1,0.2,0.2,0.3,0.3,0.4s0.2,0.3,0.3,0.4c0.3,0.3,0.5,0.6,0.8,0.9c0.6,0.6,1.2,1.1,1.9,1.5c0.3,0.2,0.7,0.4,1.1,0.6
			c1.5,0.7,3.2,1.1,4.9,1.1h0c0.2,0,0.4,0,0.6,0c0.2,0,0.4,0,0.6,0c0.4,0,0.8-0.1,1.1-0.2c1.1-0.2,2.2-0.6,3.1-1.1
			c0.2-0.1,0.4-0.2,0.6-0.3c0.4-0.2,0.8-0.5,1.1-0.8c0.2-0.1,0.3-0.3,0.5-0.4c0.7-0.6,1.3-1.3,1.8-2.1c0.2-0.3,0.4-0.6,0.6-0.9
			c0.2-0.3,0.3-0.7,0.5-1c0.6-1.4,0.9-2.8,0.9-4.4s-0.3-3.1-0.9-4.4C618.4,281.6,618.2,281.2,618.1,280.9z M608.1,296.1v-3.2v-1.5h0
			v-10.3h0v-1.5v-3.2c5.4,0,9.8,4.4,9.8,9.8C617.9,291.7,613.5,296.1,608.1,296.1z"/>
		<path class="st7" d="M612.6,272.8c1.7-0.9,2.3-2.9,2.3-2.9s-2-0.6-3.7,0.2c-1.7,0.9-2.3,2.9-2.3,2.9s0.1,0,0.3,0.1
			c0.3,0.1,0.7,0.1,1.2,0.2C611.1,273.3,611.9,273.2,612.6,272.8z"/>
		<path class="st7" d="M606.6,269.7c0,1.9,1.5,3.4,1.5,3.4s1.5-1.5,1.5-3.4c0-1.9-1.5-3.4-1.5-3.4S606.6,267.8,606.6,269.7z"/>
		<path class="st7" d="M608.1,280.4v1.5c2.4,0,4.4,2,4.4,4.4s-2,4.4-4.4,4.4v1.5c3.2,0,5.9-2.6,5.9-5.9
			C614,283.1,611.3,280.4,608.1,280.4z"/>
	</g>
	<g>
		<path class="st7" d="M652.1,281.2c-0.1-0.2-0.3-0.5-0.4-0.7c-0.4-0.6-0.8-1.1-1.3-1.5c-0.1-0.1-0.2-0.2-0.4-0.3
			c-0.3-0.2-0.5-0.4-0.8-0.6c-0.1-0.1-0.3-0.2-0.4-0.3c-0.7-0.4-1.5-0.7-2.3-0.8c-0.3-0.1-0.5-0.1-0.8-0.1c-0.1,0-0.3,0-0.4,0
			c-0.1,0-0.3,0-0.4,0c-4.6,0-8.3,3.7-8.3,8.3c0,1.1,0.2,2.2,0.7,3.2c0.1,0.1,0.1,0.2,0.2,0.4c0.2,0.4,0.4,0.7,0.6,1
			c0.1,0.1,0.2,0.2,0.2,0.3c0.1,0.1,0.2,0.2,0.2,0.3c0.2,0.2,0.4,0.5,0.6,0.7c0.4,0.4,0.9,0.8,1.4,1.1c0.3,0.2,0.5,0.3,0.8,0.4
			c1.1,0.5,2.3,0.8,3.6,0.8h0c0.1,0,0.3,0,0.4,0c0.1,0,0.3,0,0.4,0c0.3,0,0.6-0.1,0.8-0.1c0.8-0.2,1.6-0.5,2.3-0.8
			c0.1-0.1,0.3-0.2,0.4-0.3c0.3-0.2,0.6-0.4,0.8-0.6c0.1-0.1,0.3-0.2,0.4-0.3c0.5-0.4,0.9-1,1.3-1.5c0.1-0.2,0.3-0.5,0.4-0.7
			c0.1-0.2,0.2-0.5,0.4-0.7c0.4-1,0.7-2.1,0.7-3.2s-0.2-2.2-0.7-3.2C652.3,281.7,652.2,281.4,652.1,281.2z M644.7,292.4V290v-1.1h0
			v-7.5h0v-1.1v-2.3c4,0,7.2,3.2,7.2,7.2C651.9,289.1,648.7,292.4,644.7,292.4z"/>
		<path class="st7" d="M648.1,275.3c1.2-0.6,1.7-2.1,1.7-2.1s-1.5-0.5-2.7,0.2c-1.2,0.6-1.7,2.1-1.7,2.1s0.1,0,0.2,0.1
			c0.2,0,0.5,0.1,0.9,0.1C646.9,275.6,647.5,275.5,648.1,275.3z"/>
		<path class="st7" d="M643.7,272.9c0,1.4,1.1,2.5,1.1,2.5s1.1-1.1,1.1-2.5c0-1.4-1.1-2.5-1.1-2.5S643.7,271.6,643.7,272.9z"/>
		<path class="st7" d="M644.7,280.8v1.1c1.8,0,3.2,1.4,3.2,3.2s-1.4,3.2-3.2,3.2v1.1c2.4,0,4.3-1.9,4.3-4.3
			C649,282.8,647.1,280.8,644.7,280.8z"/>
	</g>
	<g>
		<path class="st7" d="M675.7,278.1c-0.1-0.2-0.2-0.3-0.3-0.5c-0.2-0.4-0.5-0.7-0.9-1c-0.1-0.1-0.2-0.1-0.2-0.2
			c-0.2-0.1-0.3-0.3-0.5-0.4c-0.1-0.1-0.2-0.1-0.3-0.2c-0.5-0.3-1-0.4-1.5-0.5c-0.2,0-0.4-0.1-0.5-0.1c-0.1,0-0.2,0-0.3,0
			c-0.1,0-0.2,0-0.3,0c-3,0-5.5,2.4-5.5,5.5c0,0.8,0.2,1.5,0.4,2.1c0,0.1,0.1,0.2,0.1,0.2c0.1,0.2,0.2,0.5,0.4,0.7
			c0,0.1,0.1,0.1,0.2,0.2c0.1,0.1,0.1,0.1,0.2,0.2c0.1,0.2,0.3,0.3,0.4,0.4c0.3,0.3,0.6,0.5,0.9,0.7c0.2,0.1,0.3,0.2,0.5,0.3
			c0.7,0.3,1.5,0.5,2.4,0.5l0,0c0.1,0,0.2,0,0.3,0c0.1,0,0.2,0,0.3,0c0.2,0,0.4,0,0.5-0.1c0.5-0.1,1-0.3,1.5-0.5
			c0.1-0.1,0.2-0.1,0.3-0.2c0.2-0.1,0.4-0.2,0.5-0.4c0.1-0.1,0.2-0.1,0.2-0.2c0.3-0.3,0.6-0.6,0.9-1c0.1-0.1,0.2-0.3,0.3-0.5
			c0.1-0.2,0.2-0.3,0.2-0.5c0.3-0.7,0.4-1.4,0.4-2.1s-0.2-1.5-0.4-2.1C675.9,278.5,675.8,278.3,675.7,278.1z M670.9,285.5v-1.5v-0.7
			l0,0v-4.9l0,0v-0.7V276c2.6,0,4.7,2.1,4.7,4.7C675.6,283.4,673.5,285.5,670.9,285.5z"/>
		<path class="st7" d="M673.1,274.3c0.8-0.4,1.1-1.4,1.1-1.4s-1-0.3-1.8,0.1c-0.8,0.4-1.1,1.4-1.1,1.4s0,0,0.1,0
			c0.1,0,0.3,0.1,0.6,0.1C672.3,274.5,672.7,274.4,673.1,274.3z"/>
		<path class="st7" d="M670.2,272.7c0,0.9,0.7,1.6,0.7,1.6s0.7-0.7,0.7-1.6c0-0.9-0.7-1.6-0.7-1.6S670.2,271.8,670.2,272.7z"/>
		<path class="st7" d="M670.9,277.9v0.7c1.2,0,2.1,0.9,2.1,2.1c0,1.2-0.9,2.1-2.1,2.1v0.7c1.6,0,2.8-1.3,2.8-2.8
			C673.7,279.2,672.5,277.9,670.9,277.9z"/>
	</g>
	<g>
		<path class="st7" d="M573.8,288.4c-0.3-0.5-0.5-0.9-0.8-1.4c-0.8-1.1-1.7-2.2-2.7-3.1c-0.3-0.2-0.5-0.4-0.8-0.7
			c-0.5-0.4-1.1-0.8-1.7-1.2c-0.3-0.2-0.6-0.4-0.9-0.5c-1.4-0.8-3-1.4-4.7-1.7c-0.6-0.1-1.1-0.2-1.7-0.3c-0.3,0-0.6-0.1-0.9-0.1
			c-0.3,0-0.6,0-0.9,0c-9.4,0-16.9,7.6-16.9,16.9c0,2.3,0.5,4.6,1.3,6.6c0.1,0.3,0.2,0.5,0.3,0.8c0.4,0.7,0.8,1.5,1.2,2.1
			c0.2,0.2,0.3,0.4,0.5,0.7c0.2,0.2,0.3,0.4,0.5,0.6c0.4,0.5,0.8,0.9,1.2,1.3c0.9,0.9,1.8,1.6,2.9,2.3c0.5,0.3,1.1,0.6,1.6,0.9
			c2.2,1.1,4.7,1.7,7.3,1.7h0c0.3,0,0.6,0,0.9,0c0.3,0,0.6,0,0.9-0.1c0.6-0.1,1.1-0.1,1.7-0.3c1.7-0.3,3.2-0.9,4.7-1.7
			c0.3-0.2,0.6-0.3,0.9-0.5c0.6-0.4,1.1-0.8,1.7-1.2c0.3-0.2,0.5-0.4,0.8-0.7c1-0.9,1.9-1.9,2.7-3.1c0.3-0.5,0.6-0.9,0.8-1.4
			c0.3-0.5,0.5-1,0.7-1.5c0.9-2,1.3-4.3,1.3-6.6c0-2.3-0.5-4.6-1.3-6.6C574.3,289.4,574.1,288.9,573.8,288.4z M558.9,311.1v-4.8
			v-2.3h0v-15.3h0v-2.3v-4.8c8.1,0,14.7,6.6,14.7,14.7C573.6,304.6,567,311.1,558.9,311.1z"/>
		<path class="st7" d="M565.7,276.3c2.5-1.3,3.4-4.3,3.4-4.3s-3-0.9-5.5,0.3c-2.5,1.3-3.4,4.3-3.4,4.3s0.1,0,0.4,0.1
			c0.4,0.1,1,0.2,1.8,0.2C563.3,277,564.6,276.9,565.7,276.3z"/>
		<path class="st7" d="M556.7,271.6c0,2.8,2.2,5,2.2,5s2.2-2.3,2.2-5c0-2.8-2.2-5-2.2-5S556.7,268.8,556.7,271.6z"/>
		<path class="st7" d="M558.9,287.7v2.3c3.6,0,6.5,2.9,6.5,6.5c0,3.6-2.9,6.5-6.5,6.5v2.3c4.8,0,8.8-3.9,8.8-8.8
			C567.7,291.6,563.7,287.7,558.9,287.7z"/>
	</g>
</g>
<g id="Slack_Icon__x23_1" class="st0">
	<g class="st1">
		<g>
			<path class="st4" d="M-869.8-45.8v27.2h-68.9v-27.2H-869.8 M-864.8-50.8h-78.9v37.2h78.9V-50.8L-864.8-50.8z"/>
		</g>
		<g>
			<g>
				<path class="st3" d="M-932.8-16.1c-8.9,0-16.1-7.2-16.1-16.1s7.2-16.1,16.1-16.1h52.8c8.9,0,16.1,7.2,16.1,16.1
					s-7.2,16.1-16.1,16.1H-932.8z"/>
				<path class="st4" d="M-880-45.8c7.5,0,13.6,6.1,13.6,13.6c0,7.5-6.1,13.6-13.6,13.6h-52.8c-7.5,0-13.6-6.1-13.6-13.6
					c0-7.5,6.1-13.6,13.6-13.6H-880 M-880-50.8h-52.8c-10.3,0-18.6,8.3-18.6,18.6v0c0,10.3,8.3,18.6,18.6,18.6h52.8
					c10.3,0,18.6-8.3,18.6-18.6v0C-861.4-42.5-869.7-50.8-880-50.8L-880-50.8z"/>
			</g>
		</g>
	</g>
	<g class="st1">
		<g>
			<path class="st4" d="M-805.1-45.8v27.2h-68.9v-27.2H-805.1 M-800.1-50.8h-78.9v37.2h78.9V-50.8L-800.1-50.8z"/>
		</g>
		<g>
			<g>
				<path class="st3" d="M-863.8-16.1c-8.9,0-16.1-7.2-16.1-16.1s7.2-16.1,16.1-16.1h52.8c8.9,0,16.1,7.2,16.1,16.1
					s-7.2,16.1-16.1,16.1H-863.8z"/>
				<path class="st4" d="M-811-45.8c7.5,0,13.6,6.1,13.6,13.6c0,7.5-6.1,13.6-13.6,13.6h-52.8c-7.5,0-13.6-6.1-13.6-13.6
					c0-7.5,6.1-13.6,13.6-13.6H-811 M-811-50.8h-52.8c-10.3,0-18.6,8.3-18.6,18.6v0c0,10.3,8.3,18.6,18.6,18.6h52.8
					c10.3,0,18.6-8.3,18.6-18.6v0C-792.4-42.5-800.7-50.8-811-50.8L-811-50.8z"/>
			</g>
		</g>
	</g>
	<path class="st8" d="M-929.6-41.1c-5.2,0-8.9,3.9-8.9,8.7v0c0,4.8,3.7,8.6,8.9,8.6c3.2,0,5.9-1.5,7.4-3.8c1-1.4,1.5-3.1,1.5-4.9v0
		c0-1.8-0.5-3.4-1.4-4.8C-923.7-39.6-926.4-41.1-929.6-41.1z M-924.6-32.4c0,2.9-2.1,5.2-5,5.2c-3,0-5.1-2.4-5.1-5.3v0
		c0-2.9,2.1-5.2,5-5.2S-924.6-35.3-924.6-32.4L-924.6-32.4z"/>
	<path class="st8" d="M-805.8-32.5L-805.8-32.5c0-4.8-3.6-8.4-8.9-8.4h-6.5v16.8h6.5C-809.4-24.1-805.8-27.8-805.8-32.5z
		 M-817.5-37.5h2.8c3,0,5,2.1,5,5v0c0,3-2,5-5,5h-2.8V-37.5z"/>
	<g class="st1">
		<g>
			<path class="st4" d="M-871.9,6.7c-11.6,0-22.6-5.2-30-14.1c-0.8-1-1.5-2-2.2-3c-1.4-2.1-2.6-4.3-3.6-6.6c-2-4.8-3.1-9.9-3.1-15.1
				c0-21.4,17.4-38.9,38.9-38.9c2.6,0,5.3,0.3,7.8,0.8c10,2,18.7,7.8,24.4,16.3c1.4,2.1,2.6,4.3,3.6,6.6c2,4.8,3.1,9.9,3.1,15.1
				s-1,10.3-3.1,15.1c-1,2.3-2.2,4.5-3.6,6.6c-5.7,8.5-14.4,14.3-24.4,16.3C-866.6,6.4-869.2,6.7-871.9,6.7z"/>
			<path class="st3" d="M-871.9-68c2.5,0,4.9,0.3,7.2,0.7c9.3,1.9,17.4,7.5,22.5,15.1c1.3,1.9,2.4,3.9,3.3,6.1c1.8,4.3,2.8,9,2.8,14
				c0,5-1,9.7-2.8,14c-0.9,2.1-2,4.2-3.3,6.1c-5.2,7.6-13.2,13.2-22.5,15.1c-2.3,0.5-4.8,0.7-7.2,0.7h0c-11.1,0-21.1-5.1-27.7-13
				c-0.7-0.9-1.4-1.8-2.1-2.8c-1.3-1.9-2.4-3.9-3.3-6.1c-1.8-4.3-2.8-9-2.8-14C-907.7-52-891.7-68-871.9-68 M-871.9-74
				c-23.1,0-41.9,18.8-41.9,41.9c0,5.6,1.1,11.1,3.3,16.3c1,2.5,2.3,4.9,3.9,7.1c0.7,1.1,1.6,2.2,2.4,3.2c8,9.7,19.8,15.2,32.3,15.2
				c2.8,0,5.7-0.3,8.4-0.9c10.8-2.2,20.1-8.5,26.3-17.6c1.5-2.2,2.8-4.6,3.9-7.1c2.2-5.2,3.3-10.6,3.3-16.3c0-5.6-1.1-11.1-3.3-16.3
				c-1-2.5-2.3-4.9-3.9-7.1c-6.2-9.1-15.5-15.4-26.3-17.6C-866.2-73.8-869-74-871.9-74L-871.9-74z"/>
		</g>
		<path class="st3" d="M-840.8-32.2c0-17.1-13.9-31.1-31.1-31.1v10.1v4.8h0V-16h0v4.8v10.1C-854.7-1.1-840.8-15-840.8-32.2z
			 M-871.9-18.4c7.6,0,13.8-6.2,13.8-13.8S-864.3-46-871.9-46v-4.8c10.3,0,18.6,8.3,18.6,18.6c0,10.3-8.3,18.6-18.6,18.6V-18.4z"/>
		<path class="st4" d="M-838.8-46.1c-0.9-2.1-2-4.2-3.3-6.1c-5.2-7.6-13.2-13.2-22.5-15.1c-2.3-0.5-4.8-0.7-7.2-0.7
			c-19.8,0-35.9,16.1-35.9,35.9c0,5,1,9.7,2.8,14c0.9,2.1,2,4.2,3.3,6.1c0.6,1,1.3,1.9,2.1,2.8c6.6,8,16.5,13,27.7,13h0
			c2.5,0,4.9-0.3,7.2-0.7c9.3-1.9,17.4-7.5,22.5-15.1c1.3-1.9,2.4-3.9,3.3-6.1c1.8-4.3,2.8-9,2.8-14S-837-41.9-838.8-46.1z
			 M-871.9-1.1v-10.1V-16h0v-32.4h0v-4.8v-10.1c17.1,0,31.1,13.9,31.1,31.1C-840.8-15-854.7-1.1-871.9-1.1z"/>
		<path class="st4" d="M-857.5-74.8c5.2-2.7,7.3-9.1,7.3-9.1s-6.4-2-11.6,0.7c-5.2,2.7-7.3,9.1-7.3,9.1S-862.8-72.1-857.5-74.8z"/>
		<path class="st4" d="M-867.1-84.8c0-5.9-4.7-10.7-4.7-10.7s-4.7,4.8-4.7,10.7s4.7,10.7,4.7,10.7S-867.1-78.9-867.1-84.8z"/>
		<path class="st4" d="M-853.3-32.2c0-10.3-8.3-18.6-18.6-18.6v4.8c7.6,0,13.8,6.2,13.8,13.8s-6.2,13.8-13.8,13.8v4.8
			C-861.6-13.6-853.3-21.9-853.3-32.2z"/>
	</g>
	<g class="st1">
		<path id="SVGID_x5F_1_x5F_" class="st6" d="M-800.1-32.2c0,39.7-32.2,71.8-71.8,71.8s-71.8-32.2-71.8-71.8s32.2-71.8,71.8-71.8
			S-800.1-71.9-800.1-32.2z"/>
		<text>		<textPath  xlink:href="#SVGID_x5F_1_x5F_" startOffset="1810.246%">
<tspan  class="st4" style="font-family:'Gotham-Bold'; font-size:17px;">orlando</tspan>		</textPath>
</text>
		<path id="SVGID_x5F_2_x5F_" class="st6" d="M-792.1-32.2c0,44.1-35.7,79.8-79.8,79.8s-79.8-35.7-79.8-79.8S-916-112-871.9-112
			S-792.1-76.3-792.1-32.2z"/>
		<text>		<textPath  xlink:href="#SVGID_x5F_2_x5F_" startOffset="276.9003%">
<tspan  class="st4" style="font-family:'Gotham-Bold'; font-size:17px;">designers</tspan>		</textPath>
</text>
		<g>
			<circle class="st6" cx="-871.9" cy="-32.2" r="79.8"/>
		</g>
	</g>
	<text transform="matrix(1 0 0 1 -889.8542 21.6658)" class="st8" style="font-family:'Gotham-Bold'; font-size:7px;">EST 2015</text>
	<g class="st1">
		<g>
			<path class="st9" d="M-240.2,284.1h-27.7c-1.2,0-2.2-1-2.2-2.2v-27.7c0-1.2,1-2.2,2.2-2.2h27.7c1.2,0,2.2,1,2.2,2.2v27.7
				C-237.9,283.1-238.9,284.1-240.2,284.1z"/>
		</g>
		<circle class="st2" cx="-254" cy="270.9" r="9.9"/>
		<g>
			<path class="st4" d="M-254,261.1L-254,261.1c0.2,0,0.3,0,0.5,0C-253.7,261.1-253.8,261.1-254,261.1z"/>
			<path class="st4" d="M-254,280.9c0.2,0,0.3,0,0.5,0C-253.7,280.9-253.8,280.9-254,280.9L-254,280.9z"/>
			<path class="st4" d="M-244.9,267.1c-0.1-0.3-0.3-0.6-0.4-0.9s-0.3-0.6-0.5-0.8c-0.4-0.7-1-1.3-1.5-1.8c-0.1-0.1-0.3-0.3-0.5-0.4
				c-0.3-0.2-0.6-0.5-1-0.7c-0.2-0.1-0.3-0.2-0.5-0.3c-0.8-0.5-1.8-0.8-2.7-1c-0.3-0.1-0.6-0.1-1-0.1c-0.2,0-0.3,0-0.5,0
				c-0.2,0-0.3,0-0.5,0c-1.2,0-2.3,0.2-3.4,0.6c-0.3,0.1-0.6,0.2-0.9,0.4c-0.7,0.3-1.4,0.8-2,1.3c-0.6,0.5-1.2,1.1-1.6,1.7
				c-0.9,1.1-1.5,2.5-1.8,3.9c0,0.2-0.1,0.3-0.1,0.5c-0.1,0.5-0.1,1-0.1,1.5c0,0.2,0,0.3,0,0.5c0,0.5,0.1,1,0.2,1.5
				c0.1,0.3,0.1,0.6,0.2,0.9c0.1,0.3,0.2,0.6,0.3,0.9c0.1,0.1,0.1,0.3,0.2,0.4c0.2,0.4,0.4,0.8,0.7,1.2c0.1,0.1,0.2,0.3,0.3,0.4
				c0.1,0.1,0.2,0.3,0.3,0.4c0.1,0.1,0.2,0.3,0.4,0.4s0.2,0.3,0.4,0.4c0.5,0.5,1.1,0.9,1.7,1.3c0.3,0.2,0.6,0.4,0.9,0.5
				c1.3,0.6,2.7,1,4.3,1h0c0.2,0,0.3,0,0.5,0s0.3,0,0.5,0c0.3,0,0.7-0.1,1-0.1c1-0.2,1.9-0.5,2.7-1c0.2-0.1,0.3-0.2,0.5-0.3
				c0.3-0.2,0.7-0.4,1-0.7c0.2-0.1,0.3-0.3,0.5-0.4c0.6-0.5,1.1-1.1,1.5-1.8c0.2-0.3,0.3-0.5,0.5-0.8s0.3-0.6,0.4-0.9
				c0.5-1.2,0.8-2.5,0.8-3.8C-244.1,269.6-244.4,268.3-244.9,267.1z M-254,279.5v-2.8v-1.3h0v-8.9h0v-1.3v-2.8
				c4.7,0,8.6,3.8,8.6,8.6C-245.4,275.7-249.3,279.5-254,279.5z M-254,265.8v1.3c2.1,0,3.8,1.7,3.8,3.8c0,2.1-1.7,3.8-3.8,3.8v1.3
				c2.8,0,5.1-2.3,5.1-5.1C-248.9,268.1-251.2,265.8-254,265.8z"/>
		</g>
		<path class="st5" d="M-253,259.5c0.2,0.1,0.6,0.1,1,0.1c0.6,0,1.3-0.1,2-0.4c1.4-0.7,2-2.5,2-2.5s-1.8-0.6-3.2,0.2
			c-1.4,0.7-2,2.5-2,2.5S-253.2,259.5-253,259.5z"/>
		<path class="st5" d="M-252.7,256.5c0-1.6-1.3-2.9-1.3-2.9s-1.3,1.3-1.3,2.9c0,1.6,1.3,2.9,1.3,2.9S-252.7,258.1-252.7,256.5z"/>
	</g>
</g>
<g id="Slack_Icon__x23_2" class="st0">
	<g class="st1">
		<g>
			<path class="st4" d="M-869.8-45.8v27.2h-68.9v-27.2H-869.8 M-864.8-50.8h-78.9v37.2h78.9V-50.8L-864.8-50.8z"/>
		</g>
		<g>
			<g>
				<path class="st3" d="M-932.8-16.1c-8.9,0-16.1-7.2-16.1-16.1s7.2-16.1,16.1-16.1h52.8c8.9,0,16.1,7.2,16.1,16.1
					s-7.2,16.1-16.1,16.1H-932.8z"/>
				<path class="st4" d="M-880-45.8c7.5,0,13.6,6.1,13.6,13.6c0,7.5-6.1,13.6-13.6,13.6h-52.8c-7.5,0-13.6-6.1-13.6-13.6
					c0-7.5,6.1-13.6,13.6-13.6H-880 M-880-50.8h-52.8c-10.3,0-18.6,8.3-18.6,18.6v0c0,10.3,8.3,18.6,18.6,18.6h52.8
					c10.3,0,18.6-8.3,18.6-18.6v0C-861.4-42.5-869.7-50.8-880-50.8L-880-50.8z"/>
			</g>
		</g>
	</g>
	<g class="st1">
		<g>
			<path class="st4" d="M-805.1-45.8v27.2h-68.9v-27.2H-805.1 M-800.1-50.8h-78.9v37.2h78.9V-50.8L-800.1-50.8z"/>
		</g>
		<g>
			<g>
				<path class="st3" d="M-863.8-16.1c-8.9,0-16.1-7.2-16.1-16.1s7.2-16.1,16.1-16.1h52.8c8.9,0,16.1,7.2,16.1,16.1
					s-7.2,16.1-16.1,16.1H-863.8z"/>
				<path class="st4" d="M-811-45.8c7.5,0,13.6,6.1,13.6,13.6c0,7.5-6.1,13.6-13.6,13.6h-52.8c-7.5,0-13.6-6.1-13.6-13.6
					c0-7.5,6.1-13.6,13.6-13.6H-811 M-811-50.8h-52.8c-10.3,0-18.6,8.3-18.6,18.6v0c0,10.3,8.3,18.6,18.6,18.6h52.8
					c10.3,0,18.6-8.3,18.6-18.6v0C-792.4-42.5-800.7-50.8-811-50.8L-811-50.8z"/>
			</g>
		</g>
	</g>
	<path class="st8" d="M-929.6-41.1c-5.2,0-8.9,3.9-8.9,8.7v0c0,4.8,3.7,8.6,8.9,8.6c3.2,0,5.9-1.5,7.4-3.8c1-1.4,1.5-3.1,1.5-4.9v0
		c0-1.8-0.5-3.4-1.4-4.8C-923.7-39.6-926.4-41.1-929.6-41.1z M-924.6-32.4c0,2.9-2.1,5.2-5,5.2c-3,0-5.1-2.4-5.1-5.3v0
		c0-2.9,2.1-5.2,5-5.2S-924.6-35.3-924.6-32.4L-924.6-32.4z"/>
	<path class="st8" d="M-805.8-32.5L-805.8-32.5c0-4.8-3.6-8.4-8.9-8.4h-6.5v16.8h6.5C-809.4-24.1-805.8-27.8-805.8-32.5z
		 M-817.5-37.5h2.8c3,0,5,2.1,5,5v0c0,3-2,5-5,5h-2.8V-37.5z"/>
	<g class="st1">
		<g>
			<path class="st4" d="M-871.9,6.7c-11.6,0-22.6-5.2-30-14.1c-0.8-1-1.5-2-2.2-3c-1.4-2.1-2.6-4.3-3.6-6.6c-2-4.8-3.1-9.9-3.1-15.1
				c0-21.4,17.4-38.9,38.9-38.9c2.6,0,5.3,0.3,7.8,0.8c10,2,18.7,7.8,24.4,16.3c1.4,2.1,2.6,4.3,3.6,6.6c2,4.8,3.1,9.9,3.1,15.1
				s-1,10.3-3.1,15.1c-1,2.3-2.2,4.5-3.6,6.6c-5.7,8.5-14.4,14.3-24.4,16.3C-866.6,6.4-869.2,6.7-871.9,6.7z"/>
			<path class="st3" d="M-871.9-68c2.5,0,4.9,0.3,7.2,0.7c9.3,1.9,17.4,7.5,22.5,15.1c1.3,1.9,2.4,3.9,3.3,6.1c1.8,4.3,2.8,9,2.8,14
				c0,5-1,9.7-2.8,14c-0.9,2.1-2,4.2-3.3,6.1c-5.2,7.6-13.2,13.2-22.5,15.1c-2.3,0.5-4.8,0.7-7.2,0.7h0c-11.1,0-21.1-5.1-27.7-13
				c-0.7-0.9-1.4-1.8-2.1-2.8c-1.3-1.9-2.4-3.9-3.3-6.1c-1.8-4.3-2.8-9-2.8-14C-907.7-52-891.7-68-871.9-68 M-871.9-74
				c-23.1,0-41.9,18.8-41.9,41.9c0,5.6,1.1,11.1,3.3,16.3c1,2.5,2.3,4.9,3.9,7.1c0.7,1.1,1.6,2.2,2.4,3.2c8,9.7,19.8,15.2,32.3,15.2
				c2.8,0,5.7-0.3,8.4-0.9c10.8-2.2,20.1-8.5,26.3-17.6c1.5-2.2,2.8-4.6,3.9-7.1c2.2-5.2,3.3-10.6,3.3-16.3c0-5.6-1.1-11.1-3.3-16.3
				c-1-2.5-2.3-4.9-3.9-7.1c-6.2-9.1-15.5-15.4-26.3-17.6C-866.2-73.8-869-74-871.9-74L-871.9-74z"/>
		</g>
		<path class="st3" d="M-840.8-32.2c0-17.1-13.9-31.1-31.1-31.1v10.1v4.8h0V-16h0v4.8v10.1C-854.7-1.1-840.8-15-840.8-32.2z
			 M-871.9-18.4c7.6,0,13.8-6.2,13.8-13.8S-864.3-46-871.9-46v-4.8c10.3,0,18.6,8.3,18.6,18.6c0,10.3-8.3,18.6-18.6,18.6V-18.4z"/>
		<path class="st4" d="M-838.8-46.1c-0.9-2.1-2-4.2-3.3-6.1c-5.2-7.6-13.2-13.2-22.5-15.1c-2.3-0.5-4.8-0.7-7.2-0.7
			c-19.8,0-35.9,16.1-35.9,35.9c0,5,1,9.7,2.8,14c0.9,2.1,2,4.2,3.3,6.1c0.6,1,1.3,1.9,2.1,2.8c6.6,8,16.5,13,27.7,13h0
			c2.5,0,4.9-0.3,7.2-0.7c9.3-1.9,17.4-7.5,22.5-15.1c1.3-1.9,2.4-3.9,3.3-6.1c1.8-4.3,2.8-9,2.8-14S-837-41.9-838.8-46.1z
			 M-871.9-1.1v-10.1V-16h0v-32.4h0v-4.8v-10.1c17.1,0,31.1,13.9,31.1,31.1C-840.8-15-854.7-1.1-871.9-1.1z"/>
		<path class="st4" d="M-857.5-74.8c5.2-2.7,7.3-9.1,7.3-9.1s-6.4-2-11.6,0.7c-5.2,2.7-7.3,9.1-7.3,9.1S-862.8-72.1-857.5-74.8z"/>
		<path class="st4" d="M-867.1-84.8c0-5.9-4.7-10.7-4.7-10.7s-4.7,4.8-4.7,10.7s4.7,10.7,4.7,10.7S-867.1-78.9-867.1-84.8z"/>
		<path class="st4" d="M-853.3-32.2c0-10.3-8.3-18.6-18.6-18.6v4.8c7.6,0,13.8,6.2,13.8,13.8s-6.2,13.8-13.8,13.8v4.8
			C-861.6-13.6-853.3-21.9-853.3-32.2z"/>
	</g>
	<g class="st1">
		<path id="SVGID_x5F_3_x5F_" class="st6" d="M-800.1-32.2c0,39.7-32.2,71.8-71.8,71.8s-71.8-32.2-71.8-71.8s32.2-71.8,71.8-71.8
			S-800.1-71.9-800.1-32.2z"/>
		<text>		<textPath  xlink:href="#SVGID_x5F_3_x5F_" startOffset="1810.246%">
<tspan  class="st4" style="font-family:'Gotham-Bold'; font-size:17px;">orlando</tspan>		</textPath>
</text>
		<path id="SVGID_x5F_4_x5F_" class="st6" d="M-792.1-32.2c0,44.1-35.7,79.8-79.8,79.8s-79.8-35.7-79.8-79.8S-916-112-871.9-112
			S-792.1-76.3-792.1-32.2z"/>
		<text>		<textPath  xlink:href="#SVGID_x5F_4_x5F_" startOffset="276.9003%">
<tspan  class="st4" style="font-family:'Gotham-Bold'; font-size:17px;">designers</tspan>		</textPath>
</text>
		<g>
			<circle class="st6" cx="-871.9" cy="-32.2" r="79.8"/>
		</g>
	</g>
	<text transform="matrix(1 0 0 1 -889.8542 21.6658)" class="st8" style="font-family:'Gotham-Bold'; font-size:7px;">EST 2015</text>
	<g class="st1">
		<g>
			<path class="st10" d="M-240.2,284.1h-27.7c-1.2,0-2.2-1-2.2-2.2v-27.7c0-1.2,1-2.2,2.2-2.2h27.7c1.2,0,2.2,1,2.2,2.2v27.7
				C-237.9,283.1-238.9,284.1-240.2,284.1z"/>
		</g>
		<g>
			<path class="st3" d="M-254,261.1L-254,261.1c0.2,0,0.3,0,0.5,0C-253.7,261.1-253.8,261.1-254,261.1z"/>
			<path class="st3" d="M-254,280.9c0.2,0,0.3,0,0.5,0C-253.7,280.9-253.8,280.9-254,280.9L-254,280.9z"/>
			<path class="st3" d="M-244.9,267.1c-0.1-0.3-0.3-0.6-0.4-0.9s-0.3-0.6-0.5-0.8c-0.4-0.7-1-1.3-1.5-1.8c-0.1-0.1-0.3-0.3-0.5-0.4
				c-0.3-0.2-0.6-0.5-1-0.7c-0.2-0.1-0.3-0.2-0.5-0.3c-0.8-0.5-1.8-0.8-2.7-1c-0.3-0.1-0.6-0.1-1-0.1c-0.2,0-0.3,0-0.5,0
				c-0.2,0-0.3,0-0.5,0c-1.2,0-2.3,0.2-3.4,0.6c-0.3,0.1-0.6,0.2-0.9,0.4c-0.7,0.3-1.4,0.8-2,1.3c-0.6,0.5-1.2,1.1-1.6,1.7
				c-0.9,1.1-1.5,2.5-1.8,3.9c0,0.2-0.1,0.3-0.1,0.5c-0.1,0.5-0.1,1-0.1,1.5c0,0.2,0,0.3,0,0.5c0,0.5,0.1,1,0.2,1.5
				c0.1,0.3,0.1,0.6,0.2,0.9c0.1,0.3,0.2,0.6,0.3,0.9c0.1,0.1,0.1,0.3,0.2,0.4c0.2,0.4,0.4,0.8,0.7,1.2c0.1,0.1,0.2,0.3,0.3,0.4
				c0.1,0.1,0.2,0.3,0.3,0.4c0.1,0.1,0.2,0.3,0.4,0.4s0.2,0.3,0.4,0.4c0.5,0.5,1.1,0.9,1.7,1.3c0.3,0.2,0.6,0.4,0.9,0.5
				c1.3,0.6,2.7,1,4.3,1h0c0.2,0,0.3,0,0.5,0s0.3,0,0.5,0c0.3,0,0.7-0.1,1-0.1c1-0.2,1.9-0.5,2.7-1c0.2-0.1,0.3-0.2,0.5-0.3
				c0.3-0.2,0.7-0.4,1-0.7c0.2-0.1,0.3-0.3,0.5-0.4c0.6-0.5,1.1-1.1,1.5-1.8c0.2-0.3,0.3-0.5,0.5-0.8s0.3-0.6,0.4-0.9
				c0.5-1.2,0.8-2.5,0.8-3.8C-244.1,269.6-244.4,268.3-244.9,267.1z M-254,279.5v-2.8v-1.3h0v-8.9h0v-1.3v-2.8
				c4.7,0,8.6,3.8,8.6,8.6C-245.4,275.7-249.3,279.5-254,279.5z M-254,265.8v1.3c2.1,0,3.8,1.7,3.8,3.8c0,2.1-1.7,3.8-3.8,3.8v1.3
				c2.8,0,5.1-2.3,5.1-5.1C-248.9,268.1-251.2,265.8-254,265.8z"/>
		</g>
		<path class="st3" d="M-253,259.5c0.2,0.1,0.6,0.1,1,0.1c0.6,0,1.3-0.1,2-0.4c1.4-0.7,2-2.5,2-2.5s-1.8-0.6-3.2,0.2
			c-1.4,0.7-2,2.5-2,2.5S-253.2,259.5-253,259.5z"/>
		<path class="st3" d="M-252.7,256.5c0-1.6-1.3-2.9-1.3-2.9s-1.3,1.3-1.3,2.9c0,1.6,1.3,2.9,1.3,2.9S-252.7,258.1-252.7,256.5z"/>
	</g>
</g>
</svg>
